<svg xmlns="http://www.w3.org/2000/svg" width="80.7" height="79.2" viewBox="0 0 80.7 79.2"><defs><style>.cls-1{fill:#ff7e67;}.cls-2{fill:#dcdeff;}.cls-3{fill:#6364c2;}</style></defs><title>icon-1</title><g id="color"><path class="cls-1" d="M43.9,35.7c0-.7-.6-1.9-2.5-1.9H36.8v3.6h4.6C43.3,37.4,43.9,36.6,43.9,35.7Z"/><polygon class="cls-1" points="21 41.2 26.9 41.2 24 34.4 21 41.2"/><path class="cls-1" d="M41.4,40.1H36.8v4.1h4.6c1.2,0,3-.4,3-1.9S42.6,40.1,41.4,40.1Z"/><path class="cls-1" d="M45.4,8.6A35.3,35.3,0,1,0,80.7,43.9,35.3,35.3,0,0,0,45.4,8.6ZM29.5,47l-1.4-3H19.8l-1.4,3H15.1l7.2-16h3.3l7.2,16Zm11.9,0H33.8V31h7.6c3.1,0,5.5,1.4,5.5,4.7a3.1,3.1,0,0,1-2.1,3,4,4,0,0,1,2.6,3.6C47.4,45.9,44.7,47,41.4,47Zm14.6.4c-3.2,0-5.7-1-6.9-3.9l2.5-1.3c.7,1.8,2.5,2.5,4.5,2.5s3.7-.6,3.7-2.4-1.6-2.1-3.7-2.3-6.3-1.3-6.3-4.9S53,30.5,56,30.5s5.1.7,6.3,3.1l-2.4,1.3a4.8,4.8,0,0,0-3.8-1.8c-2.3,0-3.3.9-3.3,2.1s1.6,1.8,3.5,2c3.4.4,6.5,1.3,6.5,5.1S59.6,47.4,56,47.4Z"/><path class="cls-2" d="M43.9,35.7c0-.7-.6-1.9-2.5-1.9H36.8v3.6h4.6C43.3,37.4,43.9,36.6,43.9,35.7Z"/><polygon class="cls-2" points="21 41.2 26.9 41.2 24 34.4 21 41.2"/><path class="cls-2" d="M41.4,40.1H36.8v4.1h4.6c1.2,0,3-.4,3-1.9S42.6,40.1,41.4,40.1Z"/><path class="cls-2" d="M45.4,8.6A35.3,35.3,0,1,0,80.7,43.9,35.3,35.3,0,0,0,45.4,8.6ZM29.5,47l-1.4-3H19.8l-1.4,3H15.1l7.2-16h3.3l7.2,16Zm11.9,0H33.8V31h7.6c3.1,0,5.5,1.4,5.5,4.7a3.1,3.1,0,0,1-2.1,3,4,4,0,0,1,2.6,3.6C47.4,45.9,44.7,47,41.4,47Zm14.6.4c-3.2,0-5.7-1-6.9-3.9l2.5-1.3c.7,1.8,2.5,2.5,4.5,2.5s3.7-.6,3.7-2.4-1.6-2.1-3.7-2.3-6.3-1.3-6.3-4.9S53,30.5,56,30.5s5.1.7,6.3,3.1l-2.4,1.3a4.8,4.8,0,0,0-3.8-1.8c-2.3,0-3.3.9-3.3,2.1s1.6,1.8,3.5,2c3.4.4,6.5,1.3,6.5,5.1S59.6,47.4,56,47.4Z"/></g><g id="icons"><path class="cls-3" d="M36.9,0a37,37,0,1,0,37,36.9A37,37,0,0,0,36.9,0Zm0,70.6A33.7,33.7,0,1,1,70.6,36.9,33.7,33.7,0,0,1,36.9,70.6Z"/><path class="cls-3" d="M20.3,29,13.1,45h3.3l1.4-3h8.3l1.4,3h3.3L23.6,29ZM19,39.2l3-6.8,2.9,6.8Z"/><path class="cls-3" d="M42.8,36.7a3.1,3.1,0,0,0,2.1-3c0-3.3-2.4-4.7-5.5-4.7H31.8V45h7.6c3.3,0,6-1.1,6-4.7A4,4,0,0,0,42.8,36.7Zm-8-4.9h4.6c1.9,0,2.5,1.2,2.5,1.9s-.6,1.7-2.5,1.7H34.8Zm4.6,10.4H34.8V38.1h4.6c1.2,0,3,.7,3,2.2S40.6,42.2,39.4,42.2Z"/><path class="cls-3" d="M54.3,35.2c-1.9-.2-3.5-.6-3.5-2s1-2.1,3.3-2.1a4.8,4.8,0,0,1,3.8,1.8l2.4-1.3c-1.2-2.4-3.8-3.1-6.3-3.1s-6.2,1.3-6.2,4.6,3,4.5,6.3,4.9,3.7.8,3.7,2.3-1.8,2.4-3.7,2.4-3.8-.7-4.5-2.5l-2.5,1.3c1.2,2.9,3.7,3.9,6.9,3.9s6.8-1.5,6.8-5.1S57.7,35.6,54.3,35.2Z"/></g></svg>