<svg id="Layer_1" data-name="Layer 1" xmlns="http://www.w3.org/2000/svg" width="88.7" height="86.1" viewBox="0 0 88.7 86.1"><title>profile+</title><path d="M39.1,45.1A22.6,22.6,0,1,0,16.5,22.6,22.5,22.5,0,0,0,39.1,45.1Zm0-38.7A16.2,16.2,0,1,1,23,22.6,16.2,16.2,0,0,1,39.1,6.4Z"/><path d="M41.9,47.5H35.5A35.4,35.4,0,0,0,0,82.9a3.2,3.2,0,0,0,3.2,3.2H74.1a3.2,3.2,0,0,0,3.3-3.2A35.4,35.4,0,0,0,41.9,47.5ZM6.6,79.7A29.1,29.1,0,0,1,35.5,53.9h6.4A28.9,28.9,0,0,1,70.7,79.7Z"/><path d="M73.7,27.8A3.3,3.3,0,0,1,77,31.1v8.4h8.4a3.3,3.3,0,0,1,0,6.6H77v8.4a3.3,3.3,0,1,1-6.6,0V46.1H62a3.3,3.3,0,1,1,0-6.6h8.4V31.1A3.3,3.3,0,0,1,73.7,27.8Z"/></svg>