<svg width="26" height="26" viewBox="0 0 26 26" fill="none" xmlns="http://www.w3.org/2000/svg">
<path d="M24.8408 11.4699C25.1301 11.4699 25.3645 11.7042 25.3645 11.9936V14.0882C25.3645 14.3775 25.1301 14.6119 24.8408 14.6119H14.3675V25.0852C14.3675 25.3745 14.1332 25.6089 13.8438 25.6089H11.7492C11.4599 25.6089 11.2255 25.3745 11.2255 25.0852V14.6119H0.752182C0.462861 14.6119 0.228516 14.3775 0.228516 14.0882V11.9936C0.228516 11.7042 0.462861 11.4699 0.752182 11.4699H11.2255V0.996567C11.2255 0.707246 11.4599 0.4729 11.7492 0.4729H13.8438C14.1332 0.4729 14.3675 0.707246 14.3675 0.996567V11.4699H24.8408Z" fill="#6D6D6D"/>
</svg>
