<svg xmlns="http://www.w3.org/2000/svg" width="91.2" height="85.2" viewBox="0 0 91.2 85.2"><defs><style>.cls-1{fill:#ff7e67;}.cls-2{fill:#dcdeff;}.cls-3{fill:#6364c2;}</style></defs><title>icon-1</title><g id="color"><path class="cls-1" d="M79.5,41.2v27H60.7a9.9,9.9,0,0,0-9.9,9.9v7.1H91.2V29.5h0A11.7,11.7,0,0,0,79.5,41.2Z"/><path class="cls-1" d="M37.9,27.4a9.4,9.4,0,0,1-4.3-6.3,9.9,9.9,0,0,1-.2-1.7,5.7,5.7,0,0,0-5.2-5.8,16.1,16.1,0,0,0-3.8,0,17.5,17.5,0,0,0-14.8,13A17.3,17.3,0,0,0,25,48.1a17.6,17.6,0,0,0,16.9-9.5A26.7,26.7,0,0,0,43.3,35a5.8,5.8,0,0,0-3.8-6.9Z"/><path class="cls-2" d="M79.5,41.2v27H60.7a9.9,9.9,0,0,0-9.9,9.9v7.1H91.2V29.5h0A11.7,11.7,0,0,0,79.5,41.2Z"/><path class="cls-2" d="M37.9,27.4a9.4,9.4,0,0,1-4.3-6.3,9.9,9.9,0,0,1-.2-1.7,5.7,5.7,0,0,0-5.2-5.8,16.1,16.1,0,0,0-3.8,0,17.5,17.5,0,0,0-14.8,13A17.3,17.3,0,0,0,25,48.1a17.6,17.6,0,0,0,16.9-9.5A26.7,26.7,0,0,0,43.3,35a5.8,5.8,0,0,0-3.8-6.9Z"/></g><g id="icons"><path class="cls-3" d="M42.9,21A10.5,10.5,0,1,0,32.4,10.5,10.5,10.5,0,0,0,42.9,21Zm0-17.7a7.2,7.2,0,0,1,7.2,7.2,6.9,6.9,0,0,1-1.8,4.7,6.9,6.9,0,0,1-5.4,2.5,7.2,7.2,0,1,1,0-14.4Z"/><rect class="cls-3" x="67.3" y="13.1" width="18.2" height="3.3" transform="translate(10.2 55.7) rotate(-42.7)"/><path class="cls-3" d="M86.3,22.6A13.4,13.4,0,0,0,73,35.9V61.3H68.3a5.8,5.8,0,0,0,.7-2.1L70.1,50a17.2,17.2,0,0,0-.5-6L65.4,29a11,11,0,0,0-2.6-4.4l-5.5-5.5a1.6,1.6,0,0,0-2.1-.1l-9.8,7a1.7,1.7,0,0,0-.4,2.3l2.8,3.9,2.7-1.9-1.8-2.6L56,22.5l4.4,4.4a6.7,6.7,0,0,1,1.8,3l4.2,15a11,11,0,0,1,.4,4.8l-1.1,9.1c0,.2-.1.4-.1.6L55.4,50.7,53.9,39.2l-3.2.4L52,49.9H35.9a1.5,1.5,0,0,0-1.5,1L26.9,68.3A11.8,11.8,0,0,0,16.3,79.9v2.8A1.7,1.7,0,0,0,18,84.4H32.4a1.9,1.9,0,0,0,1.5-.9l10-18.9h3.9a11.3,11.3,0,0,0-3.5,8.2v7.1A1.7,1.7,0,0,0,46,81.6H86.3A1.7,1.7,0,0,0,88,79.9V24.2A1.6,1.6,0,0,0,86.3,22.6ZM42.9,61.3a1.6,1.6,0,0,0-1.5.9l-10,18.9H19.6V79.9A8.4,8.4,0,0,1,28,71.6a1.8,1.8,0,0,0,1.5-1L37,53.2H53.2l9.5,8.1Zm41.8,17H47.6V72.8a8.2,8.2,0,0,1,8.2-8.2H66.5l11.4,9.8,2.2-2.5-8.5-7.3h3.1a1.7,1.7,0,0,0,1.6-1.7v-27A10.1,10.1,0,0,1,84.7,26Z"/><path class="cls-3" d="M18.9,46.1a17.6,17.6,0,0,0,7.6-1.7h0l16.6-1.8a2,2,0,0,0,.8-.4l12.8-10-2-2.6L42.2,39.4l-10,1.1a20.4,20.4,0,0,0,3.7-4.9,26.2,26.2,0,0,0,1.5-3.9,7.5,7.5,0,0,0-4.8-8.9l-1.3-.6h0a7.5,7.5,0,0,1-3.6-5.1c0-.5-.1-.9-.1-1.4a7.3,7.3,0,0,0-6.7-7.5H16.7A19.2,19.2,0,0,0,.5,22.5,19.1,19.1,0,0,0,17.4,46ZM6.2,36.2A15.9,15.9,0,0,1,3.8,23.3,15.7,15.7,0,0,1,17.1,11.5h3.5a4.1,4.1,0,0,1,3.7,4.2,12.3,12.3,0,0,0,.2,1.9A10.6,10.6,0,0,0,29.6,25a8.2,8.2,0,0,0,1.9.9,4.2,4.2,0,0,1,2.7,5,14.4,14.4,0,0,1-1.3,3.2A15.6,15.6,0,0,1,6.2,36.2Z"/></g></svg>