<svg width="15" height="6" viewBox="0 0 15 6" fill="none" xmlns="http://www.w3.org/2000/svg">
<path d="M14.5292 2.25L12.6875 0.107143C12.6875 0.0357143 12.6363 0 12.534 0C12.4317 0 12.3464 0.0178571 12.2782 0.0535714C12.21 0.0892857 12.1588 0.160714 12.1247 0.267857C12.0906 0.375 12.1077 0.464286 12.1759 0.535714L13.813 2.67857H0.306955C0.238743 2.67857 0.170531 2.71429 0.102318 2.78571C0.0341061 2.85714 0 2.92857 0 3C0 3.07143 0.0341061 3.14286 0.102318 3.21429C0.170531 3.28571 0.238743 3.32143 0.306955 3.32143H13.813L12.1759 5.46429C12.1077 5.53571 12.0906 5.625 12.1247 5.73214C12.1588 5.83929 12.21 5.91071 12.2782 5.94643C12.3464 5.98214 12.4317 6 12.534 6C12.6363 6 12.6875 5.96429 12.6875 5.89286L14.5292 3.75C14.6656 3.53571 15 3.28571 15 3C15 2.71429 14.6656 2.46429 14.5292 2.25Z" fill="#F3CD0E"/>
</svg>
