<svg width="15" height="15" viewBox="0 0 15 15" fill="none" xmlns="http://www.w3.org/2000/svg">
<path d="M13.3967 0.00186404C12.6214 0.0450359 11.9927 0.692613 11.9718 1.49129C11.9508 2.18204 12.3699 2.78645 12.9776 3.00231V6.52081C12.9776 6.67191 12.8519 6.80143 12.7052 6.80143H10.2953C10.1487 6.80143 10.0229 6.67191 10.0229 6.52081V3.02389C10.6306 2.80803 11.0497 2.20363 11.0288 1.51288C11.0078 0.692613 10.3792 0.0450359 9.60382 0.00186404C8.7237 -0.0413078 8.01122 0.671027 8.01122 1.55605C8.01122 2.22521 8.43033 2.80803 9.01707 3.02389V6.54239C9.01707 6.6935 8.89134 6.82301 8.74466 6.82301H6.33481C6.18812 6.82301 6.06239 6.6935 6.06239 6.54239V3.02389C6.67009 2.80803 7.08919 2.20363 7.06824 1.51288C7.04728 0.714199 6.41863 0.0666218 5.64329 0.02345C4.76317 -0.0197219 4.05069 0.692613 4.05069 1.57764C4.05069 2.2468 4.4698 2.82962 5.05654 3.04548V6.56398C5.05654 6.71508 4.93081 6.8446 4.78412 6.8446H2.39523C2.24854 6.8446 2.12281 6.71508 2.12281 6.56398V3.02389C2.73051 2.80803 3.14962 2.20363 3.12866 1.51288C3.10771 0.692613 2.47905 0.0450359 1.70371 0.00186404C0.823591 -0.0413078 0.111115 0.671027 0.111115 1.55605C0.111115 2.22521 0.530218 2.80803 1.11696 3.02389V7.34107C1.11696 7.36266 1.11696 7.38425 1.11696 7.38425C1.13792 7.64328 1.36843 7.85914 1.61989 7.85914H4.80508C4.95176 7.85914 5.0775 7.98865 5.0775 8.13975V11.5719C4.4698 11.7878 4.05069 12.3922 4.07165 13.0829C4.0926 13.8816 4.72126 14.5292 5.4966 14.5724C6.37672 14.6155 7.08919 13.9032 7.08919 13.0182C7.08919 12.349 6.67009 11.7662 6.08335 11.5503V8.13975C6.08335 7.98865 6.20908 7.85914 6.35576 7.85914H8.76561C8.9123 7.85914 9.03803 7.98865 9.03803 8.13975V11.5719C8.43033 11.7878 8.01122 12.3922 8.03218 13.0829C8.05313 13.8816 8.68179 14.5292 9.45713 14.5724C10.3372 14.6155 11.0497 13.9032 11.0497 13.0182C11.0497 12.349 10.6306 11.7662 10.0439 11.5503V8.13975C10.0439 7.98865 10.1696 7.85914 10.3163 7.85914H13.5015C13.7739 7.85914 13.9835 7.64328 14.0044 7.38425C14.0044 7.36266 14.0044 7.34107 14.0044 7.34107V3.02389C14.5702 2.80803 14.9893 2.22521 14.9893 1.55605C14.9893 0.671027 14.2559 -0.0413078 13.3967 0.00186404ZM1.61989 2.07411C1.34747 2.07411 1.11696 1.83667 1.11696 1.55605C1.11696 1.27543 1.34747 1.03799 1.61989 1.03799C1.89231 1.03799 2.12281 1.27543 2.12281 1.55605C2.12281 1.83667 1.89231 2.07411 1.61989 2.07411ZM5.58042 13.5578C5.308 13.5578 5.0775 13.3204 5.0775 13.0398V13.0182V12.9966V12.975V12.9534V12.9318V12.9102V12.8887C5.0775 12.8887 5.0775 12.8671 5.09845 12.8671C5.18227 12.716 5.34991 12.608 5.53851 12.608C5.72711 12.608 5.9157 12.7376 5.97857 12.9102V12.9318V12.9534C5.97857 12.975 5.97857 12.9966 5.99952 13.0182V13.0398V13.0613V13.0829C6.06239 13.3204 5.85284 13.5578 5.58042 13.5578ZM5.58042 2.07411C5.308 2.07411 5.0775 1.83667 5.0775 1.55605C5.0775 1.27543 5.308 1.03799 5.58042 1.03799C5.85284 1.03799 6.08335 1.27543 6.08335 1.55605C6.08335 1.83667 5.85284 2.07411 5.58042 2.07411ZM9.52 13.5578C9.24758 13.5578 9.01707 13.3204 9.01707 13.0398C9.01707 12.7591 9.24758 12.5217 9.52 12.5217C9.79242 12.5217 10.0229 12.7591 10.0229 13.0398C10.0229 13.3204 9.79242 13.5578 9.52 13.5578ZM9.52 2.07411C9.24758 2.07411 9.01707 1.83667 9.01707 1.55605C9.01707 1.27543 9.24758 1.03799 9.52 1.03799C9.79242 1.03799 10.0229 1.27543 10.0229 1.55605C10.0229 1.83667 9.79242 2.07411 9.52 2.07411ZM13.4805 2.07411C13.2081 2.07411 12.9776 1.83667 12.9776 1.55605C12.9776 1.27543 13.2081 1.03799 13.4805 1.03799C13.7529 1.03799 13.9835 1.27543 13.9835 1.55605C13.9835 1.83667 13.7529 2.07411 13.4805 2.07411Z" fill="#7173C8"/>
</svg>
