<svg width="16" height="19" viewBox="0 0 16 19" fill="none" xmlns="http://www.w3.org/2000/svg">
<path d="M6.42651 17.1H10.1765C10.1765 17.6039 9.97897 18.0872 9.62734 18.4435C9.27571 18.7998 8.79879 19 8.30151 19C7.80423 19 7.32732 18.7998 6.97569 18.4435C6.62406 18.0872 6.42651 17.6039 6.42651 17.1ZM13.9265 13.3V7.6C13.9252 6.25397 13.4538 4.95185 12.5958 3.92424C11.7379 2.89663 10.5488 2.20984 9.23901 1.9855V0.95C9.23901 0.698044 9.14024 0.456408 8.96443 0.278249C8.78861 0.100089 8.55015 0 8.30151 0C8.05287 0 7.81442 0.100089 7.6386 0.278249C7.46279 0.456408 7.36401 0.698044 7.36401 0.95V1.9855C6.05427 2.20984 4.86513 2.89663 4.00719 3.92424C3.14924 4.95185 2.67786 6.25397 2.67651 7.6V13.3L0.801514 15.2H15.8015L13.9265 13.3Z" fill="black"/>
</svg>
