<svg width="20" height="13" viewBox="0 0 20 13" fill="none" xmlns="http://www.w3.org/2000/svg">
<path d="M7.39329 6.34915C7.39329 7.82534 8.63259 9.06343 10.1102 9.06343C11.5879 9.06343 12.8272 7.82534 12.8272 6.34915C12.8272 4.87296 11.5879 3.63486 10.1102 3.63486C8.63259 3.63486 7.39329 4.87296 7.39329 6.34915ZM11.2542 12.2063C14.4478 11.492 19.405 7.25391 19.405 7.25391C19.405 7.25391 15.7348 1.53962 10.8252 0.920574C10.5392 0.872955 9.58591 0.872955 9.39524 0.872955C4.62868 1.34915 0.81543 7.39676 0.81543 7.39676C0.81543 7.39676 4.96234 11.492 8.91859 12.1111C9.34758 12.3015 10.7775 12.3015 11.2542 12.2063ZM5.39133 6.63486C5.39133 4.15867 7.48862 2.15867 10.1102 2.15867C12.7318 2.15867 14.8291 4.15867 14.8291 6.63486C14.8291 9.11105 12.7318 11.0634 10.1102 11.0634C7.48862 11.0634 5.39133 9.06343 5.39133 6.63486Z" fill="black"/>
</svg>
