<svg width="14" height="13" viewBox="0 0 14 13" fill="none" xmlns="http://www.w3.org/2000/svg">
<path fill-rule="evenodd" clip-rule="evenodd" d="M0.1875 1.99043C0.1875 0.978555 1.00779 0.158264 2.01967 0.158264H2.85736C3.38281 0.158264 3.84083 0.515878 3.96827 1.02564L4.64361 3.72698C4.75535 4.17395 4.58834 4.64436 4.21976 4.9208L3.42971 5.51333C3.34767 5.57486 3.32984 5.66496 3.35288 5.72787C4.04636 7.62099 5.54997 9.1246 7.44309 9.81808C7.506 9.84112 7.5961 9.82329 7.65763 9.74125L8.25016 8.95121C8.5266 8.58262 8.997 8.41561 9.44398 8.52735L12.1453 9.20269C12.6551 9.33013 13.0127 9.78815 13.0127 10.3136V11.1513C13.0127 12.1632 12.1924 12.9835 11.1805 12.9835H9.8064C4.49403 12.9835 0.1875 8.67693 0.1875 3.36456V1.99043Z" fill="#0F172A"/>
</svg>
