<svg width="14" height="14" viewBox="0 0 14 14" fill="none" xmlns="http://www.w3.org/2000/svg">
<path d="M13.6389 5.28857L13.6581 5.29155H13.6774C13.6832 5.29155 13.6847 5.29237 13.6839 5.29209C13.6831 5.29178 13.6838 5.29173 13.6866 5.29406C13.6933 5.29969 13.7131 5.32046 13.7356 5.37663C13.7524 5.41883 13.7514 5.44419 13.7479 5.46006C13.7441 5.4769 13.7326 5.50497 13.694 5.54361L10.5005 8.74305L10.4093 8.83436L10.431 8.96154L11.2014 13.4963C11.1992 13.5977 11.1797 13.6604 11.1571 13.6996C11.1532 13.696 11.1491 13.6921 11.1447 13.6877L11.1186 13.6615L11.0861 13.6441L7.11837 11.5111L6.9958 11.4452L6.87521 11.5147L3.0119 13.7402C2.98964 13.7504 2.97599 13.7507 2.96655 13.7495C2.95452 13.748 2.93011 13.7414 2.89211 13.7129C2.84155 13.6749 2.80245 13.6158 2.79868 13.4958L3.56905 8.96154L3.59066 8.83436L3.49952 8.74305L0.305972 5.54361C0.267401 5.50497 0.255868 5.4769 0.252132 5.46006C0.248613 5.44419 0.247591 5.41883 0.264436 5.37663C0.286866 5.32046 0.306704 5.29969 0.313446 5.29406C0.316233 5.29173 0.316945 5.29178 0.316077 5.29209C0.315288 5.29237 0.316837 5.29155 0.322581 5.29155H0.341944L0.361077 5.28857L4.71592 4.6099L4.84792 4.58933L4.90417 4.46815L6.83786 0.303059C6.85013 0.279377 6.86152 0.270396 6.87017 0.265439C6.88075 0.259387 6.9042 0.25 6.95161 0.25C6.99903 0.25 7.02248 0.259387 7.03305 0.265439C7.04191 0.27051 7.05363 0.279793 7.06622 0.30472C7.06636 0.304993 7.06649 0.305268 7.06663 0.305544L9.09786 4.47243L9.15507 4.58979L9.28408 4.6099L13.6389 5.28857Z" stroke="black" stroke-width="0.5"/>
</svg>
