<svg width="23" height="23" viewBox="0 0 23 23" fill="none" xmlns="http://www.w3.org/2000/svg">
<g clip-path="url(#clip0_294_7420)">
<path fill-rule="evenodd" clip-rule="evenodd" d="M18.4847 1.00906C17.3159 1.00906 16.3685 1.95659 16.3685 3.12543V4.63068C16.3685 5.12395 16.5713 5.59549 16.9294 5.93463C17.263 6.25042 17.7049 6.42641 18.1642 6.42641H18.9345C19.3967 6.42641 19.8381 6.23448 20.1533 5.89647C20.4411 5.58791 20.6012 5.1817 20.6012 4.75978V1.63571C20.6012 1.28962 20.3207 1.00906 19.9746 1.00906H18.4847ZM15.6562 3.12543C15.6562 1.56326 16.9226 0.296875 18.4847 0.296875H19.9746C20.714 0.296875 21.3133 0.89629 21.3133 1.63571V4.75978C21.3133 5.36199 21.0849 5.94178 20.6742 6.38219C20.2242 6.86464 19.5942 7.13859 18.9345 7.13859H18.1642C17.5227 7.13859 16.9056 6.8928 16.4398 6.45178C15.9396 5.97813 15.6562 5.31957 15.6562 4.63068V3.12543Z" fill="#AEAEAE"/>
<path fill-rule="evenodd" clip-rule="evenodd" d="M19.85 6.44531C20.0466 6.44531 20.2061 6.60474 20.2061 6.8014V12.6952C20.2061 12.912 20.1401 13.1237 20.0169 13.3021L19.813 13.5975C19.6135 13.8863 19.2849 14.0587 18.9339 14.0587H18.4068C18.0898 14.0587 17.7891 13.9179 17.5861 13.6744L17.3101 13.3432C17.1501 13.1512 17.0625 12.9092 17.0625 12.6593V6.93232C17.0625 6.73565 17.2219 6.57623 17.4186 6.57623C17.6152 6.57623 17.7747 6.73565 17.7747 6.93232V12.6593C17.7747 12.7426 17.8039 12.8233 17.8572 12.8873L18.1332 13.2185C18.2009 13.2996 18.3011 13.3466 18.4068 13.3466H18.9339C19.0509 13.3466 19.1604 13.2891 19.2269 13.1928L19.4308 12.8975C19.4719 12.838 19.4939 12.7674 19.4939 12.6952V6.8014C19.4939 6.60474 19.6533 6.44531 19.85 6.44531Z" fill="#AEAEAE"/>
<path fill-rule="evenodd" clip-rule="evenodd" d="M18.6279 6.70703C18.7848 6.70703 18.9121 6.86646 18.9121 7.06312V13.7025C18.9121 13.8992 18.7848 14.0586 18.6279 14.0586C18.4709 14.0586 18.3438 13.8992 18.3438 13.7025V7.06312C18.3438 6.86646 18.4709 6.70703 18.6279 6.70703Z" fill="#AEAEAE"/>
<path fill-rule="evenodd" clip-rule="evenodd" d="M17.0469 4.65004C17.0469 4.45338 17.2064 4.29395 17.403 4.29395H19.6801C19.8767 4.29395 20.0362 4.45338 20.0362 4.65004C20.0362 4.84671 19.8767 5.00613 19.6801 5.00613H17.403C17.2064 5.00613 17.0469 4.84671 17.0469 4.65004Z" fill="#AEAEAE"/>
<path fill-rule="evenodd" clip-rule="evenodd" d="M17.0469 2.87367C17.0469 2.67701 17.2064 2.51758 17.403 2.51758H19.6809C19.8776 2.51758 20.037 2.67701 20.037 2.87367C20.037 3.07033 19.8776 3.22976 19.6809 3.22976H17.403C17.2064 3.22976 17.0469 3.07033 17.0469 2.87367Z" fill="#AEAEAE"/>
<path d="M2.03835 9.37221H2.4795C2.62226 10.1891 3.33501 10.8126 4.19242 10.8126C5.04961 10.8126 5.76228 10.1891 5.90504 9.37221H9.29719C9.43995 10.1891 10.1527 10.8126 11.0099 10.8126C11.8673 10.8126 12.58 10.1891 12.7228 9.37221H14.3332C14.6577 9.37221 14.9215 9.10837 14.9215 8.78391V7.16543C14.9215 6.33877 14.2489 5.66614 13.4222 5.66614H11.6334C11.3281 5.37451 11.0674 5.0577 10.8158 4.75197C10.1582 3.95287 9.56284 3.22949 8.39571 3.22949H4.78247C3.96196 3.22949 3.20734 3.64165 2.7637 4.33215L1.90746 5.66614H0.838921C0.67318 5.66614 0.539062 5.8004 0.539062 5.966V7.87291C0.539062 8.69957 1.21169 9.37221 2.03835 9.37221ZM4.19242 10.2129C3.56473 10.2129 3.05411 9.70325 3.05191 9.07623C3.05195 9.07556 3.05213 9.07497 3.05232 9.07437C3.05252 9.07372 3.05272 9.07307 3.05272 9.07235C3.05272 9.07162 3.05252 9.07097 3.05232 9.07032C3.05213 9.06973 3.05195 9.06913 3.05191 9.06847C3.05411 8.4413 3.56473 7.93162 4.19242 7.93162C4.82142 7.93162 5.33299 8.44335 5.33299 9.07235C5.33299 9.7012 4.82142 10.2129 4.19242 10.2129ZM11.0099 10.2129C10.3809 10.2129 9.86924 9.7012 9.86924 9.07235C9.86924 8.44335 10.3809 7.93162 11.0099 7.93162C11.6382 7.93162 12.1495 8.44232 12.1505 9.07041C12.1505 9.0711 12.1501 9.07169 12.1501 9.07235C12.1501 9.07272 12.1503 9.07307 12.1504 9.07344C12.1504 9.07314 12.1504 9.07371 12.1504 9.07344C12.1494 9.70138 11.6382 10.2129 11.0099 10.2129ZM10.8321 5.66614H7.01882V3.82921H8.39571C9.27152 3.82921 9.72141 4.37591 10.2172 4.97835C10.4067 5.2086 10.6029 5.44701 10.8321 5.66614ZM3.26854 4.65631C3.60119 4.13844 4.16694 3.82921 4.78247 3.82921H6.41911V5.66614H2.61991L3.26854 4.65631ZM1.13878 6.26586H13.4222C13.9183 6.26586 14.3218 6.66938 14.3218 7.16543L14.3332 8.77249H12.7228C12.58 7.95542 11.8673 7.33191 11.0099 7.33191C10.1527 7.33191 9.43995 7.95542 9.29719 8.77249H5.90504C5.76229 7.95542 5.04961 7.33191 4.19242 7.33191C3.33493 7.33191 2.62226 7.95542 2.4795 8.77249H2.03835C1.5423 8.77249 1.13878 8.36897 1.13878 7.87291V6.26586Z" fill="#AEAEAE"/>
<path d="M12.1616 9.07039L12.2625 9.04314L12.2672 9.07023L12.2672 9.07041L12.2676 9.07235L12.2676 9.07238L12.2674 9.07335H12.1507L12.1544 9.07235L12.1616 9.07041L12.1616 9.07039ZM12.197 9.07352L12.2674 9.07351L12.2674 9.07363L12.197 9.07352Z" stroke="#AEAEAE"/>
<path fill-rule="evenodd" clip-rule="evenodd" d="M4.23031 11.9455C4.23031 11.7874 4.10214 11.6592 3.94404 11.6592H0.825332C0.66723 11.6592 0.539062 11.7874 0.539062 11.9455V21.9255C0.539062 22.0836 0.66723 22.2118 0.825332 22.2118H3.94404C4.10214 22.2118 4.23031 22.0836 4.23031 21.9255V11.9455ZM3.65777 12.2317V21.6392H1.1116V12.2317H3.65777Z" fill="#AEAEAE"/>
<path fill-rule="evenodd" clip-rule="evenodd" d="M5.95398 12.7374C5.95398 12.5793 5.82582 12.4512 5.66772 12.4512H4.30971C4.15161 12.4512 4.02344 12.5793 4.02344 12.7374C4.02344 12.8955 4.15161 13.0237 4.30971 13.0237H5.38145V20.8664H4.30971C4.15161 20.8664 4.02344 20.9945 4.02344 21.1526C4.02344 21.3107 4.15161 21.4389 4.30971 21.4389H5.66772C5.82582 21.4389 5.95398 21.3107 5.95398 21.1526V12.7374Z" fill="#AEAEAE"/>
<path fill-rule="evenodd" clip-rule="evenodd" d="M20.808 14.8576C21.1959 14.7363 21.62 14.816 21.9386 15.0649C22.1833 15.2561 22.3294 15.5513 22.3294 15.8638C22.3294 16.2948 22.1018 16.6939 21.7307 16.9132L16.5577 19.9714C15.8077 20.4148 14.9524 20.6487 14.0811 20.6487H5.8019C5.6438 20.6487 5.51562 20.5206 5.51562 20.3625C5.51562 20.2044 5.6438 20.0762 5.8019 20.0762H14.0811C14.8499 20.0762 15.6046 19.8698 16.2663 19.4786L21.4393 16.4204C21.6361 16.304 21.7569 16.0924 21.7569 15.8638C21.7569 15.7295 21.6935 15.6 21.5862 15.5161C21.4141 15.3817 21.1853 15.3395 20.9789 15.404L15.6514 17.0701C15.6277 17.0775 15.6032 17.0818 15.5784 17.0829L11.7825 17.2488L10.6162 17.8722C10.4768 17.9467 10.3033 17.8941 10.2288 17.7546C10.1543 17.6152 10.2069 17.4417 10.3463 17.3672L11.57 16.7132C11.6078 16.693 11.6496 16.6815 11.6925 16.6796L15.5161 16.5125L20.808 14.8576Z" fill="#AEAEAE"/>
<path fill-rule="evenodd" clip-rule="evenodd" d="M5.47656 13.674C5.47656 13.5159 5.60473 13.3877 5.76283 13.3877H8.08058C8.61342 13.3877 9.13704 13.5268 9.59967 13.7911L10.2454 14.1601C10.6177 14.3729 11.0391 14.4848 11.4679 14.4848H13.097C13.5106 14.4848 13.9089 14.6412 14.212 14.9227C14.5872 15.2711 14.8004 15.76 14.8004 16.2721V16.7121C14.8004 16.8702 14.6722 16.9984 14.5141 16.9984C14.356 16.9984 14.2279 16.8702 14.2279 16.7121V16.2721C14.2279 15.9192 14.081 15.5823 13.8224 15.3422C13.6252 15.1591 13.366 15.0573 13.097 15.0573H11.4679C10.9395 15.0573 10.4202 14.9194 9.96139 14.6572L9.31561 14.2882C8.93949 14.0733 8.51378 13.9602 8.08058 13.9602H5.76283C5.60473 13.9602 5.47656 13.8321 5.47656 13.674Z" fill="#AEAEAE"/>
</g>
<defs>
<clipPath id="clip0_294_7420">
<rect width="23" height="23" fill="white"/>
</clipPath>
</defs>
</svg>
