<svg width="23" height="20" viewBox="0 0 23 20" fill="none" xmlns="http://www.w3.org/2000/svg">
<path fill-rule="evenodd" clip-rule="evenodd" d="M4.72387 0.854699C5.46257 0.299935 6.36142 0 7.28523 0C7.94257 0 8.59588 0.102656 9.22154 0.304256L15.5579 2.34595H17.1244C17.1382 2.34595 17.1518 2.34681 17.1652 2.34848V2.02421C17.1652 1.84396 17.3113 1.69784 17.4915 1.69784H18.7697C18.7755 1.69784 18.7812 1.69799 18.7868 1.69828V1.27824C18.7868 1.09799 18.9329 0.951867 19.1132 0.951867H22.0486C22.2289 0.951867 22.375 1.09799 22.375 1.27824V10.6718C22.375 10.8521 22.2289 10.9982 22.0486 10.9982H19.1132C18.9329 10.9982 18.7868 10.8521 18.7868 10.6718V10.2708C18.7812 10.2711 18.7755 10.2713 18.7697 10.2713H17.4915C17.3113 10.2713 17.1652 10.1251 17.1652 9.94488V9.5953H16.8809C15.8965 9.5953 14.9185 9.754 13.9846 10.0653L13.7135 10.1557C12.9837 10.3989 12.2194 10.523 11.45 10.523C10.5307 10.523 9.6262 10.2914 8.82002 9.84951L7.57498 9.16714H5.98257V9.85098C5.98257 10.4855 5.7419 11.0964 5.30913 11.5605C5.1536 11.7273 4.97763 11.8704 4.78684 11.9875C4.79093 12.0081 4.79308 12.0294 4.79308 12.0512V18.4396C4.79308 18.6383 4.7326 18.8323 4.61967 18.9959L4.34531 19.3932C4.16251 19.658 3.86131 19.816 3.53959 19.816H3.20681C3.20327 19.8161 3.19972 19.8162 3.19616 19.8162C3.19259 19.8162 3.18904 19.8161 3.1855 19.816H2.85737C2.56681 19.816 2.29126 19.687 2.10523 19.4638L1.74665 19.0335C1.59999 18.8576 1.51967 18.6357 1.51967 18.4067V12.1923C1.51967 12.1642 1.52324 12.1368 1.52996 12.1107C1.27352 11.9915 1.03565 11.8309 0.82665 11.633C0.29894 11.1333 0 10.4386 0 9.71184V8.08942C0 7.43867 0.207799 6.83646 0.560661 6.34552C0.559246 6.33778 0.558099 6.32993 0.55723 6.32199L0.55079 6.26313C0.408241 4.96026 0.963436 3.67879 2.01145 2.89173L4.72387 0.854699ZM1.18538 5.70458C1.68722 5.32398 2.31288 5.09814 2.99128 5.09814H3.33784C3.35719 5.05224 3.38737 5.0101 3.42805 4.97577L4.13079 4.38269C5.7534 3.01327 8.16048 3.13896 9.63164 4.66993C10.0438 5.09887 9.94079 5.80138 9.4228 6.09389L8.05691 6.86522C8.00794 6.89287 7.95266 6.9074 7.89642 6.9074H5.10677C4.66301 6.9074 4.30327 7.26714 4.30327 7.7109C4.30327 8.15465 4.66301 8.51439 5.10677 8.51439H7.65855C7.71339 8.51439 7.76733 8.52821 7.81542 8.55456L9.13374 9.2771C9.84376 9.66625 10.6404 9.87023 11.45 9.87023C12.1492 9.87023 12.8438 9.75752 13.5071 9.53642L13.7782 9.44605C14.7787 9.11256 15.8263 8.94255 16.8809 8.94255H17.1652V2.99617C17.1518 2.99784 17.1382 2.9987 17.1244 2.9987H15.5066C15.4726 2.9987 15.4388 2.99339 15.4065 2.98297L9.02135 0.925545C8.46037 0.744787 7.87461 0.652745 7.28523 0.652745C6.50279 0.652745 5.7415 0.906779 5.11585 1.37664L2.40344 3.41367C1.67116 3.96361 1.23084 4.80643 1.18538 5.70458ZM4.29512 5.09814H4.59696C5.28417 5.09814 5.85454 5.59842 5.96372 6.25465H7.81064L9.10183 5.52551C9.24854 5.44266 9.27772 5.24369 9.16098 5.1222C7.92829 3.8394 5.91138 3.73408 4.55178 4.88152L4.29512 5.09814ZM5.2933 6.25465C5.19711 5.9621 4.9217 5.75088 4.59696 5.75088H2.99128C1.69974 5.75088 0.652745 6.79788 0.652745 8.08942V9.71184C0.652745 10.2593 0.87793 10.7826 1.27544 11.159C1.64558 11.5095 2.13594 11.7048 2.64568 11.7048H3.47604C3.99013 11.7048 4.48113 11.4913 4.83176 11.1153C5.15183 10.7721 5.32982 10.3203 5.32982 9.85098V9.16714H5.10677C4.45351 9.16714 3.90072 8.737 3.71617 8.14449H1.82437C1.64412 8.14449 1.498 7.99837 1.498 7.81812C1.498 7.63787 1.64412 7.49175 1.82437 7.49175H3.66691C3.7726 6.79146 4.377 6.25465 5.10677 6.25465H5.2933ZM2.17242 12.3148V18.4067C2.17242 18.483 2.19919 18.557 2.24808 18.6156L2.60666 19.0459C2.66867 19.1203 2.76052 19.1633 2.85737 19.1633H2.86978V12.3575H2.64568C2.4859 12.3575 2.32756 12.3431 2.17242 12.3148ZM3.52253 12.3571V19.1633H3.53959C3.64683 19.1633 3.74723 19.1106 3.80816 19.0224L4.08253 18.625C4.12017 18.5705 4.14033 18.5058 4.14033 18.4396V12.2679C3.94056 12.3228 3.73315 12.3532 3.52253 12.3571ZM18.7868 9.61895V2.35014C18.7812 2.35044 18.7755 2.35058 18.7697 2.35058H17.8179V9.61851H18.7697C18.7755 9.61851 18.7812 9.61866 18.7868 9.61895ZM19.4396 1.60461V10.3454H21.7223V1.60461H19.4396ZM1.498 9.73285C1.498 9.5526 1.64412 9.40648 1.82437 9.40648H4.27864C4.45889 9.40648 4.60501 9.5526 4.60501 9.73285C4.60501 9.9131 4.45889 10.0592 4.27864 10.0592H1.82437C1.64412 10.0592 1.498 9.9131 1.498 9.73285Z" fill="#AEAEAE"/>
<path d="M19.7152 17.9924H19.2568C19.1084 18.8414 18.3677 19.4894 17.4766 19.4894C16.5857 19.4894 15.845 18.8414 15.6967 17.9924H12.1713C12.0229 18.8414 11.2822 19.4894 10.3914 19.4894C9.50027 19.4894 8.75952 18.8414 8.61116 17.9924H6.93748C6.60027 17.9924 6.32607 17.7182 6.32607 17.381V15.699C6.32607 14.8398 7.02512 14.1408 7.88426 14.1408H9.74329C10.8901 13.0455 11.4311 11.6084 13.1082 11.6084H16.8633C17.7161 11.6084 18.5003 12.0367 18.9614 12.7544L19.8513 14.1408H20.9618C21.1341 14.1408 21.2734 14.2803 21.2734 14.4524V16.4342C21.2734 17.2934 20.5744 17.9924 19.7152 17.9924ZM17.4766 18.8662C18.1289 18.8662 18.6596 18.3365 18.6619 17.6848C18.6618 17.6834 18.661 17.6822 18.661 17.6808C18.661 17.6793 18.6618 17.6782 18.6619 17.6767C18.6596 17.0249 18.1289 16.4952 17.4766 16.4952C16.8229 16.4952 16.2912 17.0271 16.2912 17.6808C16.2912 18.3343 16.8229 18.8662 17.4766 18.8662ZM10.3914 18.8662C11.0451 18.8662 11.5767 18.3343 11.5767 17.6808C11.5767 17.0271 11.0451 16.4952 10.3914 16.4952C9.73834 16.4952 9.20697 17.026 9.20591 17.6788C9.20591 17.6795 9.20629 17.6801 9.20629 17.6808C9.20629 17.6815 9.20591 17.6821 9.20591 17.6828C9.20697 18.3354 9.73834 18.8662 10.3914 18.8662ZM10.5761 14.1408H14.5391V12.2317H13.1082C11.85 12.2317 11.4376 13.3172 10.5761 14.1408ZM18.4367 13.0913C18.091 12.5531 17.503 12.2317 16.8633 12.2317H15.1624V14.1408H19.1108L18.4367 13.0913ZM20.6502 14.764C19.9379 14.764 7.40376 14.764 7.88426 14.764C7.36872 14.764 6.94935 15.1834 6.94935 15.699L6.93748 17.3691H8.61116C8.75952 16.52 9.5002 15.872 10.3914 15.872C11.2822 15.872 12.0229 16.52 12.1713 17.3691H15.6967C15.845 16.52 16.5857 15.872 17.4766 15.872C18.3677 15.872 19.1084 16.52 19.2568 17.3691H19.7152C20.2308 17.3691 20.6502 16.9498 20.6502 16.4342V14.764Z" fill="#AEAEAE"/>
</svg>
