<svg width="26" height="27" viewBox="0 0 26 27" fill="none" xmlns="http://www.w3.org/2000/svg">
<path d="M5.35228 1C5.29461 1.00023 5.23756 1.01175 5.18437 1.03392C5.13119 1.05609 5.08291 1.08848 5.04229 1.12922C5.00168 1.16996 4.96953 1.21827 4.94767 1.27138C4.92581 1.32449 4.91467 1.38137 4.9149 1.43876V3.02648H2.54192C1.44095 3.02648 0.541992 3.92471 0.541992 5.02052V19.7897C0.541992 20.8855 1.44095 21.7803 2.54192 21.7803H5.97661C7.17923 24.4701 9.88945 26.3489 13.0347 26.3489C16.1799 26.3489 18.8909 24.4701 20.0944 21.7803H23.53C24.631 21.7803 25.5299 20.8855 25.5299 19.7897V5.02052C25.5299 3.92471 24.631 3.02648 23.53 3.02648H21.1862V1.43876C21.1864 1.38108 21.1751 1.32392 21.1531 1.27059C21.131 1.21725 21.0985 1.1688 21.0576 1.12801C21.0166 1.08722 20.9679 1.05491 20.9143 1.03294C20.8607 1.01097 20.8033 0.999778 20.7454 1C20.6877 1.00023 20.6306 1.01175 20.5775 1.03392C20.5243 1.05609 20.476 1.08848 20.4354 1.12922C20.3948 1.16996 20.3626 1.21827 20.3408 1.27138C20.3189 1.32449 20.3078 1.38137 20.308 1.43876V3.02648H13.4883V1.43876C13.4886 1.38137 13.4774 1.32449 13.4556 1.27138C13.4337 1.21827 13.4016 1.16996 13.3609 1.12922C13.3203 1.08848 13.2721 1.05609 13.2189 1.03392C13.1657 1.01175 13.1086 1.00023 13.051 1C12.993 0.999778 12.9356 1.01097 12.882 1.03294C12.8284 1.05491 12.7797 1.08722 12.7388 1.12801C12.6978 1.1688 12.6653 1.21725 12.6432 1.27059C12.6212 1.32392 12.6099 1.38108 12.6102 1.43876V3.02648H5.79308V1.43876C5.79331 1.38108 5.78206 1.32392 5.75999 1.27059C5.73792 1.21725 5.70546 1.1688 5.66448 1.12801C5.6235 1.08722 5.57482 1.05491 5.52123 1.03294C5.46765 1.01097 5.41023 0.999778 5.35228 1ZM2.54192 3.90058H4.9149V5.49086C4.91456 5.54832 4.92561 5.60529 4.94742 5.6585C4.96923 5.71171 5.00136 5.76012 5.04199 5.80095C5.08261 5.84179 5.13093 5.87424 5.18418 5.89647C5.23742 5.91869 5.29454 5.93025 5.35228 5.93047C5.4103 5.9307 5.46779 5.91947 5.52143 5.89745C5.57507 5.87543 5.6238 5.84304 5.66479 5.80216C5.70578 5.76128 5.73822 5.71273 5.76024 5.65929C5.78226 5.60586 5.79343 5.54861 5.79308 5.49086V3.90058H12.6102V5.49086C12.6098 5.54861 12.621 5.60586 12.643 5.65929C12.665 5.71273 12.6975 5.76128 12.7385 5.80216C12.7794 5.84304 12.8282 5.87543 12.8818 5.89745C12.9354 5.91947 12.9929 5.9307 13.051 5.93047C13.1087 5.93025 13.1658 5.91869 13.2191 5.89647C13.2723 5.87424 13.3206 5.84179 13.3613 5.80095C13.4019 5.76012 13.434 5.71171 13.4558 5.6585C13.4776 5.60529 13.4887 5.54832 13.4883 5.49086V3.90058H20.308V5.49086C20.3076 5.54832 20.3187 5.60529 20.3405 5.6585C20.3623 5.71171 20.3944 5.76012 20.4351 5.80095C20.4757 5.84179 20.524 5.87424 20.5773 5.89647C20.6305 5.91869 20.6876 5.93025 20.7454 5.93047C20.8034 5.9307 20.8609 5.91947 20.9145 5.89745C20.9682 5.87543 21.0169 5.84304 21.0579 5.80216C21.0989 5.76128 21.1313 5.71273 21.1533 5.65929C21.1753 5.60586 21.1865 5.54861 21.1862 5.49086V3.90058H23.53C24.1597 3.90058 24.6509 4.39389 24.6509 5.02052V7.64282H1.42103V5.02052C1.42103 4.39389 1.91223 3.90058 2.54192 3.90058ZM1.42103 8.51777H24.6509V19.7897C24.6509 20.4164 24.1597 20.9062 23.53 20.9062H20.4229C20.6408 20.1966 20.7582 19.4437 20.7582 18.6638C20.7582 14.4246 17.294 10.9787 13.0347 10.9787C8.7753 10.9787 5.31368 14.4246 5.31368 18.6638C5.31368 19.4437 5.43129 20.1966 5.64901 20.9062H2.54192C1.91223 20.9062 1.42103 20.4164 1.42103 19.7897V8.51777ZM13.0347 11.8537C16.8195 11.8537 19.88 14.897 19.88 18.6638C19.88 19.5489 19.7109 20.394 19.4032 21.1692C19.3942 21.1874 19.3865 21.2062 19.3801 21.2255C18.3641 23.7194 15.9086 25.4748 13.0347 25.4748C10.1664 25.4748 7.71656 23.7261 6.69786 21.24C6.68797 21.2008 6.67268 21.1632 6.65241 21.1282C6.35519 20.3642 6.19187 19.5334 6.19187 18.6638C6.19187 14.897 9.24985 11.8537 13.0347 11.8537ZM16.4685 16.0176C16.3526 16.0174 16.2413 16.0628 16.1589 16.1439L12.0553 20.2549L9.913 18.1124C9.83119 18.0305 9.72014 17.9842 9.60413 17.9835C9.48811 17.9829 9.37654 18.0279 9.29381 18.1089C9.25257 18.1493 9.21975 18.1974 9.19724 18.2504C9.17473 18.3035 9.16298 18.3605 9.16266 18.4181C9.16234 18.4756 9.17346 18.5327 9.19538 18.586C9.2173 18.6393 9.24958 18.6878 9.29038 18.7286L11.744 21.1836C11.7848 21.2244 11.8333 21.2568 11.8867 21.2789C11.9401 21.301 11.9974 21.3124 12.0553 21.3124C12.1131 21.3124 12.1704 21.301 12.2239 21.2789C12.2773 21.2568 12.3258 21.2244 12.3666 21.1836L16.7815 16.7602C16.8629 16.6778 16.9082 16.5668 16.9075 16.4513C16.9069 16.3358 16.8603 16.2253 16.778 16.1439C16.6956 16.0628 16.5844 16.0174 16.4685 16.0176Z" fill="black" stroke="black" stroke-width="0.1"/>
</svg>
