<svg width="54" height="48" viewBox="0 0 54 48" fill="none" xmlns="http://www.w3.org/2000/svg">
<path d="M49.318 0C50.5066 0.000794952 51.6463 0.473397 52.4867 1.31398C53.3271 2.15456 53.7995 3.29437 53.8 4.483V31.383C53.7995 32.5718 53.327 33.7118 52.4864 34.5524C51.6458 35.393 50.5058 35.8655 49.317 35.866H31.384L33.626 44.833H40.351C40.7474 44.833 41.1275 44.9905 41.4078 45.2707C41.688 45.551 41.8455 45.9311 41.8455 46.3275C41.8455 46.7239 41.688 47.104 41.4078 47.3843C41.1275 47.6645 40.7474 47.822 40.351 47.822H13.45C13.0536 47.822 12.6735 47.6645 12.3932 47.3843C12.113 47.104 11.9555 46.7239 11.9555 46.3275C11.9555 45.9311 12.113 45.551 12.3932 45.2707C12.6735 44.9905 13.0536 44.833 13.45 44.833H20.175L22.417 35.866H4.483C3.29437 35.8655 2.15456 35.3931 1.31398 34.5527C0.473397 33.7123 0.000794952 32.5726 0 31.384L0 4.483C0.000530006 3.2942 0.473015 2.15424 1.31363 1.31363C2.15424 0.473015 3.2942 0.000530006 4.483 0L49.318 0ZM23.258 44.834H30.544L29.05 38.856H24.75L23.258 44.834ZM50.812 31.384V26.9H2.989V31.383C2.99058 31.7787 3.14849 32.1578 3.42833 32.4377C3.70817 32.7175 4.08725 32.8754 4.483 32.877H49.318C49.7136 32.8754 50.0925 32.7176 50.3723 32.438C50.6521 32.1584 50.8102 31.7796 50.812 31.384ZM50.812 23.912V4.483C50.8104 4.08725 50.6525 3.70817 50.3727 3.42833C50.0928 3.14849 49.7137 2.99058 49.318 2.989H4.483C4.08725 2.99058 3.70817 3.14849 3.42833 3.42833C3.14849 3.70817 2.99058 4.08725 2.989 4.483V23.912H50.812Z" fill="white"/>
</svg>
