<svg width="27" height="27" viewBox="0 0 27 27" fill="none" xmlns="http://www.w3.org/2000/svg">
<path d="M13.5 0C11.0553 0 8.78365 0.616587 6.6851 1.84976C4.65144 3.03966 3.03966 4.65144 1.84976 6.6851C0.616587 8.78365 0 11.0553 0 13.5C0 15.9447 0.616587 18.2163 1.84976 20.3149C3.03966 22.3486 4.65144 23.9603 6.6851 25.1502C8.78365 26.3834 11.0553 27 13.5 27C15.9447 27 18.2163 26.3834 20.3149 25.1502C22.3486 23.9603 23.9603 22.3486 25.1502 20.3149C26.3834 18.2163 27 15.9447 27 13.5C27 11.899 26.762 10.482 26.2861 9.2488L24.5986 10.9038C24.8149 11.7692 24.9231 12.6346 24.9231 13.5C24.9231 15.5769 24.4038 17.5024 23.3654 19.2764C22.3702 21.0072 21.0072 22.3702 19.2764 23.3654C17.5024 24.4038 15.5769 24.9231 13.5 24.9231C11.4231 24.9231 9.4976 24.4038 7.72356 23.3654C5.99279 22.3702 4.62981 21.0072 3.63462 19.2764C2.59615 17.5024 2.07692 15.5769 2.07692 13.5C2.07692 11.4231 2.59615 9.4976 3.63462 7.72356C4.62981 5.99279 5.99279 4.62981 7.72356 3.63462C9.4976 2.59615 11.4231 2.07692 13.5 2.07692C15.0361 2.07692 16.4964 2.36899 17.881 2.95312C19.2007 3.49399 20.369 4.27284 21.3858 5.28966L22.8462 3.82933C21.6346 2.61779 20.223 1.67668 18.6112 1.00601C16.9994 0.335337 15.2957 0 13.5 0ZM25.2151 4.44591L13.5 16.1611L9.05409 11.7151L7.5613 13.2079L12.7536 18.4002L13.5 19.1142L14.2464 18.4002L26.7079 5.9387L25.2151 4.44591Z" fill="#241A00"/>
</svg>
