<svg width="13" height="15" viewBox="0 0 13 15" fill="none" xmlns="http://www.w3.org/2000/svg">
<path d="M0 13.5938C0 14.3701 0.623884 15 1.39286 15H11.6071C12.3761 15 13 14.3701 13 13.5938V5.625H0V13.5938ZM9.28571 7.85156C9.28571 7.6582 9.44241 7.5 9.63393 7.5H10.7946C10.9862 7.5 11.1429 7.6582 11.1429 7.85156V9.02344C11.1429 9.2168 10.9862 9.375 10.7946 9.375H9.63393C9.44241 9.375 9.28571 9.2168 9.28571 9.02344V7.85156ZM9.28571 11.6016C9.28571 11.4082 9.44241 11.25 9.63393 11.25H10.7946C10.9862 11.25 11.1429 11.4082 11.1429 11.6016V12.7734C11.1429 12.9668 10.9862 13.125 10.7946 13.125H9.63393C9.44241 13.125 9.28571 12.9668 9.28571 12.7734V11.6016ZM5.57143 7.85156C5.57143 7.6582 5.72812 7.5 5.91964 7.5H7.08036C7.27187 7.5 7.42857 7.6582 7.42857 7.85156V9.02344C7.42857 9.2168 7.27187 9.375 7.08036 9.375H5.91964C5.72812 9.375 5.57143 9.2168 5.57143 9.02344V7.85156ZM5.57143 11.6016C5.57143 11.4082 5.72812 11.25 5.91964 11.25H7.08036C7.27187 11.25 7.42857 11.4082 7.42857 11.6016V12.7734C7.42857 12.9668 7.27187 13.125 7.08036 13.125H5.91964C5.72812 13.125 5.57143 12.9668 5.57143 12.7734V11.6016ZM1.85714 7.85156C1.85714 7.6582 2.01384 7.5 2.20536 7.5H3.36607C3.55759 7.5 3.71429 7.6582 3.71429 7.85156V9.02344C3.71429 9.2168 3.55759 9.375 3.36607 9.375H2.20536C2.01384 9.375 1.85714 9.2168 1.85714 9.02344V7.85156ZM1.85714 11.6016C1.85714 11.4082 2.01384 11.25 2.20536 11.25H3.36607C3.55759 11.25 3.71429 11.4082 3.71429 11.6016V12.7734C3.71429 12.9668 3.55759 13.125 3.36607 13.125H2.20536C2.01384 13.125 1.85714 12.9668 1.85714 12.7734V11.6016ZM11.6071 1.875H10.2143V0.46875C10.2143 0.210938 10.0054 0 9.75 0H8.82143C8.56607 0 8.35714 0.210938 8.35714 0.46875V1.875H4.64286V0.46875C4.64286 0.210938 4.43393 0 4.17857 0H3.25C2.99464 0 2.78571 0.210938 2.78571 0.46875V1.875H1.39286C0.623884 1.875 0 2.50488 0 3.28125V4.6875H13V3.28125C13 2.50488 12.3761 1.875 11.6071 1.875Z" fill="#313131"/>
</svg>
