<svg width="39" height="39" viewBox="0 0 39 39" fill="none" xmlns="http://www.w3.org/2000/svg">
<path d="M33.8293 26.7238L30.1302 32.0384L27.5199 29.896C27.2383 29.6634 26.8212 29.7057 26.5898 29.9873C26.3578 30.2695 26.3988 30.6866 26.6817 30.9173L29.8453 33.5145C29.9643 33.6123 30.1124 33.6652 30.2644 33.6652C30.2942 33.6652 30.3246 33.6632 30.355 33.6586C30.5374 33.6334 30.7013 33.533 30.8071 33.3816L34.9147 27.4794C35.1229 27.1799 35.0495 26.7681 34.7494 26.5592C34.4486 26.3484 34.0375 26.4237 33.8293 26.7238Z" fill="#7779CA"/>
<path d="M34.3729 22.7912V9.91525V3.30508C34.3729 2.93954 34.0767 2.64407 33.7119 2.64407H30.4068V0.661017C30.4068 0.295475 30.1106 0 29.7458 0H25.1186C24.7538 0 24.4576 0.295475 24.4576 0.661017V2.64407H9.91525V0.661017C9.91525 0.295475 9.61912 0 9.25424 0H4.62712C4.26224 0 3.9661 0.295475 3.9661 0.661017V2.64407H0.661017C0.296136 2.64407 0 2.93954 0 3.30508V9.91525V37.0169C0 37.3825 0.296136 37.678 0.661017 37.678H25.8484C27.1718 38.5108 28.7318 39 30.4068 39C35.1449 39 39 35.1449 39 30.4068C39 27.0997 37.1187 24.2269 34.3729 22.7912ZM25.7797 1.32203H29.0847V3.30508V5.28814H25.7797V3.30508V1.32203ZM5.28814 1.32203H8.59322V3.30508V5.28814H5.28814V3.30508V1.32203ZM1.32203 3.9661H3.9661V5.94915C3.9661 6.31469 4.26224 6.61017 4.62712 6.61017H9.25424C9.61912 6.61017 9.91525 6.31469 9.91525 5.94915V3.9661H24.4576V5.94915C24.4576 6.31469 24.7538 6.61017 25.1186 6.61017H29.7458C30.1106 6.61017 30.4068 6.31469 30.4068 5.94915V3.9661H33.0508V9.25424H1.32203V3.9661ZM1.32203 36.3559V10.5763H33.0508V22.234C32.9213 22.1923 32.7891 22.1586 32.6569 22.1223C32.5346 22.0885 32.4123 22.0555 32.2887 22.0271C32.177 22.002 32.0639 21.9801 31.9509 21.9596C31.7896 21.9299 31.6277 21.9054 31.4651 21.885C31.3745 21.8737 31.2846 21.8612 31.1934 21.8526C30.9329 21.8294 30.6705 21.8136 30.4068 21.8136C30.1834 21.8136 29.9646 21.8301 29.7458 21.8473V21.1525V19.8305V13.8814H23.7966H22.4746H17.8475H16.5254H11.8983H10.5763H4.62712V19.8305V21.1525V25.7797V27.1017V33.0508H10.5763H11.8983H16.5254H17.8475H22.234C22.2531 33.109 22.2769 33.1652 22.2968 33.2227C22.3523 33.3833 22.4072 33.5446 22.4726 33.7013C22.5089 33.7892 22.5519 33.8732 22.5916 33.9591C22.6676 34.127 22.7449 34.2942 22.8315 34.4568C22.8699 34.5276 22.9128 34.5956 22.9532 34.6657C23.051 34.8369 23.1501 35.0061 23.2599 35.1701C23.3002 35.2302 23.3445 35.2871 23.3861 35.3466C23.5025 35.5118 23.6214 35.6757 23.7503 35.8331C23.7979 35.8912 23.8495 35.9454 23.8984 36.0023C24.0009 36.1213 24.0987 36.2429 24.2078 36.3566H1.32203V36.3559ZM26.6476 22.6914C26.5762 22.7258 26.5035 22.7582 26.4334 22.7945C26.3091 22.8593 26.1888 22.9307 26.0685 23.0014C25.9634 23.0629 25.8583 23.1257 25.7559 23.1911C25.6521 23.2585 25.5509 23.3273 25.4505 23.3987C25.3361 23.4793 25.2251 23.5639 25.1147 23.6499C25.0261 23.7193 24.9375 23.788 24.8523 23.8614C24.7366 23.9592 24.6262 24.063 24.5158 24.1668C24.4398 24.2388 24.3611 24.3082 24.2877 24.3823C24.1681 24.5039 24.0551 24.6328 23.9427 24.7617C23.8951 24.8166 23.8429 24.8668 23.7959 24.923V21.1525H28.4231V22.0528C28.4118 22.0555 28.4013 22.0595 28.3907 22.0621C27.7819 22.2095 27.1989 22.4217 26.6476 22.6914ZM22.1903 27.8943C22.1672 27.9703 22.152 28.0483 22.1308 28.1249C22.078 28.3166 22.0238 28.5083 21.9841 28.706C21.953 28.8587 21.9358 29.0147 21.9134 29.1694C21.8955 29.2943 21.8704 29.4172 21.8572 29.5442C21.8288 29.8291 21.8136 30.1173 21.8136 30.4068C21.8136 30.6454 21.8268 30.8867 21.8486 31.1286C21.8526 31.1729 21.8526 31.2178 21.8572 31.2621C21.8678 31.3692 21.8889 31.473 21.9035 31.5788V31.5794C21.9107 31.6297 21.9134 31.6792 21.9213 31.7288H17.8475V27.1017H22.4746V27.1063C22.468 27.1222 22.464 27.1387 22.4574 27.1546C22.3582 27.3958 22.2677 27.6424 22.1903 27.8943ZM5.94915 27.1017H10.5763V31.7288H5.94915V27.1017ZM5.94915 21.1525H10.5763V25.7797H5.94915V21.1525ZM28.4237 19.8305H23.7966V15.2034H28.4237V19.8305ZM22.4746 19.8305H17.8475V15.2034H22.4746V19.8305ZM22.4746 25.7797H17.8475V21.1525H22.4746V25.7797ZM11.8983 21.1525H16.5254V25.7797H11.8983V21.1525ZM16.5254 19.8305H11.8983V15.2034H16.5254V19.8305ZM10.5763 19.8305H5.94915V15.2034H10.5763V19.8305ZM11.8983 27.1017H16.5254V31.7288H11.8983V27.1017ZM30.4068 37.678C28.9142 37.678 27.5254 37.2245 26.3699 36.4498C26.1445 36.2991 25.9317 36.1352 25.7274 35.9633C25.6561 35.9025 25.5886 35.8377 25.5199 35.7742C25.3897 35.6559 25.2634 35.5343 25.1431 35.408C25.0658 35.3267 24.9911 35.2441 24.9177 35.1602C24.8093 35.0352 24.7075 34.9063 24.6083 34.7748C24.5449 34.6908 24.4794 34.6095 24.4193 34.5229C24.2732 34.3107 24.1357 34.0926 24.0128 33.8665C23.9843 33.8137 23.9619 33.7581 23.9348 33.7046C23.8383 33.5155 23.7484 33.3238 23.6684 33.1269C23.634 33.0409 23.6043 32.953 23.5725 32.8658C23.5104 32.6926 23.4535 32.5167 23.404 32.3389C23.3927 32.2979 23.3828 32.257 23.3722 32.216C23.2975 31.9251 23.2427 31.6363 23.2037 31.3487C23.201 31.3282 23.1971 31.3077 23.1944 31.2866C23.1561 30.9898 23.1356 30.6956 23.1356 30.4068C23.1356 30.1563 23.1482 29.9077 23.1739 29.6612C23.1759 29.6407 23.1812 29.6208 23.1832 29.6003C23.2083 29.3749 23.2414 29.1502 23.2876 28.9287C23.2923 28.9076 23.2995 28.8871 23.3042 28.8659C23.3517 28.6465 23.4079 28.4284 23.476 28.2129C23.4839 28.1877 23.4952 28.1633 23.5031 28.1382C23.5712 27.9319 23.6466 27.727 23.7338 27.5261C23.8158 27.337 23.9044 27.1513 24.0015 26.9708L24.067 26.8578C24.0934 26.8102 24.1245 26.7652 24.1522 26.7183C24.2673 26.5246 24.3902 26.3369 24.5204 26.1558C24.5528 26.1108 24.5865 26.0665 24.6202 26.0223C24.7392 25.8649 24.8648 25.7136 24.9957 25.5675C25.0413 25.5166 25.0869 25.465 25.1338 25.4154C25.2634 25.2779 25.3996 25.1477 25.5391 25.0215C25.5886 24.9765 25.6369 24.9303 25.6878 24.8866C25.8517 24.7465 26.0216 24.6149 26.1968 24.49C26.2245 24.4702 26.251 24.4484 26.2787 24.4285C27.1414 23.8323 28.1322 23.4238 29.1951 23.2453L29.209 23.2433C29.599 23.1779 29.9976 23.1356 30.4068 23.1356C30.6639 23.1356 30.9197 23.1495 31.1736 23.1772C31.2132 23.1812 31.2516 23.1905 31.2912 23.1951C31.508 23.2222 31.7242 23.2546 31.9377 23.3008C31.9641 23.3068 31.9893 23.3147 32.015 23.3207C32.2424 23.3729 32.4678 23.4337 32.6906 23.5084C32.7058 23.5137 32.7203 23.5196 32.7355 23.5249C32.9636 23.6029 33.1883 23.6922 33.4111 23.7933C35.9243 24.9395 37.678 27.4699 37.678 30.4068C37.678 34.4158 34.4158 37.678 30.4068 37.678Z" fill="#6364C2"/>
</svg>
