<svg width="13" height="13" viewBox="0 0 13 13" fill="none" xmlns="http://www.w3.org/2000/svg">
<path fill-rule="evenodd" clip-rule="evenodd" d="M0.869629 2.79726C0.869629 1.91374 1.58586 1.19751 2.46938 1.19751H3.2008C3.65959 1.19751 4.05951 1.50976 4.17079 1.95486L4.76045 4.31352C4.85802 4.70379 4.71219 5.11452 4.39037 5.35589L3.70055 5.87326C3.62891 5.92698 3.61334 6.00565 3.63346 6.06058C4.23897 7.71355 5.55183 9.02641 7.2048 9.63192C7.25973 9.65204 7.3384 9.63647 7.39213 9.56483L7.90949 8.87501C8.15086 8.55319 8.56159 8.40736 8.95186 8.50493L11.3105 9.09459C11.7556 9.20587 12.0679 9.60579 12.0679 10.0646V10.796C12.0679 11.6795 11.3516 12.3958 10.4681 12.3958H9.26831C4.62985 12.3958 0.869629 8.63553 0.869629 3.99707V2.79726Z" stroke="#0F172A"/>
</svg>
