<svg width="27" height="27" viewBox="0 0 27 27" fill="none" xmlns="http://www.w3.org/2000/svg">
<path d="M18.7107 6.18258C18.0735 3.91568 18.058 3.73371 17.6069 2.08997C17.4398 1.48209 16.8945 1.05494 16.2645 1.03429L11.4791 0.87793L6.6258 1.03656C6.03217 1.05598 5.5067 1.43665 5.32163 2.00095C4.74804 3.74982 4.85896 3.96278 4.03564 6.27182" stroke="black" stroke-width="0.8"/>
<path d="M21.5078 11.035V10.8572C21.5078 8.7931 21.5078 7.76117 20.9131 7.11012C20.3185 6.45928 19.2512 6.36261 17.1165 6.16949C14.8168 5.96128 12.851 5.72375 11.5755 5.71218C10.4732 5.70227 7.5889 5.96851 5.17637 6.21472C3.49876 6.38595 2.65996 6.47147 2.09958 6.99797C2.02254 7.07026 1.94901 7.14978 1.88291 7.23219C1.40185 7.83181 1.38182 8.6826 1.34175 10.3844C1.29527 12.3538 1.27214 13.3385 1.82012 13.9943C1.89551 14.0843 1.97772 14.1686 2.06592 14.2461C2.7087 14.8095 3.69375 14.8095 5.66363 14.8095H6.93371" stroke="black" stroke-width="0.8"/>
<path d="M1.9834 12.207H9.80509" stroke="black" stroke-width="0.8" stroke-linecap="round"/>
<path d="M15.3747 10.593C15.2685 10.139 15.1848 9.78146 15.1204 9.5055C15.0111 9.03808 14.5945 8.70801 14.1145 8.70801H8.68012C8.19534 8.70801 7.77604 9.04427 7.67153 9.51769C7.50566 10.2685 7.25512 11.4019 7.05518 12.2993" stroke="black" stroke-width="0.8"/>
<path d="M1.36182 11.7495V15.4462C1.36182 15.9024 1.73175 16.2724 2.18802 16.2724H4.27688C4.73315 16.2724 5.10308 15.9024 5.10308 15.4462V12.2122" stroke="black" stroke-width="0.8"/>
<path d="M18.2256 4.86328H19.9127C20.369 4.86328 20.7389 5.23321 20.7389 5.68949V6.29675C20.7389 6.54089 20.5726 6.75343 20.3357 6.8123" stroke="black" stroke-width="0.8"/>
<path d="M4.4022 4.86328H2.71488C2.25861 4.86328 1.88867 5.23321 1.88867 5.68949V6.52148C1.88867 6.73051 2.09357 6.87819 2.29186 6.81209" stroke="black" stroke-width="0.8"/>
<path d="M4.39855 8.61768H4.5357C4.97111 8.61768 5.3239 8.97067 5.3239 9.40588C5.3239 9.84129 4.97091 10.1941 4.5357 10.1941H4.39855C3.96314 10.1941 3.61035 9.84108 3.61035 9.40588C3.61035 8.97067 3.96335 8.61768 4.39855 8.61768Z" stroke="black" stroke-width="0.8"/>
<path d="M18.2091 8.61768H18.3462C18.7817 8.61768 19.1345 8.97067 19.1345 9.40588C19.1345 9.84129 18.7815 10.1941 18.3462 10.1941H18.2091C17.7737 10.1941 17.4209 9.84108 17.4209 9.40588C17.4207 8.97067 17.7737 8.61768 18.2091 8.61768Z" stroke="black" stroke-width="0.8"/>
<path d="M23.4256 15.9121C22.7883 13.6452 22.7729 13.4632 22.3215 11.8195C22.1546 11.2116 21.6094 10.7844 20.9794 10.7638L16.194 10.6074L11.3406 10.7661C10.747 10.7855 10.2215 11.1661 10.0365 11.7304C9.46288 13.4793 9.5738 13.6923 8.75049 16.0013" stroke="black" stroke-width="0.8"/>
<path d="M21.6973 24.1883H10.5394C9.4348 24.1883 8.64804 24.1874 8.05235 24.1067C7.46843 24.0274 7.13175 23.8786 6.8876 23.6291C6.64346 23.3796 6.50218 23.0398 6.43608 22.4543C6.36854 21.8567 6.38506 21.0704 6.40944 19.9659L6.41295 19.8085C6.43401 18.8572 6.44971 18.183 6.52758 17.6662C6.60359 17.1614 6.73248 16.8588 6.94523 16.627C7.1586 16.3945 7.44736 16.2408 7.93854 16.1224C8.44211 16.0012 9.10555 15.9285 10.0427 15.8271C12.4319 15.5685 15.1811 15.3014 16.2279 15.3113C17.1224 15.32 18.3622 15.4497 19.8452 15.605C20.4636 15.6697 21.1246 15.7389 21.8204 15.8056C22.877 15.9068 23.6329 15.9799 24.2001 16.1026C24.7609 16.2238 25.0734 16.3817 25.2841 16.608C25.2882 16.6124 25.2918 16.6163 25.2959 16.6208C25.5066 16.8516 25.6369 17.168 25.7117 17.7123C25.7875 18.2654 25.7986 18.9923 25.8135 20.0118C25.8294 21.1016 25.8397 21.8774 25.7693 22.4669C25.7001 23.0448 25.5592 23.3807 25.3186 23.6273C25.3143 23.6318 25.3099 23.6364 25.3054 23.6407C25.0623 23.885 24.7285 24.0307 24.1516 24.1081C23.5631 24.1874 22.7873 24.1883 21.6973 24.1883Z" stroke="black" stroke-width="0.8"/>
<path d="M6.69873 21.936H25.6238" stroke="black" stroke-width="0.8" stroke-linecap="round"/>
<path d="M20.4892 22.0283L19.8354 19.2345C19.7262 18.7675 19.3096 18.437 18.83 18.437H13.395C12.9104 18.437 12.4909 18.7733 12.3864 19.2467C12.2205 19.9975 11.97 21.1309 11.77 22.0283" stroke="black" stroke-width="0.8"/>
<path d="M6.38916 21.6997V25.1753C6.38916 25.6316 6.75909 26.0016 7.21537 26.0016H9.37486C9.83113 26.0016 10.2011 25.6316 10.2011 25.1753V21.6997" stroke="black" stroke-width="0.8"/>
<path d="M22.0586 21.7024V25.1753C22.0586 25.6316 22.4285 26.0015 22.8848 26.0015H24.9854C25.4417 26.0015 25.8116 25.6316 25.8116 25.1753V21.5923" stroke="black" stroke-width="0.8"/>
<path d="M23.0063 14.4878H24.6937C25.1499 14.4878 25.5199 14.8577 25.5199 15.314V16.146C25.5199 16.355 25.315 16.5027 25.1165 16.4366" stroke="black" stroke-width="0.8"/>
<path d="M9.18226 14.4878H7.49515C7.03888 14.4878 6.66895 14.8577 6.66895 15.314V16.146C6.66895 16.355 6.87384 16.5027 7.07213 16.4366" stroke="black" stroke-width="0.8"/>
<path d="M9.11388 18.3467H9.25103C9.68644 18.3467 10.0392 18.6997 10.0392 19.1349C10.0392 19.5703 9.68624 19.9231 9.25103 19.9231H9.11388C8.67847 19.9231 8.32568 19.5701 8.32568 19.1349C8.32568 18.6997 8.67847 18.3467 9.11388 18.3467Z" stroke="black" stroke-width="0.8"/>
<path d="M22.9239 18.3467H23.0611C23.4965 18.3467 23.8493 18.6997 23.8493 19.1349C23.8493 19.5703 23.4963 19.9231 23.0611 19.9231H22.9239C22.4885 19.9231 22.1357 19.5701 22.1357 19.1349C22.1357 18.6997 22.4887 18.3467 22.9239 18.3467Z" stroke="black" stroke-width="0.8"/>
</svg>
