<svg width="21" height="21" viewBox="0 0 21 21" fill="none" xmlns="http://www.w3.org/2000/svg">
<path d="M10.4839 0.557617C8.69147 0.557617 7.02595 1.00969 5.48733 1.91383C3.99629 2.78624 2.81456 3.96797 1.94215 5.45901C1.03801 6.99763 0.585938 8.66315 0.585938 10.4556C0.585938 12.248 1.03801 13.9135 1.94215 15.4521C2.81456 16.9432 3.99629 18.1249 5.48733 18.9973C7.02595 19.9014 8.69147 20.3535 10.4839 20.3535C12.2763 20.3535 13.9418 19.9014 15.4804 18.9973C16.9715 18.1249 18.1532 16.9432 19.0256 15.4521C19.9298 13.9135 20.3818 12.248 20.3818 10.4556C20.3818 9.28177 20.2074 8.2428 19.8584 7.33866L18.6211 8.55211C18.7798 9.1866 18.8591 9.82108 18.8591 10.4556C18.8591 11.9783 18.4784 13.3901 17.717 14.6907C16.9873 15.9597 15.988 16.959 14.7191 17.6887C13.4184 18.4501 12.0066 18.8308 10.4839 18.8308C8.96113 18.8308 7.5494 18.4501 6.24871 17.6887C4.97974 16.959 3.98043 15.9597 3.25077 14.6907C2.48939 13.3901 2.1087 11.9783 2.1087 10.4556C2.1087 8.93281 2.48939 7.52108 3.25077 6.22039C3.98043 4.95142 4.97974 3.95211 6.24871 3.22245C7.5494 2.46107 8.96113 2.08038 10.4839 2.08038C11.6101 2.08038 12.6808 2.29452 13.696 2.72279C14.6636 3.11935 15.5201 3.69038 16.2656 4.4359L17.3363 3.36521C16.448 2.47693 15.413 1.78693 14.2313 1.2952C13.0496 0.80348 11.8004 0.557617 10.4839 0.557617ZM19.0732 3.81728L10.4839 12.4066L7.22423 9.14694L6.12974 10.2414L9.93664 14.0483L10.4839 14.5718L11.0311 14.0483L20.1677 4.91176L19.0732 3.81728Z" fill="#241A00"/>
</svg>
