<svg width="10" height="10" viewBox="0 0 10 10" fill="none" xmlns="http://www.w3.org/2000/svg">
<path d="M1.26163 0.20768L5 3.94591L8.72298 0.223063C8.85483 0.0827642 9.03813 0.00223063 9.23066 0C9.6555 0 9.99988 0.344364 9.99988 0.769184C10.0035 0.959788 9.92834 1.14347 9.79219 1.27685L6.03074 4.9997L9.79219 8.761C9.91895 8.885 9.99334 9.05299 9.99988 9.23021C9.99988 9.65503 9.6555 9.99939 9.23066 9.99939C9.03244 10.0076 8.8399 9.93224 8.69991 9.79171L5 6.05348L1.26932 9.78402C1.13802 9.91963 0.958024 9.99716 0.769336 9.99939C0.344501 9.99939 0.000124668 9.65503 0.000124668 9.23021C-0.00349063 9.0396 0.0716613 8.85592 0.207812 8.72255L3.96926 4.9997L0.207812 1.23839C0.0810457 1.11439 0.00666297 0.946404 0.000124668 0.769184C0.000124668 0.344364 0.344501 0 0.769336 0C0.954255 0.00223063 1.13094 0.0767645 1.26163 0.20768Z" fill="black"/>
</svg>
