<svg width="14" height="14" viewBox="0 0 14 14" fill="none" xmlns="http://www.w3.org/2000/svg">
<path d="M8.24874 6.99991L13.9085 12.6594C14.0303 12.7813 14.0303 12.979 13.9085 13.1009L13.1013 13.9086C13.0427 13.967 12.9631 14 12.8804 14C12.7975 14 12.718 13.967 12.6594 13.9086L6.99983 8.24896L1.34024 13.9086C1.22298 14.0258 1.01547 14.0257 0.898517 13.9086L0.0914777 13.1009C-0.0304926 12.979 -0.0304926 12.7813 0.0914777 12.6594L5.75108 6.99991L0.0914777 1.34046C-0.0304926 1.21849 -0.0304926 1.02086 0.0914777 0.898886L0.898664 0.0912571C0.957216 0.0328531 1.03671 -0.000184059 1.1196 -0.000184059C1.20248 -0.000184059 1.28183 0.0328531 1.34038 0.0912571L6.99998 5.75086L12.6596 0.0912571C12.7181 0.0328531 12.7978 -0.000184059 12.8805 -0.000184059C12.9633 -0.000184059 13.0429 0.0328531 13.1014 0.0912571L13.9086 0.898886C14.0305 1.02086 14.0305 1.21849 13.9086 1.34046L8.24874 6.99991Z" fill="black"/>
</svg>
