<svg width="18" height="18" viewBox="0 0 18 18" fill="none" xmlns="http://www.w3.org/2000/svg">
<path d="M17.4485 13.456L15.1694 11.6178C14.6463 11.2052 13.899 11.1677 13.376 11.5803L11.4331 13.0059C11.2089 13.1934 10.8726 13.1559 10.6485 12.9308L7.73414 10.3048L5.11873 7.37873C4.89455 7.15365 4.89455 6.85353 5.04401 6.59093L6.4638 4.6402C6.87479 4.115 6.83743 3.36472 6.42644 2.83952L4.59565 0.551152C4.03521 -0.124103 3.0264 -0.199132 2.39123 0.438609L0.448356 2.38935C0.149452 2.68946 0 3.10212 0 3.51477C0.186815 7.34122 1.90551 10.9801 4.4462 13.5311C6.98688 16.082 10.6111 17.8077 14.4221 17.9952C14.8331 18.0328 15.2441 17.8452 15.543 17.5451L17.4859 15.5943C18.1958 15.0316 18.1584 13.9812 17.4485 13.456Z" fill="#6668C3"/>
</svg>
