<svg width="23" height="21" viewBox="0 0 23 21" fill="none" xmlns="http://www.w3.org/2000/svg">
<path fill-rule="evenodd" clip-rule="evenodd" d="M5.09253 1.2004C5.83122 0.645638 6.73007 0.345703 7.65388 0.345703C8.31122 0.345703 8.96453 0.448359 9.59019 0.64996L15.9265 2.69166H17.493C17.5068 2.69166 17.5204 2.69251 17.5338 2.69418V2.36991C17.5338 2.18966 17.6799 2.04354 17.8602 2.04354H19.1384C19.1441 2.04354 19.1498 2.04369 19.1555 2.04398V1.62394C19.1555 1.44369 19.3016 1.29757 19.4818 1.29757H22.4173C22.5975 1.29757 22.7437 1.44369 22.7437 1.62394V11.0175C22.7437 11.1978 22.5975 11.3439 22.4173 11.3439H19.4818C19.3016 11.3439 19.1555 11.1978 19.1555 11.0175V10.6165C19.1498 10.6168 19.1441 10.617 19.1384 10.617H17.8602C17.6799 10.617 17.5338 10.4708 17.5338 10.2906V9.941H17.2495C16.2651 9.941 15.2872 10.0997 14.3533 10.411L14.0822 10.5014C13.3523 10.7447 12.588 10.8687 11.8187 10.8687C10.8994 10.8687 9.99485 10.6371 9.18867 10.1952L7.94363 9.51284H6.35122V10.1967C6.35122 10.8312 6.11056 11.4421 5.67778 11.9062C5.52225 12.073 5.34629 12.2161 5.1555 12.3332C5.15958 12.3538 5.16173 12.3751 5.16173 12.3969V18.7853C5.16173 18.984 5.10125 19.178 4.98833 19.3416L4.71396 19.7389C4.53116 20.0037 4.22997 20.1617 3.90825 20.1617H3.57546C3.57192 20.1618 3.56837 20.1619 3.56481 20.1619C3.56124 20.1619 3.55769 20.1618 3.55416 20.1617H3.22603C2.93546 20.1617 2.65991 20.0327 2.47388 19.8095L2.1153 19.3792C1.96864 19.2033 1.88832 18.9814 1.88832 18.7524V12.538C1.88832 12.5099 1.89189 12.4825 1.89861 12.4565C1.64217 12.3372 1.4043 12.1766 1.1953 11.9787C0.667592 11.479 0.368652 10.7843 0.368652 10.0575V8.43512C0.368652 7.78438 0.576451 7.18216 0.929313 6.69122C0.927898 6.68348 0.926751 6.67563 0.925882 6.66769L0.919443 6.60884C0.776894 5.30596 1.33209 4.02449 2.38011 3.23743L5.09253 1.2004ZM1.55404 6.05028C2.05587 5.66968 2.68153 5.44384 3.35994 5.44384H3.70649C3.72584 5.39794 3.75602 5.3558 3.7967 5.32147L4.49944 4.72839C6.12205 3.35898 8.52914 3.48467 10.0003 5.01563C10.4125 5.44457 10.3094 6.14708 9.79145 6.43959L8.42556 7.21092C8.37659 7.23857 8.32131 7.2531 8.26507 7.2531H5.47542C5.03166 7.2531 4.67192 7.61284 4.67192 8.0566C4.67192 8.50036 5.03166 8.8601 5.47542 8.8601H8.02721C8.08204 8.8601 8.13599 8.87391 8.18407 8.90026L9.50239 9.62281C10.2124 10.0119 11.009 10.2159 11.8187 10.2159C12.5179 10.2159 13.2125 10.1032 13.8758 9.88212L14.1469 9.79175C15.1473 9.45827 16.195 9.28825 17.2495 9.28825H17.5338V3.34188C17.5204 3.34354 17.5068 3.3444 17.493 3.3444H15.8753C15.8413 3.3444 15.8075 3.33909 15.7752 3.32867L9.39 1.27125C8.82903 1.09049 8.24326 0.998448 7.65388 0.998448C6.87145 0.998448 6.11016 1.25248 5.48451 1.72235L2.77209 3.75938C2.03981 4.30932 1.59949 5.15214 1.55404 6.05028ZM4.66377 5.44384H4.96561C5.65282 5.44384 6.22319 5.94412 6.33237 6.60036H8.17929L9.47048 5.87121C9.61719 5.78836 9.64637 5.58939 9.52963 5.46791C8.29694 4.1851 6.28003 4.07979 4.92044 5.22723L4.66377 5.44384ZM5.66196 6.60036C5.56577 6.30781 5.29036 6.09658 4.96561 6.09658H3.35994C2.0684 6.09658 1.0214 7.14358 1.0214 8.43512V10.0575C1.0214 10.605 1.24658 11.1283 1.6441 11.5047C2.01423 11.8552 2.50459 12.0505 3.01433 12.0505H3.84469C4.35878 12.0505 4.84979 11.837 5.20041 11.461C5.52048 11.1178 5.69847 10.666 5.69847 10.1967V9.51284H5.47542C4.82216 9.51284 4.26937 9.0827 4.08482 8.4902H2.19302C2.01277 8.4902 1.86665 8.34407 1.86665 8.16382C1.86665 7.98357 2.01277 7.83745 2.19302 7.83745H4.03556C4.14125 7.13716 4.74565 6.60036 5.47542 6.60036H5.66196ZM2.54107 12.6606V18.7524C2.54107 18.8287 2.56784 18.9027 2.61673 18.9613L2.97531 19.3916C3.03732 19.466 3.12917 19.509 3.22603 19.509H3.23844V12.7032H3.01433C2.85455 12.7032 2.69621 12.6888 2.54107 12.6606ZM3.89118 12.7028V19.509H3.90825C4.01549 19.509 4.11588 19.4563 4.17682 19.3681L4.45119 18.9707C4.48883 18.9162 4.50899 18.8515 4.50899 18.7853V12.6136C4.30922 12.6685 4.1018 12.6989 3.89118 12.7028ZM19.1555 9.96465V2.69585C19.1498 2.69614 19.1441 2.69629 19.1384 2.69629H18.1866V9.96421H19.1384C19.1441 9.96421 19.1498 9.96436 19.1555 9.96465ZM19.8082 1.95031V10.6911H22.0909V1.95031H19.8082ZM1.86665 10.0786C1.86665 9.8983 2.01277 9.75218 2.19302 9.75218H4.64729C4.82754 9.75218 4.97366 9.8983 4.97366 10.0786C4.97366 10.2588 4.82754 10.4049 4.64729 10.4049H2.19302C2.01277 10.4049 1.86665 10.2588 1.86665 10.0786Z" fill="black"/>
<path d="M20.0873 18.3381H19.6288C19.4805 19.1871 18.7397 19.8351 17.8486 19.8351C16.9578 19.8351 16.2171 19.1871 16.0687 18.3381H12.5433C12.395 19.1871 11.6543 19.8351 10.7634 19.8351C9.87234 19.8351 9.13159 19.1871 8.98323 18.3381H7.30955C6.97234 18.3381 6.69814 18.0639 6.69814 17.7267V16.0447C6.69814 15.1855 7.39719 14.4865 8.25633 14.4865H10.1154C11.2622 13.3912 11.8032 11.9541 13.4802 11.9541H17.2354C18.0881 11.9541 18.8724 12.3825 19.3335 13.1001L20.2234 14.4865H21.3339C21.5061 14.4865 21.6455 14.626 21.6455 14.7981V16.7799C21.6455 17.6391 20.9465 18.3381 20.0873 18.3381ZM17.8486 19.2119C18.501 19.2119 19.0317 18.6822 19.0339 18.0305C19.0339 18.0291 19.0331 18.0279 19.0331 18.0265C19.0331 18.025 19.0339 18.0239 19.0339 18.0224C19.0317 17.3706 18.501 16.8409 17.8486 16.8409C17.1949 16.8409 16.6633 17.3728 16.6633 18.0265C16.6633 18.68 17.1949 19.2119 17.8486 19.2119ZM10.7634 19.2119C11.4171 19.2119 11.9488 18.68 11.9488 18.0265C11.9488 17.3728 11.4171 16.8409 10.7634 16.8409C10.1104 16.8409 9.57904 17.3717 9.57798 18.0245C9.57798 18.0252 9.57836 18.0258 9.57836 18.0265C9.57836 18.0272 9.57798 18.0278 9.57798 18.0285C9.57904 18.6811 10.1104 19.2119 10.7634 19.2119ZM10.9482 14.4865H14.9112V12.5774H13.4802C12.2221 12.5774 11.8097 13.6629 10.9482 14.4865ZM18.8088 13.437C18.4631 12.8988 17.8751 12.5774 17.2354 12.5774H15.5345V14.4865H19.4829L18.8088 13.437ZM21.0222 15.1097C20.3099 15.1097 7.77583 15.1097 8.25633 15.1097C7.74079 15.1097 7.32142 15.5291 7.32142 16.0447L7.30955 17.7148H8.98323C9.13159 16.8657 9.87227 16.2177 10.7634 16.2177C11.6543 16.2177 12.395 16.8657 12.5433 17.7148H16.0687C16.2171 16.8657 16.9578 16.2177 17.8486 16.2177C18.7398 16.2177 19.4805 16.8657 19.6288 17.7148H20.0873C20.6029 17.7148 21.0222 17.2955 21.0222 16.7799V15.1097Z" fill="black"/>
</svg>
