<svg width="23" height="23" viewBox="0 0 23 23" fill="none" xmlns="http://www.w3.org/2000/svg">
<path fill-rule="evenodd" clip-rule="evenodd" d="M18.4833 1.00906C17.3145 1.00906 16.367 1.95659 16.367 3.12543V4.63068C16.367 5.12395 16.5699 5.59549 16.928 5.93463C17.2616 6.25042 17.7034 6.42641 18.1627 6.42641H18.9331C19.3953 6.42641 19.8367 6.23448 20.1519 5.89647C20.4397 5.58791 20.5997 5.1817 20.5997 4.75978V1.63571C20.5997 1.28962 20.3192 1.00906 19.9731 1.00906H18.4833ZM15.6548 3.12543C15.6548 1.56326 16.9212 0.296875 18.4833 0.296875H19.9731C20.7125 0.296875 21.3119 0.89629 21.3119 1.63571V4.75978C21.3119 5.36199 21.0835 5.94178 20.6728 6.38219C20.2228 6.86464 19.5928 7.13859 18.9331 7.13859H18.1627C17.5212 7.13859 16.9042 6.8928 16.4384 6.45178C15.9382 5.97813 15.6548 5.31957 15.6548 4.63068V3.12543Z" fill="black"/>
<path fill-rule="evenodd" clip-rule="evenodd" d="M19.8471 6.44531C20.0437 6.44531 20.2032 6.60474 20.2032 6.8014V12.6952C20.2032 12.912 20.1372 13.1237 20.014 13.3021L19.8101 13.5975C19.6106 13.8863 19.282 14.0587 18.931 14.0587H18.4039C18.0869 14.0587 17.7862 13.9179 17.5832 13.6744L17.3072 13.3432C17.1472 13.1512 17.0596 12.9092 17.0596 12.6593V6.93232C17.0596 6.73565 17.219 6.57623 17.4157 6.57623C17.6123 6.57623 17.7718 6.73565 17.7718 6.93232V12.6593C17.7718 12.7426 17.801 12.8233 17.8543 12.8873L18.1303 13.2185C18.198 13.2996 18.2982 13.3466 18.4039 13.3466H18.931C19.048 13.3466 19.1575 13.2891 19.224 13.1928L19.4279 12.8975C19.469 12.838 19.491 12.7674 19.491 12.6952V6.8014C19.491 6.60474 19.6504 6.44531 19.8471 6.44531Z" fill="black"/>
<path fill-rule="evenodd" clip-rule="evenodd" d="M18.6309 6.70703C18.7878 6.70703 18.915 6.86646 18.915 7.06312V13.7025C18.915 13.8992 18.7878 14.0586 18.6309 14.0586C18.4739 14.0586 18.3467 13.8992 18.3467 13.7025V7.06312C18.3467 6.86646 18.4739 6.70703 18.6309 6.70703Z" fill="black"/>
<path fill-rule="evenodd" clip-rule="evenodd" d="M17.0439 4.65052C17.0439 4.45386 17.2034 4.29443 17.4 4.29443H19.6771C19.8737 4.29443 20.0332 4.45386 20.0332 4.65052C20.0332 4.84719 19.8737 5.00661 19.6771 5.00661H17.4C17.2034 5.00661 17.0439 4.84719 17.0439 4.65052Z" fill="black"/>
<path fill-rule="evenodd" clip-rule="evenodd" d="M17.0439 2.87367C17.0439 2.67701 17.2034 2.51758 17.4 2.51758H19.6779C19.8746 2.51758 20.034 2.67701 20.034 2.87367C20.034 3.07033 19.8746 3.22976 19.6779 3.22976H17.4C17.2034 3.22976 17.0439 3.07033 17.0439 2.87367Z" fill="black"/>
<path d="M2.0364 9.37221H2.47755C2.62031 10.1891 3.33306 10.8126 4.19047 10.8126C5.04766 10.8126 5.76033 10.1891 5.90309 9.37221H9.29524C9.438 10.1891 10.1507 10.8126 11.0079 10.8126C11.8653 10.8126 12.578 10.1891 12.7208 9.37221H14.3312C14.6557 9.37221 14.9195 9.10837 14.9195 8.78391V7.16543C14.9195 6.33877 14.2469 5.66614 13.4202 5.66614H11.6314C11.3261 5.37451 11.0654 5.0577 10.8138 4.75197C10.1562 3.95287 9.56089 3.22949 8.39376 3.22949H4.78052C3.96001 3.22949 3.20539 3.64165 2.76175 4.33215L1.90551 5.66614H0.836968C0.671227 5.66614 0.537109 5.8004 0.537109 5.966V7.87291C0.537109 8.69957 1.20974 9.37221 2.0364 9.37221ZM4.19047 10.2129C3.56278 10.2129 3.05216 9.70325 3.04996 9.07623C3.05 9.07556 3.05018 9.07497 3.05037 9.07437C3.05057 9.07372 3.05077 9.07307 3.05077 9.07235C3.05077 9.07162 3.05057 9.07097 3.05037 9.07032C3.05018 9.06973 3.05 9.06913 3.04996 9.06847C3.05216 8.4413 3.56278 7.93162 4.19047 7.93162C4.81947 7.93162 5.33104 8.44335 5.33104 9.07235C5.33104 9.7012 4.81947 10.2129 4.19047 10.2129ZM11.0079 10.2129C10.3789 10.2129 9.86729 9.7012 9.86729 9.07235C9.86729 8.44335 10.3789 7.93162 11.0079 7.93162C11.6362 7.93162 12.1475 8.44232 12.1485 9.07041C12.1485 9.0711 12.1481 9.07169 12.1481 9.07235C12.1481 9.07272 12.1483 9.07307 12.1484 9.07344C12.1484 9.07371 12.1485 9.07399 12.1485 9.07429C12.1475 9.70223 11.6362 10.2129 11.0079 10.2129ZM10.8301 5.66614H7.01687V3.82921H8.39376C9.26957 3.82921 9.71946 4.37591 10.2152 4.97835C10.4047 5.2086 10.6009 5.44701 10.8301 5.66614ZM3.26659 4.65631C3.59924 4.13844 4.16499 3.82921 4.78052 3.82921H6.41716V5.66614H2.61796L3.26659 4.65631ZM1.13683 6.26586H13.4202C13.9163 6.26586 14.3198 6.66938 14.3198 7.16543L14.3312 8.77249H12.7208C12.578 7.95542 11.8653 7.33191 11.0079 7.33191C10.1507 7.33191 9.438 7.95542 9.29524 8.77249H5.90309C5.76034 7.95542 5.04766 7.33191 4.19047 7.33191C3.33298 7.33191 2.62031 7.95542 2.47755 8.77249H2.0364C1.54035 8.77249 1.13683 8.36897 1.13683 7.87291V6.26586Z" fill="black"/>
<path d="M2.0364 9.37221H2.47755C2.62031 10.1891 3.33306 10.8126 4.19047 10.8126C5.04766 10.8126 5.76033 10.1891 5.90309 9.37221H9.29524C9.438 10.1891 10.1507 10.8126 11.0079 10.8126C11.8653 10.8126 12.578 10.1891 12.7208 9.37221H14.3312C14.6557 9.37221 14.9195 9.10837 14.9195 8.78391V7.16543C14.9195 6.33877 14.2469 5.66614 13.4202 5.66614H11.6314C11.3261 5.37451 11.0654 5.0577 10.8138 4.75197C10.1562 3.95287 9.56089 3.22949 8.39376 3.22949H4.78052C3.96001 3.22949 3.20539 3.64165 2.76175 4.33215L1.90551 5.66614H0.836968C0.671227 5.66614 0.537109 5.8004 0.537109 5.966V7.87291C0.537109 8.69957 1.20974 9.37221 2.0364 9.37221ZM4.19047 10.2129C3.56278 10.2129 3.05216 9.70325 3.04996 9.07623C3.05 9.07556 3.05018 9.07497 3.05037 9.07437C3.05057 9.07372 3.05077 9.07307 3.05077 9.07235C3.05077 9.07162 3.05057 9.07097 3.05037 9.07032C3.05018 9.06973 3.05 9.06913 3.04996 9.06847C3.05216 8.4413 3.56278 7.93162 4.19047 7.93162C4.81947 7.93162 5.33104 8.44335 5.33104 9.07235C5.33104 9.7012 4.81947 10.2129 4.19047 10.2129ZM11.0079 10.2129C10.3789 10.2129 9.86729 9.7012 9.86729 9.07235C9.86729 8.44335 10.3789 7.93162 11.0079 7.93162C11.6362 7.93162 12.1475 8.44232 12.1485 9.07041C12.1485 9.0711 12.1481 9.07169 12.1481 9.07235C12.1481 9.07272 12.1483 9.07307 12.1484 9.07344C12.1484 9.07371 12.1485 9.07399 12.1485 9.07429C12.1475 9.70223 11.6362 10.2129 11.0079 10.2129ZM10.8301 5.66614H7.01687V3.82921H8.39376C9.26957 3.82921 9.71946 4.37591 10.2152 4.97835C10.4047 5.2086 10.6009 5.44701 10.8301 5.66614ZM3.26659 4.65631C3.59924 4.13844 4.16499 3.82921 4.78052 3.82921H6.41716V5.66614H2.61796L3.26659 4.65631ZM1.13683 6.26586H13.4202C13.9163 6.26586 14.3198 6.66938 14.3198 7.16543L14.3312 8.77249H12.7208C12.578 7.95542 11.8653 7.33191 11.0079 7.33191C10.1507 7.33191 9.438 7.95542 9.29524 8.77249H5.90309C5.76034 7.95542 5.04766 7.33191 4.19047 7.33191C3.33298 7.33191 2.62031 7.95542 2.47755 8.77249H2.0364C1.54035 8.77249 1.13683 8.36897 1.13683 7.87291V6.26586Z" stroke=""/>
<path fill-rule="evenodd" clip-rule="evenodd" d="M4.22852 11.945C4.22852 11.7869 4.10035 11.6587 3.94225 11.6587H0.823546C0.665444 11.6587 0.537277 11.7869 0.537277 11.945V21.925C0.537277 22.0831 0.665444 22.2113 0.823546 22.2113H3.94225C4.10035 22.2113 4.22852 22.0831 4.22852 21.925V11.945ZM3.65598 12.2312V21.6387H1.10981V12.2312H3.65598Z" fill="black"/>
<path fill-rule="evenodd" clip-rule="evenodd" d="M5.95312 12.7374C5.95312 12.5793 5.82496 12.4512 5.66686 12.4512H4.30885C4.15075 12.4512 4.02258 12.5793 4.02258 12.7374C4.02258 12.8955 4.15075 13.0237 4.30885 13.0237H5.38059V20.8664H4.30885C4.15075 20.8664 4.02258 20.9945 4.02258 21.1526C4.02258 21.3107 4.15075 21.4389 4.30885 21.4389H5.66686C5.82496 21.4389 5.95312 21.3107 5.95312 21.1526V12.7374Z" fill="black"/>
<path fill-rule="evenodd" clip-rule="evenodd" d="M20.806 14.8571C21.1939 14.7358 21.618 14.8155 21.9366 15.0644C22.1813 15.2556 22.3274 15.5508 22.3274 15.8633C22.3274 16.2943 22.0998 16.6934 21.7287 16.9127L16.5557 19.9709C15.8057 20.4143 14.9504 20.6482 14.0791 20.6482H5.79994C5.64184 20.6482 5.51367 20.5201 5.51367 20.362C5.51367 20.2039 5.64184 20.0757 5.79994 20.0757H14.0791C14.8479 20.0757 15.6026 19.8693 16.2643 19.4781L21.4373 16.4199C21.6341 16.3035 21.7549 16.0919 21.7549 15.8633C21.7549 15.729 21.6915 15.5995 21.5842 15.5156C21.4121 15.3812 21.1833 15.339 20.9769 15.4035L15.6494 17.0696C15.6257 17.077 15.6012 17.0813 15.5764 17.0824L11.7805 17.2483L10.6142 17.8717C10.4748 17.9462 10.3013 17.8936 10.2268 17.7541C10.1523 17.6147 10.2049 17.4412 10.3443 17.3667L11.568 16.7127C11.6058 16.6925 11.6476 16.681 11.6905 16.6791L15.5141 16.512L20.806 14.8571Z" fill="black"/>
<path fill-rule="evenodd" clip-rule="evenodd" d="M5.47412 13.674C5.47412 13.5159 5.60229 13.3877 5.76039 13.3877H8.07814C8.61098 13.3877 9.1346 13.5268 9.59723 13.7911L10.243 14.1601C10.6153 14.3729 11.0367 14.4848 11.4655 14.4848H13.0946C13.5082 14.4848 13.9065 14.6412 14.2096 14.9227C14.5848 15.2711 14.798 15.76 14.798 16.2721V16.7121C14.798 16.8702 14.6698 16.9984 14.5117 16.9984C14.3536 16.9984 14.2255 16.8702 14.2255 16.7121V16.2721C14.2255 15.9192 14.0786 15.5823 13.82 15.3422C13.6228 15.1591 13.3636 15.0573 13.0946 15.0573H11.4655C10.9371 15.0573 10.4178 14.9194 9.95895 14.6572L9.31317 14.2882C8.93705 14.0733 8.51134 13.9602 8.07814 13.9602H5.76039C5.60229 13.9602 5.47412 13.8321 5.47412 13.674Z" fill="black"/>
</svg>
