<svg id="Layer_1" data-name="Layer 1" xmlns="http://www.w3.org/2000/svg" width="16" height="17" viewBox="0 0 16 17"><defs><style>.cls-1{fill:#010101;}.cls-2{fill:#fefefe;}.cls-3{fill:#020202;}</style></defs><title>con-1</title><path d="M2.2,8.9H13.7l-.2.3c-1.5,1.8-3,3.7-4.6,5.5a1.4,1.4,0,0,0-.2.7v1.3c0,.2,0,.2-.2.2h-1c-.2,0-.3,0-.3-.2V15.2a.6.6,0,0,0-.1-.4C5.5,12.9,4,11,2.4,9.2Z"/><path class="cls-1" d="M8,7.4h6.5c.2,0,.3.2.3.4s0,.4-.3.5H1.4a.5.5,0,0,1-.3-.5.4.4,0,0,1,.4-.4H8Z"/><path d="M8,5.3H5.9c-.2,0-.2-.1-.2-.2V4.5A1.4,1.4,0,0,1,7.1,3.4H9a1.3,1.3,0,0,1,1.3,1.3c.1.6.1.6-.6.6Z"/><path d="M3.1,4.7H1.3c-.2,0-.2-.1-.2-.2s.3-1.5,1-1.7H4.2a1.4,1.4,0,0,1,1.2.6.2.2,0,0,1,0,.3,3.2,3.2,0,0,0-.3.9c0,.2,0,.2-.2.2Z"/><path d="M12.9,4.7H11.2c-.2,0-.3,0-.3-.2a1.6,1.6,0,0,0-.3-.9c-.2-.2-.1-.2,0-.4a1.7,1.7,0,0,1,1.2-.5h1.4a1.6,1.6,0,0,1,1.7,1.9h-2Z"/><path d="M6.9,1.7A1.2,1.2,0,0,1,8,.6,1.1,1.1,0,0,1,9.1,1.7a1.1,1.1,0,0,1-2.2,0Z"/><path d="M4.5,1A1.1,1.1,0,0,1,3.4,2.1a1.1,1.1,0,0,1-1.1-1A1.1,1.1,0,0,1,3.4,0,1,1,0,0,1,4.5,1Z"/><path d="M12.5,0a1.1,1.1,0,0,1,1.1,1,1.1,1.1,0,0,1-1.1,1.1,1,1,0,0,1-1-1A1,1,0,0,1,12.5,0Z"/><path class="cls-2" d="M9.8,12.3,8.5,13.7c-.5.6-.5.6-1,0a18.5,18.5,0,0,1-1.4-1.4c-.1-.1-.2-.2-.1-.4s.2-.2.4-.2.5,0,.5-.5V10.1c.1-.4.2-.6.6-.6h1c.3,0,.5.2.5.6v1.4c0,.2.1.3.2.2h.4l.3.2C10,12.1,9.9,12.2,9.8,12.3Z"/><path class="cls-3" d="M7,12.4c.5-.1.5-.1.5-.6V10.3a.2.2,0,0,1,.2-.2c.7,0,.7,0,.7.6v1.1c0,.5,0,.5.6.6l-1,.9H7.9Z"/></svg>