<svg width="16" height="17" viewBox="0 0 16 17" fill="none" xmlns="http://www.w3.org/2000/svg">
<path d="M0.888889 9.66965H6.22222C6.45797 9.66965 6.68406 9.576 6.85076 9.4093C7.01746 9.2426 7.11111 9.01651 7.11111 8.78076V1.66965C7.11111 1.4339 7.01746 1.20781 6.85076 1.04111C6.68406 0.874412 6.45797 0.780762 6.22222 0.780762H0.888889C0.653141 0.780762 0.427048 0.874412 0.260349 1.04111C0.0936505 1.20781 0 1.4339 0 1.66965V8.78076C0 9.01651 0.0936505 9.2426 0.260349 9.4093C0.427048 9.576 0.653141 9.66965 0.888889 9.66965ZM0 15.8919C0 16.1276 0.0936505 16.3537 0.260349 16.5204C0.427048 16.6871 0.653141 16.7808 0.888889 16.7808H6.22222C6.45797 16.7808 6.68406 16.6871 6.85076 16.5204C7.01746 16.3537 7.11111 16.1276 7.11111 15.8919V12.3363C7.11111 12.1006 7.01746 11.8745 6.85076 11.7078C6.68406 11.5411 6.45797 11.4474 6.22222 11.4474H0.888889C0.653141 11.4474 0.427048 11.5411 0.260349 11.7078C0.0936505 11.8745 0 12.1006 0 12.3363V15.8919ZM8.88889 15.8919C8.88889 16.1276 8.98254 16.3537 9.14924 16.5204C9.31594 16.6871 9.54203 16.7808 9.77778 16.7808H15.1111C15.3469 16.7808 15.573 16.6871 15.7397 16.5204C15.9064 16.3537 16 16.1276 16 15.8919V9.66965C16 9.4339 15.9064 9.20781 15.7397 9.04111C15.573 8.87441 15.3469 8.78076 15.1111 8.78076H9.77778C9.54203 8.78076 9.31594 8.87441 9.14924 9.04111C8.98254 9.20781 8.88889 9.4339 8.88889 9.66965V15.8919ZM9.77778 7.00298H15.1111C15.3469 7.00298 15.573 6.90933 15.7397 6.74263C15.9064 6.57594 16 6.34984 16 6.1141V1.66965C16 1.4339 15.9064 1.20781 15.7397 1.04111C15.573 0.874412 15.3469 0.780762 15.1111 0.780762H9.77778C9.54203 0.780762 9.31594 0.874412 9.14924 1.04111C8.98254 1.20781 8.88889 1.4339 8.88889 1.66965V6.1141C8.88889 6.34984 8.98254 6.57594 9.14924 6.74263C9.31594 6.90933 9.54203 7.00298 9.77778 7.00298Z" fill="black"/>
</svg>
