<svg width="16" height="19" viewBox="0 0 16 19" fill="none" xmlns="http://www.w3.org/2000/svg">
<path d="M15.2346 2.19927C15.4045 2.19963 15.5673 2.26727 15.6875 2.3874C15.8076 2.50752 15.8753 2.67035 15.8757 2.84023V17.7684C15.8753 17.9382 15.8076 18.1011 15.6875 18.2212C15.5673 18.3413 15.4045 18.4089 15.2346 18.4093H0.706473C0.536551 18.4089 0.373691 18.3413 0.253537 18.2212C0.133384 18.1011 0.0657253 17.9382 0.0653687 17.7684V2.84023C0.0657253 2.67035 0.133384 2.50752 0.253537 2.3874C0.373691 2.26727 0.536551 2.19963 0.706473 2.19927H2.49886V3.17217C2.49886 3.68215 2.7015 4.17123 3.06219 4.53184C3.42288 4.89244 3.91208 5.09503 4.42218 5.09503C4.93227 5.09503 5.42147 4.89244 5.78216 4.53184C6.14285 4.17123 6.34549 3.68215 6.34549 3.17217V2.20062H9.60364V3.17217C9.60364 3.68215 9.80628 4.17123 10.167 4.53184C10.5277 4.89244 11.0169 5.09503 11.527 5.09503C12.0371 5.09503 12.5263 4.89244 12.8869 4.53184C13.2476 4.17123 13.4503 3.68215 13.4503 3.17217V2.20062L15.2346 2.19927ZM14.3789 6.74666H1.56218V16.9142H14.3789V6.74666ZM4.41273 7.8545H2.73506V9.59789H4.41273V7.8545ZM4.41273 10.9473H2.73506V12.6907H4.41273V10.9473ZM4.41273 14.04H2.73506V15.7821H4.41273V14.04ZM5.16991 3.17217V1.23852C5.16991 1.04026 5.09113 0.850114 4.9509 0.70992C4.81067 0.569727 4.62049 0.490967 4.42218 0.490967C4.22387 0.490967 4.03368 0.569727 3.89345 0.70992C3.75322 0.850114 3.67445 1.04026 3.67445 1.23852V3.17217C3.67445 3.37044 3.75322 3.56058 3.89345 3.70077C4.03368 3.84097 4.22387 3.91973 4.42218 3.91973C4.62049 3.91973 4.81067 3.84097 4.9509 3.70077C5.09113 3.56058 5.16991 3.37044 5.16991 3.17217ZM7.34696 7.8545H5.66794V9.59789H7.34696V7.8545ZM7.34696 10.9473H5.66794V12.6907H7.34696V10.9473ZM7.34696 14.04H5.66794V15.7821H7.34696V14.04ZM10.2812 7.8545H8.60217V9.59789H10.2812V7.8545ZM10.2812 10.9473H8.60217V12.6907H10.2812V10.9473ZM10.2812 14.04H8.60217V15.7821H10.2812V14.04ZM12.2747 3.17217V1.23852C12.2747 1.04026 12.1959 0.850114 12.0557 0.70992C11.9155 0.569727 11.7253 0.490967 11.527 0.490967C11.3286 0.490967 11.1385 0.569727 10.9982 0.70992C10.858 0.850114 10.7792 1.04026 10.7792 1.23852V3.17217C10.7792 3.37044 10.858 3.56058 10.9982 3.70077C11.1385 3.84097 11.3286 3.91973 11.527 3.91973C11.7253 3.91973 11.9155 3.84097 12.0557 3.70077C12.1959 3.56058 12.2747 3.37044 12.2747 3.17217ZM13.2141 7.8545H11.5364V9.59789H13.2141V7.8545ZM13.2141 10.9473H11.5364V12.6907H13.2141V10.9473ZM13.2141 14.04H11.5364V15.7821H13.2141V14.04Z" fill="black"/>
</svg>
