<svg width="14" height="16" viewBox="0 0 14 16" fill="none" xmlns="http://www.w3.org/2000/svg">
<path fill-rule="evenodd" clip-rule="evenodd" d="M5.81874 14.3768C6.40702 14.3768 6.40702 15.2706 5.81874 15.2706H0.936303C0.6896 15.2706 0.48938 15.0706 0.48938 14.8237V0.572168C0.48938 0.325274 0.6896 0.125244 0.936303 0.125244H5.81874C6.40702 0.125244 6.40702 1.01909 5.81874 1.01909H1.38323V14.3768H5.81874ZM4.55494 7.93015H11.6436L9.05141 10.5222C8.63535 10.9382 9.26744 11.5701 9.68351 11.1541L13.0385 7.79908C13.2153 7.62001 13.2073 7.33825 13.0459 7.1748L9.68351 3.8122C9.26744 3.39614 8.63554 4.02824 9.05141 4.44411L11.6434 7.03611H4.55475C3.96647 7.0363 3.96647 7.93015 4.55494 7.93015Z" fill="#E12919"/>
</svg>
