<svg width="19" height="12" viewBox="0 0 19 12" fill="none" xmlns="http://www.w3.org/2000/svg">
<path d="M6.57143 5.47619C6.57143 6.95238 7.80952 8.19048 9.28571 8.19048C10.7619 8.19048 12 6.95238 12 5.47619C12 4 10.7619 2.7619 9.28571 2.7619C7.80952 2.7619 6.57143 4 6.57143 5.47619ZM10.4286 11.3333C13.619 10.619 18.5714 6.38095 18.5714 6.38095C18.5714 6.38095 14.9048 0.666666 10 0.0476188C9.71429 -2.73188e-07 8.7619 0 8.57143 0C3.80952 0.47619 0 6.52381 0 6.52381C0 6.52381 4.14286 10.619 8.09524 11.2381C8.52381 11.4286 9.95238 11.4286 10.4286 11.3333ZM4.57143 5.76191C4.57143 3.28571 6.66667 1.28571 9.28571 1.28571C11.9048 1.28571 14 3.28571 14 5.76191C14 8.2381 11.9048 10.1905 9.28571 10.1905C6.66667 10.1905 4.57143 8.19048 4.57143 5.76191Z" fill="#F3CD0E"/>
</svg>
