<svg width="24" height="24" viewBox="0 0 24 24" fill="none" xmlns="http://www.w3.org/2000/svg">
<path d="M3.92968 16.8825L5.00218 15.8175C3.82784 14.7631 2.90516 13.4585 2.30218 12C3.82468 8.1975 8.02468 5.25 11.9997 5.25C13.0226 5.2635 14.0363 5.44596 14.9997 5.79L16.1622 4.62C14.8442 4.06299 13.4305 3.76751 11.9997 3.75C9.55507 3.84193 7.19097 4.64817 5.19958 6.06906C3.20819 7.48996 1.6768 9.46324 0.794681 11.745C0.735106 11.9098 0.735106 12.0902 0.794681 12.255C1.46087 14.0228 2.535 15.6083 3.92968 16.8825Z" fill="black"/>
<path d="M8.99965 11.7975C9.05181 11.0788 9.36092 10.4029 9.87046 9.89331C10.38 9.38377 11.0559 9.07466 11.7747 9.0225L13.1322 7.6575C12.3715 7.45721 11.5716 7.45981 10.8122 7.66505C10.0529 7.87028 9.36056 8.27098 8.80435 8.8272C8.24813 9.38341 7.84743 10.0757 7.6422 10.8351C7.43696 11.5944 7.43436 12.3943 7.63465 13.155L8.99965 11.7975Z" fill="black"/>
<path d="M23.205 11.745C22.345 9.5049 20.8486 7.56527 18.9 6.165L22.5 2.5575L21.4425 1.5L1.5 21.4425L2.5575 22.5L6.3825 18.675C8.08791 19.6755 10.023 20.2181 12 20.25C14.4446 20.1581 16.8087 19.3518 18.8001 17.9309C20.7915 16.51 22.3229 14.5368 23.205 12.255C23.2646 12.0902 23.2646 11.9098 23.205 11.745ZM15 12C14.9968 12.5251 14.8559 13.0401 14.5913 13.4937C14.3267 13.9472 13.9477 14.3234 13.4922 14.5845C13.0367 14.8457 12.5206 14.9827 11.9955 14.982C11.4704 14.9812 10.9547 14.8426 10.5 14.58L14.58 10.5C14.8496 10.9543 14.9945 11.4717 15 12ZM12 18.75C10.4265 18.7225 8.88292 18.316 7.5 17.565L9.405 15.66C10.2715 16.2612 11.3217 16.539 12.3721 16.4449C13.4225 16.3507 14.4065 15.8906 15.1523 15.1448C15.8981 14.399 16.3582 13.415 16.4524 12.3646C16.5465 11.3142 16.2687 10.264 15.6675 9.3975L17.82 7.245C19.5409 8.42624 20.8867 10.0766 21.6975 12C20.175 15.8025 15.975 18.75 12 18.75Z" fill="black"/>
</svg>
