<svg xmlns="http://www.w3.org/2000/svg" width="37" height="41.8" viewBox="0 0 37 41.8">
  <g id="Group_26" data-name="Group 26" transform="translate(-934 -3108)">
    <circle id="Ellipse_12" data-name="Ellipse 12" cx="18.5" cy="18.5" r="18.5" transform="translate(934 3108)" fill="#FFB600"/>
    <path id="rupee-sign" d="M22,33.925a.825.825,0,0,1-.825.825H13.12a7.989,7.989,0,0,1,2.05,3.85h6a.825.825,0,0,1,.825.825v1.1a.825.825,0,0,1-.825.825H15.381c-.29,5.048-4.18,8.25-9.489,8.25H4.283L14.961,61.421a.825.825,0,0,1-.612,1.378H12.865a.942.942,0,0,1-.61-.27L.214,49.285A.825.825,0,0,1,0,48.73V47.643a.825.825,0,0,1,.825-.825H5.773c3.888,0,6.488-2.024,6.765-5.469H.825A.825.825,0,0,1,0,40.524v-1.1A.825.825,0,0,1,.825,38.6H12.236c-.83-2.467-3.182-3.85-6.419-3.85H.825A.825.825,0,0,1,0,33.925v-1.1A.825.825,0,0,1,.825,32H21.174a.825.825,0,0,1,.825.825v1.1Z" transform="translate(949.001 3087.001)"/>
  </g>
</svg>
