<svg xmlns="http://www.w3.org/2000/svg" width="40.971" height="42.984" viewBox="0 0 40.971 42.984">
  <g id="Group_27" data-name="Group 27" transform="translate(-934 -3296)">
    <circle id="Ellipse_13" data-name="Ellipse 13" cx="18.5" cy="18.5" r="18.5" transform="translate(934 3296)" fill="#FFB600"/>
    <path id="head-side-headphones" d="M35.919,19.4a2.687,2.687,0,0,1,.195.917,2.259,2.259,0,0,1-2.255,2.257H31.6v4.515a4.517,4.517,0,0,1-4.515,4.515H22.571v3.951a.565.565,0,0,1-.564.564H20.877a.565.565,0,0,1-.564-.564V29.348h6.772a2.258,2.258,0,0,0,2.257-2.257V20.318h4.511c-.609-1.371-1.259-3.285-1.944-5.31-.942-2.774-2.112-6.228-3-7.483a13.98,13.98,0,0,0-9.73-5.242V8.2a8.854,8.854,0,0,1,3.386,6.484,7.9,7.9,0,0,1-15.8,0A8.854,8.854,0,0,1,10.154,8.2V2.958A11.421,11.421,0,0,0,2.263,13.106c0,.119-.008.312-.008.432a12.839,12.839,0,0,0,3.764,8.4l.749.674V35.556a.565.565,0,0,1-.564.564H5.075a.565.565,0,0,1-.564-.564V23.62A15.388,15.388,0,0,1,0,13.545c0-.145,0-.38.01-.525C.288,5.65,6.732,0,14.105,0h4.664A16.446,16.446,0,0,1,30.762,6.227C32.5,8.7,34.441,16.077,35.919,19.4ZM12.412,2.42V7.14a7.81,7.81,0,0,1,2.257-.367,7.81,7.81,0,0,1,2.257.367V2.258H14.105a12.07,12.07,0,0,0-1.693.162Zm7.9,12.255a5.644,5.644,0,1,0-5.644,5.644A5.654,5.654,0,0,0,20.313,14.674Zm-5.644-3.386a3.386,3.386,0,1,1-3.386,3.386A3.392,3.392,0,0,1,14.669,11.288Zm0,4.515a1.129,1.129,0,1,0-1.129-1.129A1.129,1.129,0,0,0,14.669,15.8Z" transform="translate(938.858 3302.863)"/>
  </g>
</svg>
