<svg xmlns="http://www.w3.org/2000/svg" width="42.629" height="41.628" viewBox="0 0 42.629 41.628">
  <g id="Group_25" data-name="Group 25" transform="translate(-934 -2947)">
    <circle id="Ellipse_11" data-name="Ellipse 11" cx="18.5" cy="18.5" r="18.5" transform="translate(934 2947)" fill="#FFB600"/>
    <path id="tag" d="M33.677,15.281a3.247,3.247,0,0,1,0,4.591L19.872,33.677a3.246,3.246,0,0,1-4.591,0L.95,19.347A3.729,3.729,0,0,1,0,17.051V3.246A3.246,3.246,0,0,1,3.246,0H17.051a3.729,3.729,0,0,1,2.3.951Zm-1.53,3.061a1.084,1.084,0,0,0,0-1.53L17.817,2.481a1.075,1.075,0,0,0-.765-.317H3.246A1.083,1.083,0,0,0,2.164,3.246V17.054a1.234,1.234,0,0,0,.317.762L16.811,32.147a1.082,1.082,0,0,0,1.53,0ZM9.739,8.386a1.353,1.353,0,1,0,1.353,1.353A1.354,1.354,0,0,0,9.739,8.386Zm0-1.894A3.246,3.246,0,1,1,6.492,9.739,3.246,3.246,0,0,1,9.739,6.492Z" transform="translate(942 2954)"/>
  </g>
</svg>
