<svg width="14" height="14" viewBox="0 0 14 14" fill="none" xmlns="http://www.w3.org/2000/svg">
<path d="M13.6774 5.04155L9.32258 4.36288L7.29032 0.193906C7.22581 0.0646353 7.1129 0 6.95161 0C6.79032 0 6.67742 0.0646353 6.6129 0.193906L4.67742 4.36288L0.322581 5.04155C0.193548 5.04155 0.0967742 5.12235 0.0322581 5.28393C-0.0322581 5.44552 0 5.59095 0.129032 5.72022L3.32258 8.91967L2.54839 13.4765C2.54839 13.6704 2.6129 13.8158 2.74194 13.9127C2.87097 14.0097 3 14.0259 3.12903 13.9612L7 11.7313L10.9677 13.8643C11.0968 13.9935 11.2097 14.0097 11.3065 13.9127C11.4032 13.8158 11.4516 13.6704 11.4516 13.4765L10.6774 8.91967L13.871 5.72022C14 5.59095 14.0323 5.44552 13.9677 5.28393C13.9032 5.12235 13.8065 5.04155 13.6774 5.04155Z" fill="#FFB600"/>
</svg>
