<svg width="8" height="8" viewBox="0 0 8 8" fill="none" xmlns="http://www.w3.org/2000/svg">
<path d="M7.81567 2.88089L5.32719 2.49307L4.1659 0.110803C4.12903 0.0369344 4.06452 0 3.97235 0C3.88018 0 3.81567 0.0369344 3.7788 0.110803L2.67281 2.49307L0.184332 2.88089C0.110599 2.88089 0.0552995 2.92705 0.0184332 3.01939C-0.0184332 3.11173 0 3.19483 0.0737327 3.2687L1.89862 5.09695L1.45622 7.70083C1.45622 7.81163 1.49309 7.89474 1.56682 7.95014C1.64055 8.00554 1.71429 8.01477 1.78802 7.97784L4 6.7036L6.26728 7.92244C6.34101 7.99631 6.40553 8.00554 6.46083 7.95014C6.51613 7.89474 6.54378 7.81163 6.54378 7.70083L6.10138 5.09695L7.92627 3.2687C8 3.19483 8.01843 3.11173 7.98157 3.01939C7.9447 2.92705 7.8894 2.88089 7.81567 2.88089Z" fill="#FFB600"/>
</svg>
