<?xml version="1.0" encoding="utf-8"?>
<!-- Generator: Adobe Illustrator 25.0.0, SVG Export Plug-In . SVG Version: 6.00 Build 0)  -->
<svg version="1.1" id="Layer_1" xmlns="http://www.w3.org/2000/svg" xmlns:xlink="http://www.w3.org/1999/xlink" x="0px" y="0px"
	 viewBox="0 0 534.3 127" style="enable-background:new 0 0 534.3 127;" xml:space="preserve">
<style type="text/css">
	.st0{fill-rule:evenodd;clip-rule:evenodd;fill:url(#SVGID_1_);}
	.st1{fill:url(#SVGID_2_);}
	.st2{fill:url(#SVGID_3_);}
	.st3{fill:url(#SVGID_4_);}
	.st4{fill:#6466AF;}
</style>
<g>
	
		<linearGradient id="SVGID_1_" gradientUnits="userSpaceOnUse" x1="30.337" y1="65.7791" x2="66.4287" y2="37.4213" gradientTransform="matrix(1 0 0 -1 0 146.7103)">
		<stop  offset="0" style="stop-color:#A563A8"/>
		<stop  offset="0.1835" style="stop-color:#8F5EA7"/>
		<stop  offset="0.4274" style="stop-color:#6F58A5"/>
		<stop  offset="1" style="stop-color:#424FA2"/>
	</linearGradient>
	<path class="st0" d="M48.4,72.2c-12.7,0-23,10.3-23,22.9c0,12.6,10.3,22.9,23,22.9s23-10.3,23-22.9S61,72.2,48.4,72.2z M48.4,107.7
		c-6.9,0-12.5-5.6-12.5-12.5s5.6-12.5,12.5-12.5s12.5,5.6,12.5,12.5S55.3,107.7,48.4,107.7z"/>
	
		<linearGradient id="SVGID_2_" gradientUnits="userSpaceOnUse" x1="48.2373" y1="136.4451" x2="195.8171" y2="20.4896" gradientTransform="matrix(1 0 0 -1 0 146.7103)">
		<stop  offset="0" style="stop-color:#A563A8"/>
		<stop  offset="0.1835" style="stop-color:#8F5EA7"/>
		<stop  offset="0.4274" style="stop-color:#6F58A5"/>
		<stop  offset="1" style="stop-color:#424FA2"/>
	</linearGradient>
	<path class="st1" d="M122.9,78.8C122.9,78.9,123,78.9,122.9,78.8c4.9,5.2,10,9.5,15.2,13.1c5.3,3.5,10.7,6.3,16.2,8.2
		c5.8,2,11.5,3.1,17.1,3.2c0.1,0,0.1,0,0.2,0c2.5,0.1,4.9-0.2,7.3-0.5c0.3-0.1,0.7,0,1-0.1c2.6-0.4,5.2-1.1,7.7-2.1
		c11.9-4.7,23.1-22.8,24.2-40.2c1.7-27.5-15.6-53.8-23.1-60.1c26.8,47.8,3.4,77.6,3.2,77.9c8.4-23.3,4.4-48-0.9-62.2
		c-19.2,0-69.6-0.2-70.2-0.1c-7,0.8-30.3,15.2-43.8,27.9c0,0-48.6,6.6-57.6,10.3S2.2,68,0.3,72.2C-1.1,75.5,2.9,89,5,95.5
		c0.7,2.1,2.7,3.6,4.9,3.6h10.6c-0.5-3.3-0.4-6.8,0.5-10.5c2.5-10.4,11-18.8,21.5-20.9C60.7,64,76.7,77.8,76.7,95.2
		c0,1.5-0.1,2.9-0.3,4.3H107c50.3,46.1,93.1,20.5,94.5,19.5c-5.6,2.2-11.1,3.4-16.5,3.9c-25,2.2-47.3-11.6-61.5-23.4l0,0
		c-2.8-2.3-5.4-4.6-7.5-6.7c-0.2-0.2-0.4-0.4-0.6-0.6c-2.9-3-5.2-5.6-7.4-8l-4.6,9.3l-8.2-16.6l-18.3-2.7l13.3-12.9l-3.1-18.2
		l16.4,8.6l16.4-8.6l-3.1,18.2L130,74.2l-9.7,1.4C121,76.7,121.8,77.7,122.9,78.8z M142.7,23.7l1.1-3.5l2.1,3h3.7l-2.2,2.9l1.1,3.5
		l-3.4-1.2l-3,2.2l0.1-3.7l-2.9-2.2L142.7,23.7z M129.5,39.9l-4.9,3.5l0.2-6.1l-4.9-3.6l5.8-1.7l1.9-5.8l3.4,5h6.1l-3.7,4.8l1.9,5.8
		L129.5,39.9z"/>
	
		<linearGradient id="SVGID_3_" gradientUnits="userSpaceOnUse" x1="188.3693" y1="146.6379" x2="188.6248" y2="146.437" gradientTransform="matrix(1 0 0 -1 0 146.7103)">
		<stop  offset="0" style="stop-color:#A563A8"/>
		<stop  offset="0.1835" style="stop-color:#8F5EA7"/>
		<stop  offset="0.4274" style="stop-color:#6F58A5"/>
		<stop  offset="1" style="stop-color:#424FA2"/>
	</linearGradient>
	<path class="st2" d="M188.6,0.3c-0.1-0.1-0.2-0.2-0.3-0.2l0.1-0.1C188.5,0.1,188.6,0.2,188.6,0.3z"/>
</g>
<linearGradient id="SVGID_4_" gradientUnits="userSpaceOnUse" x1="230.7908" y1="107.4104" x2="534.2908" y2="107.4104" gradientTransform="matrix(1 0 0 -1 0 146.7103)">
	<stop  offset="0" style="stop-color:#A563A8"/>
	<stop  offset="0.1835" style="stop-color:#8F5EA7"/>
	<stop  offset="0.4274" style="stop-color:#6F58A5"/>
	<stop  offset="1" style="stop-color:#424FA2"/>
</linearGradient>
<path class="st3" d="M253.9,56h-0.5c-4.5,0-8.5-1-11.9-2.9s-6-4.7-7.9-8.1c-1.9-3.5-2.8-7.5-2.8-12.1s1-8.7,2.9-12.1
	c1.9-3.4,4.6-6,8.1-7.9s7.5-2.8,12.1-2.8c2.9,0,5.2,0.2,6.7,0.6c1.5,0.4,2.7,0.8,3.6,1.2l0.2,0.1c1,0.3,1.8,0.5,2.4,0.5s1,0,1.1-0.1
	v11.8h-0.6l0,0c-0.1-0.1-0.3-0.5-0.8-1c-0.6-0.7-1.4-1.5-2.5-2.4s-2.5-1.7-4.1-2.4c-1.7-0.7-3.6-1.1-5.9-1.1c-3,0-5.6,0.7-7.9,2
	c-2.2,1.4-4,3.2-5.2,5.6c-1.2,2.4-1.8,5.1-1.8,8.1s0.6,5.7,1.8,8.1c1.2,2.4,3,4.3,5.2,5.7s4.9,2.1,7.9,2.1c2,0,3.7-0.3,5.2-0.8
	s2.8-1.2,3.9-1.9V35.8h-9.3c-1.3,0-2.4,0.1-3.2,0.4c-0.8,0.3-1.3,0.6-1.7,1c-0.4,0.4-0.6,0.7-0.7,0.9c0,0.1-0.1,0.2-0.1,0.3v0.1l0,0
	l0,0h-0.2V28.1h0.2l0,0l0.1,0.1c0.1,0,0.1,0.1,0.2,0.1c0.2,0.2,0.7,0.3,1.5,0.5s2.1,0.2,3.9,0.2h17.3v26.8l-5-2.1
	c-0.5,0-1,0.2-1.7,0.4c-0.9,0.4-2.1,0.8-3.7,1.2C259,55.8,256.8,56,253.9,56z M288.1,56c-4.2,0-7.3-0.9-9.2-2.6
	c-1.9-1.7-2.9-4.1-2.9-7.3v-0.2c0-2.3,0.5-4.2,1.5-5.5c1-1.4,2.3-2.3,4-2.9c1.7-0.6,3.7-0.8,6-0.8h10.1v-2c0-1.4-0.5-2.6-1.5-3.4
	c-1-0.8-2.6-1.2-4.9-1.2h-10.7c-0.5,0-0.9,0.1-1.2,0.3c-0.3,0.2-0.4,0.4-0.5,0.5l-0.1,0.2v0.1l0,0v-8.1l0,0l0,0c0,0,0,0,0.1,0
	l0.3,0.1c0.3,0.1,0.7,0.2,1.4,0.2h14.2c2.9,0,5.1,0.5,6.6,1.4c1.6,0.9,2.7,2,3.3,3.5c0.6,1.4,1,3,1,4.6v17.9c0,1,0.1,1.7,0.4,2.3
	c0.3,0.5,0.6,1,1,1.2c0.4,0.3,0.7,0.4,1,0.5l0.2,0.1h0.1l0,0l0,0v0.2h-10.8v-2.8c-0.1,0-0.1,0.1-0.2,0.1c-0.6,0.5-1.3,1-2.1,1.5
	c-0.8,0.6-1.9,1-3.1,1.5C291.1,55.8,289.7,56,288.1,56z M289.9,50.2c1.2,0,2.3-0.1,3.3-0.4s1.9-0.5,2.7-0.9c0.8-0.3,1.4-0.6,1.8-0.9
	v-6.3h-8.8c-1.9,0-3.3,0.2-4.2,0.7c-0.9,0.5-1.4,1.4-1.4,2.8v0.1c0.1,1.6,0.7,2.8,1.9,3.6C286.5,49.8,288,50.2,289.9,50.2z
	 M326.1,55.4h-13.5v-0.2l0,0l0,0h0.1c0.1,0,0.2,0,0.3-0.1c0.3-0.1,0.6-0.3,0.9-0.7c0.4-0.4,0.7-0.9,0.9-1.7c0.3-0.8,0.4-1.8,0.4-3.2
	V18.7c0-1.3-0.2-2.4-0.4-3.1c-0.3-0.8-0.6-1.3-0.9-1.7c-0.4-0.4-0.7-0.6-0.9-0.7c-0.1,0-0.2-0.1-0.3-0.1h-0.1l0,0l0,0v-0.2l10.8-1.8
	v38.4c0,1.3,0.1,2.4,0.4,3.2s0.6,1.3,0.9,1.7c0.4,0.4,0.7,0.6,1,0.7l0.3,0.1h0.1h0.1v0.2H326.1z M342.2,56c-4.2,0-7.3-0.9-9.2-2.6
	c-1.9-1.7-2.9-4.1-2.9-7.3v-0.2c0-2.3,0.5-4.2,1.5-5.5c1-1.4,2.3-2.3,4-2.9c1.7-0.6,3.7-0.8,6-0.8h10.1v-2c0-1.4-0.5-2.6-1.5-3.4
	c-1-0.8-2.6-1.2-4.9-1.2h-10.7c-0.5,0-0.9,0.1-1.2,0.3c-0.3,0.2-0.4,0.4-0.5,0.5l-0.1,0.2v0.1l0,0v-8.1l0,0l0,0c0,0,0,0,0.1,0
	l0.3,0.1c0.3,0.1,0.7,0.2,1.4,0.2h14.2c2.9,0,5.1,0.5,6.6,1.4c1.6,0.9,2.7,2,3.3,3.5c0.6,1.4,1,3,1,4.6v17.9c0,1,0.1,1.7,0.4,2.3
	c0.3,0.5,0.6,1,1,1.2c0.4,0.3,0.7,0.4,1,0.5l0.2,0.1h0.1l0,0l0,0v0.2h-10.8v-2.8c-0.1,0-0.1,0.1-0.2,0.1c-0.6,0.5-1.3,1-2.1,1.5
	c-0.8,0.6-1.9,1-3.1,1.5C345.3,55.8,343.9,56,342.2,56z M344,50.2c1.2,0,2.3-0.1,3.3-0.4s1.9-0.5,2.7-0.9c0.8-0.3,1.4-0.6,1.8-0.9
	v-6.3H343c-1.9,0-3.3,0.2-4.2,0.7c-0.9,0.5-1.4,1.4-1.4,2.8v0.1c0.1,1.6,0.7,2.8,1.9,3.6C340.6,49.8,342.2,50.2,344,50.2z
	 M400.4,55.4h-13l-0.1-0.2l0,0c0,0,0,0,0.1,0c0,0,0.1,0,0.2-0.1c0.2-0.1,0.2-0.3,0.2-0.7s-0.2-1-0.5-1.7c-0.3-0.8-0.9-1.9-1.8-3.2
	l-2.8-3.9l-2.7,3.7c-0.9,1.4-1.5,2.4-1.8,3.2s-0.5,1.3-0.5,1.7s0.1,0.6,0.3,0.7l0.1,0.1c0,0,0,0,0.1,0l0,0l-0.1,0.2h-13l0.2-0.2l0,0
	l0,0c0.1,0,0.2-0.1,0.4-0.3c0.3-0.2,0.9-0.7,1.7-1.5c0.8-0.8,1.9-2.1,3.4-3.9l7.1-9.7l-7.1-9.6c-1.5-1.8-2.6-3.1-3.4-3.9
	c-0.8-0.8-1.4-1.3-1.7-1.5c-0.2-0.1-0.4-0.2-0.4-0.3l0,0l0,0l-0.2-0.2h13l0.1,0.2l0,0l0,0h-0.1c0,0-0.1,0-0.2,0.1
	c-0.2,0.1-0.3,0.4-0.3,0.8c0,0.4,0.2,0.9,0.5,1.7s1,1.8,1.9,3.1l2.7,3.7c1.9-2.6,3.3-4.5,4-5.7c0.8-1.2,1.2-2.2,1.2-2.9
	c0-0.4-0.1-0.7-0.3-0.8c-0.1,0-0.2,0-0.2-0.1h-0.1l0,0l0.2-0.2h12.9l-0.1,0.2l0,0l0,0l-0.4,0.3c-0.3,0.2-0.9,0.7-1.7,1.5
	c-0.8,0.8-1.9,2.1-3.4,3.9l-7.2,9.8l7.3,9.8c1.5,1.8,2.6,3.1,3.4,3.9c0.8,0.8,1.4,1.3,1.7,1.5l0.4,0.3l0,0l0,0L400.4,55.4z
	 M421,68.5h-11.3l0.2-0.2l0.4-0.3c0.3-0.2,0.7-0.7,1.4-1.5c0.6-0.8,1.4-2.1,2.5-3.9l2.6-6.8l-10.7-25.6c-0.8-1.8-1.5-3-2-3.8
	c-0.6-0.8-1-1.3-1.2-1.5l-0.4-0.3l-0.1-0.2h14.4v0.2l-0.8,0.2c-0.5,0.2-1,0.4-1.5,0.8c-0.5,0.4-0.7,0.9-0.7,1.5
	c0,0.3,0.1,0.6,0.2,0.9c0.6,1.6,3,7.9,7.1,18.9c4.2-10.9,6.6-17.2,7.3-18.9c0.2-0.4,0.2-0.7,0.2-1c0-0.6-0.3-1.1-0.8-1.5
	s-1-0.6-1.5-0.8l-0.8-0.2v-0.2h13.7l-0.1,0.2c0,0-0.2,0.1-0.4,0.3c-0.3,0.2-0.7,0.7-1.2,1.5s-1.2,2.1-2,3.8l-13.1,32.4
	c-1.1,2.6-1.6,4.2-1.6,4.9c0,0.4,0.2,0.6,0.5,0.8L421,68.5z M480.1,56h-0.5c-4.5,0-8.5-1-11.9-2.9s-6-4.7-7.9-8.1
	c-1.9-3.5-2.8-7.5-2.8-12.1s1-8.7,2.9-12.1c1.9-3.4,4.6-6,8.1-7.9s7.5-2.8,12.1-2.8c2.9,0,5.2,0.2,6.7,0.6c1.5,0.4,2.7,0.8,3.6,1.2
	l0.2,0.1c1,0.3,1.8,0.5,2.4,0.5c0.6,0,1,0,1.1-0.1v11.8h-0.6l0,0c-0.1-0.1-0.3-0.5-0.8-1c-0.6-0.7-1.4-1.5-2.5-2.4s-2.5-1.7-4.1-2.4
	s-3.6-1.1-5.9-1.1c-3,0-5.6,0.7-7.9,2c-2.2,1.4-4,3.2-5.2,5.6c-1.2,2.4-1.8,5.1-1.8,8.1s0.6,5.7,1.8,8.1c1.2,2.4,3,4.3,5.2,5.7
	s4.9,2.1,7.9,2.1c2,0,3.7-0.3,5.2-0.8s2.8-1.2,3.9-1.9V35.8H480c-1.3,0-2.4,0.1-3.2,0.4c-0.8,0.3-1.3,0.6-1.7,1s-0.6,0.7-0.7,0.9
	c0,0.1-0.1,0.2-0.1,0.3v0.1l0,0l0,0h-0.2V28.1h0.2l0,0l0.1,0.1c0.1,0,0.1,0.1,0.2,0.1c0.2,0.2,0.7,0.3,1.5,0.5s2.1,0.2,3.9,0.2h17.3
	v26.8l-5-2.1c-0.5,0-1,0.2-1.7,0.4c-0.9,0.4-2.1,0.8-3.7,1.2S483,56,480.1,56z M518.3,56c-4.9,0-8.8-1.5-11.7-4.5s-4.3-6.9-4.3-11.8
	c0-4.9,1.4-8.9,4.3-11.8c2.9-3,6.8-4.5,11.7-4.5s8.8,1.5,11.7,4.5s4.3,6.9,4.3,11.8c0,4.9-1.4,8.9-4.3,11.8S523.2,56,518.3,56z
	 M518.4,48.4c2.5,0,4.5-0.8,5.9-2.5c1.5-1.6,2.2-3.7,2.2-6.2s-0.7-4.6-2.2-6.2c-1.5-1.6-3.4-2.4-5.9-2.4s-4.5,0.8-5.9,2.4
	c-1.5,1.6-2.2,3.7-2.2,6.2s0.7,4.6,2.2,6.2C513.9,47.5,515.8,48.4,518.4,48.4z"/>
<path class="st4" d="M235.6,88.6c0.8,1.7,2.6,2.4,4.4,2.4c2,0,4.7-1.3,5.1-3.8c0.7-5.2-10.9-2-9.7-10.8c0.4-2.7,3.1-6.3,8.6-6.3
	c2.5,0,4.8,0.5,6.2,2.6l-2.8,2.3c-0.6-1.2-2-2-3.8-2c-3.4,0-4.7,2-4.9,3.5c-0.8,5.7,10.9,2.3,9.7,10.5c-0.6,4.4-4.5,7-8.9,7
	c-2.9,0-5.5-1-6.8-3.1L235.6,88.6z M254.4,86.8c-0.4,2.7,1.8,4.4,4.5,4.4c1.8,0,3.2-0.9,4.5-2.3l2,1.7c-1.9,2.1-4.3,3.1-7.2,3.1
	c-4.8,0-7.3-3.5-6.7-8c0.6-4.5,4.4-8,9-8c5.3,0,6.8,4.1,6.3,8l-0.1,1h-12.3V86.8z M263.8,84.5c0.3-2.5-0.9-4.4-3.8-4.4
	c-2.8,0-5,2.4-5.3,4.4H263.8z M272.7,69.1h2.9l-3.4,24.2h-2.9L272.7,69.1z M279.7,80.6h-3.3l0.4-2.5h3.3l0.5-3.4c0.5-4,2.2-6,6-6
	c0.6,0,1.3,0,2.1,0.2l-0.7,2.6c-0.5-0.2-1-0.3-1.6-0.3c-2.1,0-2.7,1.3-2.9,3.4l-0.5,3.5h3.4l-0.4,2.5h-3.5l-1.8,12.7h-2.9
	L279.7,80.6z M299.8,70.6h7.9c9.6,0,10.9,7.1,10.3,11.3c-0.8,5.8-5.9,11.3-14,11.3h-7.4L299.8,70.6z M300.1,90.4h3.9
	c5.2,0,10-2.8,10.8-8.5c0.4-2.9-0.3-8.5-7.7-8.5h-4.6L300.1,90.4z M322.2,78.1h2.9l-0.4,2.3h0.1c1-1.6,3-2.7,4.9-2.7
	c0.4,0,0.9,0.1,1.2,0.2l-0.5,3.1c-0.5-0.1-0.9-0.2-1.4-0.2c-2.8,0-4.6,1.5-5.1,4.9l-1.1,7.6h-2.9L322.2,78.1z M334.3,78.1h2.9
	l-2.1,15.2h-2.9L334.3,78.1z M336.8,70.6c1.2,0,2,1,1.8,2.1c-0.2,1.2-1.3,2.1-2.4,2.1s-2-1-1.8-2.1
	C334.6,71.5,335.6,70.6,336.8,70.6z M339.9,78.1h3.3l2.9,11.6l6-11.6h3.1l-8.1,15.2h-3.2L339.9,78.1z M358.7,86.8
	c-0.4,2.7,1.8,4.4,4.5,4.4c1.8,0,3.2-0.9,4.5-2.3l2,1.7c-1.9,2.1-4.3,3.1-7.2,3.1c-4.8,0-7.3-3.5-6.7-8c0.6-4.5,4.4-8,9-8
	c5.3,0,6.8,4.1,6.3,8l-0.1,1h-12.3V86.8z M368.1,84.5c0.3-2.5-0.9-4.4-3.8-4.4c-2.8,0-5,2.4-5.3,4.4H368.1z M401.3,75.5
	c-1.1-1.7-3-2.6-5.1-2.6c-5.1,0-9,4.1-9.7,9.2c-0.7,4.8,1.9,8.8,7.2,8.8c2.6,0,4.7-1.2,6.3-3l2.3,2c-0.8,0.9-4,4-9.2,4
	c-7.2,0-10.8-6-10-11.7c1-7,6.5-12.1,13.5-12.1c3,0,6,1.1,7.5,3.5L401.3,75.5z M406.8,80c1.8-1.5,4.2-2.2,6.3-2.2
	c4.5,0,6,2.4,5.6,5.1l-1.1,7.7c-0.2,1.1-0.2,2-0.3,2.8h-2.6c0-0.8,0.1-1.5,0.2-2.3h-0.1c-1.5,2-3.4,2.7-5.7,2.7
	c-2.8,0-5-1.6-4.6-4.5c0.5-3.9,4.5-5.2,9.1-5.2h2.1l0.1-0.6c0.2-1.6-0.7-3.2-3.2-3.2c-2.2,0-3.4,0.9-4.5,1.7L406.8,80z M414.1,86
	c-2.7,0-6.1,0.5-6.5,2.9c-0.2,1.7,0.9,2.5,2.9,2.5c3.2,0,4.7-2.4,5-4.4l0.1-1H414.1z M423.6,78.1h2.9l-0.4,2.3h0.1
	c1-1.6,3-2.7,4.9-2.7c0.4,0,0.9,0.1,1.2,0.2l-0.5,3.1c-0.5-0.1-0.9-0.2-1.4-0.2c-2.8,0-4.6,1.5-5.1,4.9l-1.1,7.6h-2.9L423.6,78.1z
	 M446.1,70.6h8c5.8,0,6.8,3.5,6.4,6.3c-0.4,2.9-2.9,5.6-6.4,6l5,10.3h-3.8l-4.4-10h-3.4l-1.4,10H443L446.1,70.6z M447.8,80.6h4
	c2.4,0,4.9-0.6,5.4-3.6c0.4-3.1-1.9-3.6-4.4-3.6h-4L447.8,80.6z M464.9,86.8c-0.4,2.7,1.8,4.4,4.5,4.4c1.8,0,3.2-0.9,4.5-2.3l2,1.7
	c-1.9,2.1-4.3,3.1-7.2,3.1c-4.8,0-7.3-3.5-6.7-8c0.6-4.5,4.4-8,9-8c5.3,0,6.8,4.1,6.3,8l-0.1,1h-12.3V86.8z M474.3,84.5
	c0.3-2.5-0.9-4.4-3.8-4.4c-2.8,0-5,2.4-5.3,4.4H474.3z M481.7,78.1h2.9l-0.4,2.3h0.1c1-1.6,3-2.7,5.4-2.7c2.9,0,5.3,1.8,4.7,5.8
	l-1.4,9.8h-2.9l1.2-9c0.4-2.8-1.1-3.9-2.9-3.9c-2.4,0-4.4,1.5-5,5.1l-1.1,7.8h-2.9L481.7,78.1z M507.3,80.6h-4.1l-1,6.9
	c-0.2,1.7-0.5,3.5,1.7,3.5c0.7,0,1.5-0.1,2.1-0.4l-0.4,2.6c-0.7,0.4-2.1,0.5-2.7,0.5c-4.5,0-4.1-2.7-3.8-5.2l1.1-7.9h-3.3l0.4-2.5
	h3.3l0.6-4.3h2.9l-0.6,4.3h4.1L507.3,80.6z M511.1,80c1.8-1.5,4.2-2.2,6.3-2.2c4.5,0,6,2.4,5.6,5.1l-1.1,7.7c-0.2,1.1-0.2,2-0.3,2.8
	H519c0-0.8,0.1-1.5,0.2-2.3h-0.1c-1.5,2-3.4,2.7-5.7,2.7c-2.8,0-5-1.6-4.6-4.5c0.5-3.9,4.5-5.2,9.1-5.2h2.1l0.1-0.6
	c0.2-1.6-0.7-3.2-3.2-3.2c-2.2,0-3.4,0.9-4.5,1.7L511.1,80z M518.4,86c-2.7,0-6.1,0.5-6.5,2.9c-0.2,1.7,0.9,2.5,2.9,2.5
	c3.2,0,4.7-2.4,5-4.4l0.1-1H518.4z M529.4,69.1h2.9l-3.4,24.2H526L529.4,69.1z"/>
<path class="st4" d="M370.4,109.6v2.4c0,1.6-1,3-2.7,3.8l0,0c-1.3,0.6-2.8,0.9-4.3,0.9c-4.5,0-7.9-2.6-7.9-5.9s3.5-5.9,7.9-5.9
	c2.2,0,4.3,0.7,5.8,1.8l-1.7,2.2c-1-0.8-2.5-1.2-4-1.2c-2.8,0-5.1,1.4-5.1,3.1c0,1.7,2.4,3.1,5.1,3.1c1.1,0,2.2-0.2,3.1-0.7l0,0
	c0.5-0.3,0.9-0.6,1.1-1h-5.4v-2.8h8.1V109.6z M390.8,110.9c0,3.3-3.8,5.9-8.6,5.9s-8.6-2.6-8.6-5.9c0-3.3,3.8-5.9,8.6-5.9
	S390.8,107.5,390.8,110.9z M388,110.9c0-1.8-2.7-3.3-5.8-3.3c-3.2,0-5.8,1.5-5.8,3.3s2.7,3.3,5.8,3.3S388,112.7,388,110.9z
	 M409.7,116.6h-3.3l-1.7-2.6h-7.5l-1.7,2.6h-3.3l7.5-11.8h2.5L409.7,116.6z M402.9,111.2l-1.9-3l-1.9,3H402.9z M348.9,109.5
	c-1.1,0-2,0.9-2,2s0.9,2,2,2s2-0.9,2-2S350.1,109.5,348.9,109.5z M413.5,109.5c-1.1,0-2,0.9-2,2s0.9,2,2,2s2-0.9,2-2
	S414.6,109.5,413.5,109.5z"/>
<g>
</g>
<g>
</g>
<g>
</g>
<g>
</g>
<g>
</g>
<g>
</g>
</svg>
