<svg width="59" height="48" viewBox="0 0 59 48" fill="none" xmlns="http://www.w3.org/2000/svg">
<path d="M22.124 35.4C22.4157 35.4 22.7009 35.4865 22.9435 35.6486C23.186 35.8107 23.3751 36.041 23.4867 36.3105C23.5984 36.5801 23.6276 36.8766 23.5707 37.1628C23.5137 37.4489 23.3733 37.7117 23.167 37.918C22.9607 38.1243 22.6979 38.2647 22.4118 38.3217C22.1256 38.3786 21.8291 38.3494 21.5595 38.2377C21.29 38.1261 21.0597 37.937 20.8976 37.6945C20.7355 37.4519 20.649 37.1667 20.649 36.875C20.649 36.6813 20.6872 36.4895 20.7613 36.3105C20.8354 36.1316 20.9441 35.969 21.081 35.832C21.218 35.695 21.3806 35.5864 21.5595 35.5123C21.7385 35.4382 21.9303 35.4 22.124 35.4ZM36.873 35.4C37.1647 35.3996 37.45 35.4857 37.6928 35.6475C37.9356 35.8092 38.125 36.0393 38.237 36.3087C38.349 36.5781 38.3786 36.8746 38.322 37.1608C38.2655 37.447 38.1254 37.71 37.9194 37.9166C37.7134 38.1231 37.4508 38.264 37.1647 38.3213C36.8787 38.3786 36.5821 38.3498 36.3124 38.2385C36.0427 38.1272 35.8121 37.9385 35.6497 37.6961C35.4873 37.4538 35.4004 37.1687 35.4 36.877C35.3997 36.6832 35.4377 36.4913 35.5116 36.3122C35.5856 36.133 35.6941 35.9702 35.831 35.8331C35.9678 35.6959 36.1304 35.5871 36.3094 35.5128C36.4884 35.4384 36.6802 35.4001 36.874 35.4H36.873ZM56.287 10.912C57.0644 11.2822 57.727 11.856 58.2046 12.5724C58.6823 13.2887 58.9571 14.1211 59 14.981V46.464C58.9997 46.6594 58.922 46.8467 58.7838 46.9848C58.6457 47.123 58.4584 47.2007 58.263 47.201H56.786C56.5906 47.2007 56.4033 47.123 56.2652 46.9848C56.127 46.8467 56.0493 46.6594 56.049 46.464V14.977C56.0353 14.6909 55.9444 14.4139 55.7859 14.1753C55.6275 13.9368 55.4074 13.7456 55.149 13.622L30.07 3.058C29.8897 2.98101 29.6956 2.94132 29.4995 2.94132C29.3034 2.94132 29.1093 2.98101 28.929 3.058L3.854 13.623C3.59583 13.7482 3.37606 13.9405 3.21772 14.1797C3.05938 14.419 2.96829 14.6964 2.954 14.983V46.464C2.95374 46.6594 2.876 46.8467 2.73785 46.9848C2.59969 47.123 2.41238 47.2007 2.217 47.201H0.738C0.542443 47.201 0.354882 47.1234 0.216508 46.9852C0.0781353 46.847 0.000264982 46.6596 0 46.464L0 14.981C0.0425068 14.1211 0.316961 13.2887 0.794253 12.5722C1.27154 11.8556 1.93388 11.2816 2.711 10.911L27.785 0.349C28.3333 0.138 28.9129 0.0200445 29.5 0C30.0865 0.0188758 30.6658 0.135476 31.214 0.345L56.287 10.912ZM47.2 17.7C47.9823 17.7003 48.7325 18.0112 49.2857 18.5643C49.8388 19.1175 50.1497 19.8677 50.15 20.65V46.464C50.1497 46.6594 50.072 46.8467 49.9338 46.9848C49.7957 47.123 49.6084 47.2007 49.413 47.201H47.936C47.7406 47.2007 47.5533 47.123 47.4152 46.9848C47.277 46.8467 47.1993 46.6594 47.199 46.464V20.653H11.8V46.464C11.7997 46.6594 11.722 46.8467 11.5838 46.9848C11.4457 47.123 11.2584 47.2007 11.063 47.201H9.587C9.39162 47.2007 9.20431 47.123 9.06615 46.9848C8.928 46.8467 8.85026 46.6594 8.85 46.464V20.653C8.84974 20.2654 8.92584 19.8815 9.07396 19.5233C9.22208 19.1651 9.43932 18.8396 9.71327 18.5654C9.98721 18.2912 10.3125 18.0736 10.6705 17.9251C11.0286 17.7766 11.4124 17.7001 11.8 17.7H47.2ZM40.924 31.13C41.8548 31.4052 42.6761 31.965 43.2724 32.7309C43.8688 33.4967 44.2103 34.4301 44.249 35.4V39.825C44.2487 40.6073 43.9378 41.3575 43.3847 41.9107C42.8315 42.4638 42.0813 42.7747 41.299 42.775V45.725C41.299 46.1162 41.1436 46.4914 40.867 46.768C40.5904 47.0446 40.2152 47.2 39.824 47.2H38.349C37.9578 47.2 37.5826 47.0446 37.306 46.768C37.0294 46.4914 36.874 46.1162 36.874 45.725V42.775H22.124V45.725C22.124 46.1162 21.9686 46.4914 21.692 46.768C21.4154 47.0446 21.0402 47.2 20.649 47.2H19.175C18.7842 47.2 18.4093 47.0449 18.1327 46.7687C17.8562 46.4925 17.7005 46.1178 17.7 45.727V42.777C16.9177 42.7767 16.1675 42.4658 15.6143 41.9127C15.0612 41.3595 14.7503 40.6093 14.75 39.827V35.4C14.79 34.4309 15.1321 33.4986 15.7286 32.7338C16.325 31.9689 17.1459 31.4099 18.076 31.135L18.944 27.657C19.272 26.521 19.95 25.5173 20.8815 24.7889C21.8129 24.0605 22.9504 23.6445 24.132 23.6H34.867C36.0476 23.6444 37.1842 24.0598 38.1154 24.787C39.0465 25.5142 39.7248 26.5163 40.054 27.651L40.924 31.13ZM21.807 28.368L21.157 30.978H37.843L37.191 28.368C37.0433 27.8596 36.7391 27.4106 36.3218 27.0848C35.9044 26.759 35.3951 26.5729 34.866 26.553H24.132C23.6029 26.5729 23.0936 26.759 22.6762 27.0848C22.2589 27.4106 21.9547 27.8596 21.807 28.368ZM41.3 39.827V35.4C41.3 35.0088 41.1446 34.6336 40.868 34.357C40.5914 34.0804 40.2162 33.925 39.825 33.925H19.174C18.783 33.9253 18.4081 34.0808 18.1317 34.3574C17.8553 34.634 17.7 35.009 17.7 35.4V39.825L41.3 39.827Z" fill="white"/>
</svg>
