<svg width="19" height="20" viewBox="0 0 19 20" fill="none" xmlns="http://www.w3.org/2000/svg">
<path d="M18.8974 10.742C18.9596 10.9036 18.9943 11.0755 19 11.2497C18.9997 11.5809 18.8747 11.8984 18.6523 12.1327C18.4299 12.367 18.1283 12.4989 17.8136 12.4994H16.6251V14.9994C16.6249 15.6624 16.3745 16.2981 15.9291 16.7669C15.4837 17.2357 14.8796 17.4992 14.2497 17.4994H11.8749V19.6872C11.8747 19.7699 11.8434 19.8493 11.7878 19.9078C11.7322 19.9664 11.6568 19.9993 11.5781 19.9994H10.9836C10.905 19.9993 10.8296 19.9664 10.774 19.9078C10.7184 19.8493 10.687 19.7699 10.6869 19.6872V16.2503H14.2497C14.5646 16.2501 14.8666 16.1184 15.0892 15.8841C15.3119 15.6497 15.437 15.332 15.4372 15.0006V11.2503H17.8105C17.4901 10.4911 17.1481 9.43134 16.7877 8.31008C16.2921 6.77409 15.6766 4.86157 15.2094 4.16667C14.5883 3.3421 13.8141 2.65943 12.9339 2.16038C12.0538 1.66133 11.0862 1.35637 10.0903 1.26412V4.54042C10.6131 4.97075 11.0425 5.51369 11.3498 6.13288C11.657 6.75207 11.8349 7.43321 11.8717 8.13068C11.8717 9.29081 11.4338 10.4034 10.6544 11.2238C9.87491 12.0441 8.81774 12.505 7.71543 12.505C6.61311 12.505 5.55595 12.0441 4.77649 11.2238C3.99704 10.4034 3.55915 9.29081 3.55915 8.13068C3.5961 7.43308 3.7743 6.75186 4.08181 6.13266C4.38932 5.51346 4.81903 4.97059 5.34214 4.54042V1.63787C4.19421 2.02771 3.18433 2.77214 2.4439 3.7743C1.70346 4.77647 1.26676 5.98997 1.19059 7.25692C1.19059 7.32281 1.18638 7.42968 1.18638 7.49612C1.27757 9.25082 1.98304 10.9078 3.16667 12.1473L3.56072 12.5205V19.6877C3.56059 19.7705 3.52928 19.8498 3.47366 19.9084C3.41804 19.9669 3.34265 19.9999 3.264 20H2.67002C2.59136 19.9999 2.51597 19.9669 2.46035 19.9084C2.40474 19.8498 2.37343 19.7705 2.37329 19.6877V13.0786C0.953869 11.592 0.108321 9.60446 0 7.5C0 7.41971 0 7.28959 0.00526112 7.2093C0.15152 3.12846 3.54178 0 7.42081 0H9.87459C11.0983 0.0715977 12.2937 0.416008 13.3814 1.01042C14.4692 1.60483 15.4246 2.43569 16.1842 3.44795C17.0986 4.81728 18.1198 8.90199 18.8974 10.742ZM6.5301 1.33998V3.95349C6.91429 3.8248 7.31439 3.75633 7.71753 3.75028C8.12067 3.75633 8.52077 3.8248 8.90497 3.95349V1.25028H7.42081C7.12227 1.2581 6.82463 1.28807 6.5301 1.33998ZM10.6864 8.12569C10.6864 7.5076 10.5122 6.90338 10.186 6.38946C9.85967 5.87553 9.39592 5.47498 8.85334 5.23844C8.31076 5.00191 7.71371 4.94002 7.13771 5.0606C6.56171 5.18119 6.03262 5.47883 5.61734 5.91589C5.20207 6.35294 4.91926 6.90979 4.80469 7.51601C4.69011 8.12222 4.74892 8.75059 4.97366 9.32163C5.19841 9.89268 5.579 10.3808 6.06731 10.7242C6.55562 11.0675 7.12972 11.2508 7.71701 11.2508C8.50429 11.2495 9.25897 10.9198 9.81566 10.3339C10.3724 9.74798 10.6857 8.95372 10.6869 8.12514L10.6864 8.12569ZM7.71701 6.25083C8.06934 6.25083 8.41376 6.36079 8.70671 6.5668C8.99966 6.77281 9.22799 7.06563 9.36282 7.40821C9.49765 7.7508 9.53293 8.12777 9.46419 8.49146C9.39546 8.85515 9.22579 9.18922 8.97666 9.45142C8.72752 9.71362 8.4101 9.89219 8.06454 9.96453C7.71898 10.0369 7.3608 9.99974 7.03529 9.85784C6.70978 9.71593 6.43156 9.47563 6.23582 9.16731C6.04007 8.85899 5.93559 8.4965 5.93559 8.12569C5.93629 7.62853 6.12425 7.15193 6.45828 6.80038C6.79231 6.44883 7.24515 6.25101 7.71753 6.25028L7.71701 6.25083ZM7.71701 8.75083C7.83449 8.75083 7.94933 8.71417 8.047 8.64548C8.14468 8.57679 8.22082 8.47915 8.26577 8.36492C8.31073 8.25069 8.32249 8.125 8.29957 8.00373C8.27666 7.88247 8.22009 7.77108 8.13702 7.68365C8.05395 7.59623 7.94811 7.53669 7.83289 7.51257C7.71767 7.48844 7.59824 7.50082 7.4897 7.54814C7.38117 7.59545 7.2884 7.67558 7.22313 7.77838C7.15786 7.88119 7.12303 8.00205 7.12303 8.12569C7.12358 8.2912 7.18648 8.44972 7.29793 8.5665C7.40938 8.68327 7.56027 8.74876 7.71753 8.74862L7.71701 8.75083Z" fill="white"/>
</svg>
