<svg xmlns="http://www.w3.org/2000/svg" width="15.362" height="14.265" viewBox="0 0 15.362 14.265">
  <path id="Icon_ionic-ios-star" data-name="Icon ionic-ios-star" d="M17.029,8.313H11.985L10.452,3.738a.555.555,0,0,0-1.042,0L7.877,8.313H2.8a.55.55,0,0,0-.549.549.4.4,0,0,0,.01.093.527.527,0,0,0,.23.387l4.146,2.921L5.045,16.889a.55.55,0,0,0,.189.617.531.531,0,0,0,.309.134.672.672,0,0,0,.343-.123l4.046-2.884,4.046,2.884a.643.643,0,0,0,.343.123.493.493,0,0,0,.305-.134.543.543,0,0,0,.189-.617l-1.591-4.626,4.111-2.949.1-.086a.524.524,0,0,0-.4-.916Z" transform="translate(-2.25 -3.375)" fill="#089517"/>
</svg>
