<svg xmlns="http://www.w3.org/2000/svg" width="41.5" height="57.3" viewBox="0 0 41.5 57.3"><defs><style>.cls-1{fill:#d9dbff;}.cls-2{fill:#6364c2;}.cls-3{fill:#fff;}</style></defs><title>Asset 5</title><g id="Layer_2" data-name="Layer 2"><g id="Layer_1-2" data-name="Layer 1"><rect class="cls-1" x="2.2" width="39.3" height="55.65" rx="4"/><rect class="cls-2" y="1.6" width="39.3" height="55.65" rx="4"/><path class="cls-3" d="M28.7,38.3H9.4a1,1,0,0,0-1,1,.9.9,0,0,0,1,1H28.7a.9.9,0,0,0,1-1A1,1,0,0,0,28.7,38.3Z"/><path class="cls-3" d="M23.5,33.9H9.3c-.4,0-.7.5-.7,1s.3,1,.7,1H23.5c.4,0,.7-.5.7-1S23.9,33.9,23.5,33.9Z"/><path class="cls-3" d="M28.7,43.2H9.4a1.1,1.1,0,0,0-1,.9.9.9,0,0,0,1,1H28.7a.9.9,0,0,0,1-1A1.1,1.1,0,0,0,28.7,43.2Z"/><path class="cls-3" d="M28.7,48H9.4a1,1,0,0,0-1,1,1,1,0,0,0,1,.9H28.7a1,1,0,0,0,1-.9A1,1,0,0,0,28.7,48Z"/><path class="cls-3" d="M30.2,17.1a10.3,10.3,0,0,0-1.9-4.9,10.6,10.6,0,0,0-6.9-4.3H17.9A10.8,10.8,0,0,0,9,19.6a9.7,9.7,0,0,0,3.4,6.7,9.9,9.9,0,0,0,8.3,2.8A9.5,9.5,0,0,0,27,26.2,10.3,10.3,0,0,0,30.2,17.1ZM28,22.6a8.9,8.9,0,0,1-.8-1.7c-.2-.8-.8,0-.8.5s-.4,1-1.1.2-.9-.6-1.1-.6-.6.5-.5,3,.8,2,1.2,2.2A10.8,10.8,0,0,1,22,27.5a9.2,9.2,0,0,1-10.5-4.7,9.4,9.4,0,0,1,1-9.9c0,.4.1.8.1,1.2a9.3,9.3,0,0,1-.2,2.9,1.3,1.3,0,0,0,.1.6q.1.3.3.3l.3-.3a1.3,1.3,0,0,1,.1-.6v-.5l.3.3a4.6,4.6,0,0,1,.7.7.8.8,0,0,1,.2.4.8.8,0,0,0,.3.7l.3.9a.4.4,0,0,1,.1.3c.2.3.3.5.6.5s.5.1.5.5H16a.5.5,0,0,0-.6.4v.2a2.5,2.5,0,0,0,.9,2l.5.4a1.6,1.6,0,0,1,.3,1.3,1.9,1.9,0,0,0-.2.7.8.8,0,0,0,0,.7c.1.3,0,.8.3.8s.7,0,.7-.5v-.2a4.2,4.2,0,0,1,.8-2.1,1.6,1.6,0,0,0,.9-.7,1,1,0,0,0,.5-1.3,1.1,1.1,0,0,1,.3-1.2,1.3,1.3,0,0,0,.6-1.2c0-.5-.3-.9-.8-.8l-.6.2-.9.3a1,1,0,0,1-.9-.6c-.2-.3-.2-.3-.5-.1l-.7.4c-.2.1-.3.1-.5-.1l-.4-.3-.4-.2-.2-.3c0-.2.1-.4.3-.4l.8-.2h.4c.1,0,.1-.2,0-.2h-.2l-1.2-.5h-.3c-.2-.2-.3-.4,0-.6a1.8,1.8,0,0,1,2.5-.1l.3.2c.3.3.4.7.7,1l.7.7h.5c.2,0,.2-.2.2-.3s-.1-.1-.1-.2l-.3-.5a1.6,1.6,0,0,1,.3-2.3l.2-.2a1.6,1.6,0,0,0,.9-.9h-.5c-.8.3-.2-.3.1-.4s-.2-.2-.2-.2l.6-.2.6-.3c.1-.1.1-.3.2-.4h-.7c-.3,0-.4,0-.4-.4s-.3-.4-.5-.2l-.5.3c-.3.2-.5.1-.7-.3s-.2-.2-.4-.1l-.3.2-.5.3c-.2,0-.4.1-.5-.1a.5.5,0,0,1,0-.5h.1l.7-.4,1-.6a.8.8,0,0,0,.3-.7l-.5-.2c-.2.1-.3.3-.5.3h-.5c-.1,0-.1-.2-.1-.3h.2l1.4-.2h.2a2.9,2.9,0,0,0,1.2.7c.3.1.4,0,.4-.4a1.9,1.9,0,0,1,1.5,0l.8.6v.4c-.1.1-.1.3-.2.4s.1.5.4.5h.3c.3,0,.4.1.4.4s0,.4.4.4H25l.2.2c.4.3.6.1.8-.3v-.2c0-.2.1-.2.3-.1l.9,1c-.3.3-.5.7-.3,1a1.4,1.4,0,0,1-.2,1.1,3,3,0,0,1-.4,1c-.2.6,0,.8.6.9s.5.2.6.7a1.5,1.5,0,0,0,.9,1.5.5.5,0,0,1,.4.2A6.5,6.5,0,0,1,28,22.6Z"/></g></g></svg>