<svg xmlns="http://www.w3.org/2000/svg" width="25" height="23" viewBox="0 0 25 23" fill="none">
<path d="M21.5 9.8125C21.2016 9.8125 20.9155 9.93103 20.7045 10.142C20.4935 10.353 20.375 10.6391 20.375 10.9375V18.8125C20.375 19.1109 20.2565 19.397 20.0455 19.608C19.8345 19.819 19.5484 19.9375 19.25 19.9375H3.5C3.20163 19.9375 2.91548 19.819 2.7045 19.608C2.49353 19.397 2.375 19.1109 2.375 18.8125V9.8125C2.375 9.51413 2.49353 9.22798 2.7045 9.017C2.91548 8.80603 3.20163 8.6875 3.5 8.6875H5.75C5.99532 8.7003 6.2381 8.63246 6.44124 8.49432C6.64438 8.35618 6.79672 8.15535 6.875 7.9225L7.4825 6.0775C7.55797 5.85405 7.70176 5.65997 7.89354 5.5227C8.08533 5.38542 8.3154 5.31189 8.55125 5.3125H14.75C15.0484 5.3125 15.3345 5.19397 15.5455 4.98299C15.7565 4.77202 15.875 4.48587 15.875 4.1875C15.875 3.88913 15.7565 3.60298 15.5455 3.392C15.3345 3.18103 15.0484 3.0625 14.75 3.0625H8.495C7.78799 3.06382 7.09925 3.28714 6.52599 3.70094C5.95272 4.11474 5.52388 4.69812 5.3 5.36875L4.94 6.49375H3.5C2.60489 6.49375 1.74645 6.84933 1.11351 7.48226C0.480579 8.1152 0.125 8.97364 0.125 9.86875V18.8687C0.125 19.7639 0.480579 20.6223 1.11351 21.2552C1.74645 21.8882 2.60489 22.2437 3.5 22.2437H19.25C20.1451 22.2437 21.0036 21.8882 21.6365 21.2552C22.2694 20.6223 22.625 19.7639 22.625 18.8687V10.9937C22.6326 10.8413 22.6092 10.689 22.5561 10.5459C22.503 10.4029 22.4213 10.2721 22.3161 10.1616C22.2108 10.0511 22.0842 9.9632 21.9439 9.90318C21.8036 9.84316 21.6526 9.81231 21.5 9.8125ZM11.375 8.6875C10.485 8.6875 9.61496 8.95142 8.87493 9.44589C8.13491 9.94035 7.55814 10.6432 7.21754 11.4654C6.87695 12.2877 6.78783 13.1925 6.96147 14.0654C7.1351 14.9383 7.56368 15.7401 8.19302 16.3695C8.82236 16.9988 9.62418 17.4274 10.4971 17.601C11.37 17.7747 12.2748 17.6856 13.0971 17.345C13.9193 17.0044 14.6221 16.4276 15.1166 15.6876C15.6111 14.9475 15.875 14.0775 15.875 13.1875C15.875 11.994 15.4009 10.8494 14.557 10.0055C13.7131 9.1616 12.5685 8.6875 11.375 8.6875ZM11.375 15.4375C10.93 15.4375 10.495 15.3055 10.125 15.0583C9.75496 14.8111 9.46657 14.4597 9.29627 14.0485C9.12597 13.6374 9.08142 13.185 9.16823 12.7485C9.25505 12.3121 9.46934 11.9112 9.78401 11.5965C10.0987 11.2818 10.4996 11.0675 10.936 10.9807C11.3725 10.8939 11.8249 10.9385 12.236 11.1088C12.6472 11.2791 12.9986 11.5675 13.2458 11.9375C13.493 12.3075 13.625 12.7425 13.625 13.1875C13.625 13.7842 13.3879 14.3565 12.966 14.7785C12.544 15.2004 11.9717 15.4375 11.375 15.4375ZM23.75 3.0625H22.625V1.9375C22.625 1.63913 22.5065 1.35298 22.2955 1.142C22.0845 0.931026 21.7984 0.8125 21.5 0.8125C21.2016 0.8125 20.9155 0.931026 20.7045 1.142C20.4935 1.35298 20.375 1.63913 20.375 1.9375V3.0625H19.25C18.9516 3.0625 18.6655 3.18103 18.4545 3.392C18.2435 3.60298 18.125 3.88913 18.125 4.1875C18.125 4.48587 18.2435 4.77202 18.4545 4.98299C18.6655 5.19397 18.9516 5.3125 19.25 5.3125H20.375V6.4375C20.375 6.73587 20.4935 7.02202 20.7045 7.23299C20.9155 7.44397 21.2016 7.5625 21.5 7.5625C21.7984 7.5625 22.0845 7.44397 22.2955 7.23299C22.5065 7.02202 22.625 6.73587 22.625 6.4375V5.3125H23.75C24.0484 5.3125 24.3345 5.19397 24.5455 4.98299C24.7565 4.77202 24.875 4.48587 24.875 4.1875C24.875 3.88913 24.7565 3.60298 24.5455 3.392C24.3345 3.18103 24.0484 3.0625 23.75 3.0625Z" fill="#9B392C" style="&#10;    fill: #000;&#10;"/>
</svg>