<?xml version="1.0" encoding="utf-8"?>
<!-- Generator: Adobe Illustrator 16.0.0, SVG Export Plug-In . SVG Version: 6.00 Build 0)  -->
<!DOCTYPE svg PUBLIC "-//W3C//DTD SVG 1.1//EN" "http://www.w3.org/Graphics/SVG/1.1/DTD/svg11.dtd">
<svg version="1.1" id="Layer_1" xmlns="http://www.w3.org/2000/svg" xmlns:xlink="http://www.w3.org/1999/xlink" x="0px" y="0px"
	 width="22px" height="22px" viewBox="-0.069 0 22 22" enable-background="new -0.069 0 22 22" xml:space="preserve">
<g id="Group_10" transform="translate(-375 -693)">
	<circle id="Ellipse_6" fill="#FFB600" cx="385.931" cy="704" r="11"/>
</g>
<g>
	<path fill="#FFFFFF" d="M13.599,16.4c0.199,0.139,0.375,0.292,0.529,0.461c-0.521,0.689-1.086,1.265-1.691,1.725
		s-1.275,0.689-2.012,0.689c-0.567,0-0.981-0.141-1.242-0.425s-0.391-0.663-0.391-1.139c0-0.169,0.015-0.349,0.046-0.54
		c0.03-0.191,0.069-0.387,0.115-0.587l1.38-5.75c0.107-0.444,0.161-0.736,0.161-0.874c0-0.368-0.139-0.552-0.414-0.552
		c-0.215,0-0.495,0.119-0.84,0.356s-0.687,0.533-1.023,0.885c-0.107-0.077-0.203-0.153-0.287-0.23
		c-0.085-0.077-0.165-0.161-0.242-0.253c0.613-0.721,1.246-1.261,1.897-1.622c0.652-0.36,1.262-0.541,1.829-0.541
		c0.521,0,0.894,0.135,1.114,0.403c0.223,0.268,0.334,0.602,0.334,1c0,0.138-0.012,0.287-0.035,0.448
		c-0.021,0.161-0.049,0.326-0.08,0.495l-1.471,6.119c-0.016,0.107-0.046,0.24-0.092,0.402c-0.047,0.16-0.069,0.318-0.069,0.471
		c0,0.139,0.03,0.254,0.092,0.346s0.169,0.138,0.322,0.138c0.261,0,0.589-0.138,0.989-0.414C12.917,17.137,13.276,16.8,13.599,16.4z
		 M12.54,5.338c-0.414,0-0.75-0.138-1.011-0.414c-0.261-0.276-0.392-0.613-0.392-1.012c0-0.46,0.165-0.854,0.494-1.185
		c0.33-0.33,0.725-0.495,1.186-0.495c0.414,0,0.742,0.134,0.988,0.403c0.244,0.268,0.367,0.602,0.367,1
		c0,0.46-0.152,0.859-0.459,1.196C13.407,5.169,13.017,5.338,12.54,5.338z"/>
</g>
</svg>
