<svg xmlns="http://www.w3.org/2000/svg" width="17.048" height="17.048" viewBox="0 0 17.048 17.048">
  <path id="instagram_la-brands-400" d="M165.013,160a4.848,4.848,0,0,0-2.506.678,5.089,5.089,0,0,0-1.828,1.828,4.848,4.848,0,0,0-.678,2.506v7.022a4.848,4.848,0,0,0,.678,2.506,5.089,5.089,0,0,0,1.828,1.828,4.847,4.847,0,0,0,2.506.678h7.023a4.847,4.847,0,0,0,2.506-.678,5.089,5.089,0,0,0,1.828-1.828,4.848,4.848,0,0,0,.678-2.506v-7.022a4.848,4.848,0,0,0-.678-2.506,5.089,5.089,0,0,0-1.828-1.828,4.848,4.848,0,0,0-2.506-.678Zm0,1.55h7.023a3.433,3.433,0,0,1,1.743.46,3.368,3.368,0,0,1,1.259,1.259,3.434,3.434,0,0,1,.46,1.744v7.022a3.434,3.434,0,0,1-.46,1.743,3.368,3.368,0,0,1-1.259,1.259,3.433,3.433,0,0,1-1.743.46h-7.023a3.433,3.433,0,0,1-1.743-.46,3.368,3.368,0,0,1-1.259-1.259,3.433,3.433,0,0,1-.46-1.743v-7.022a3.434,3.434,0,0,1,.46-1.744,3.368,3.368,0,0,1,1.259-1.259A3.433,3.433,0,0,1,165.013,161.55Zm8.088,1.7a.7.7,0,1,0,.5.206A.677.677,0,0,0,173.1,163.245Zm-4.577.63a4.487,4.487,0,0,0-2.325.63,4.738,4.738,0,0,0-1.7,1.7,4.607,4.607,0,0,0,0,4.649,4.739,4.739,0,0,0,1.7,1.7,4.607,4.607,0,0,0,4.649,0,4.739,4.739,0,0,0,1.7-1.7,4.607,4.607,0,0,0,0-4.649,4.738,4.738,0,0,0-1.7-1.7A4.488,4.488,0,0,0,168.524,163.874Zm0,1.55a3.073,3.073,0,0,1,1.562.412,3.016,3.016,0,0,1,1.126,1.126,3.169,3.169,0,0,1,0,3.124,3.016,3.016,0,0,1-1.126,1.126,3.169,3.169,0,0,1-3.124,0,3.016,3.016,0,0,1-1.126-1.126,3.169,3.169,0,0,1,0-3.124,3.016,3.016,0,0,1,1.126-1.126A3.073,3.073,0,0,1,168.524,165.424Z" transform="translate(-160 -160)" fill="#242424"/>
</svg>
