<svg xmlns="http://www.w3.org/2000/svg" width="64.6" height="105.2" viewBox="0 0 64.6 105.2"><defs><style>.cls-1{fill:#ff7e67;}.cls-2{fill:#dcdeff;}.cls-3{fill:#6364c2;}</style></defs><title>icon-1</title><g id="color"><path class="cls-1" d="M56.6,56V93.6a4.1,4.1,0,0,1-4.1,4H27.7v4.9H63V56Z"/><path class="cls-1" d="M22.6,30.3a5.8,5.8,0,0,1,6-5.8,5.9,5.9,0,0,1,3.2,1.1,7.8,7.8,0,0,0,.3-2.2,7.2,7.2,0,0,0-7.2-7.2,7.3,7.3,0,0,0-7.3,7.2A7.3,7.3,0,0,0,22.6,30.3Z"/><path class="cls-2" d="M56.6,56V93.6a4.1,4.1,0,0,1-4.1,4H27.7v4.9H63V56Z"/><path class="cls-2" d="M22.6,30.3a5.8,5.8,0,0,1,6-5.8,5.9,5.9,0,0,1,3.2,1.1,7.8,7.8,0,0,0,.3-2.2,7.2,7.2,0,0,0-7.2-7.2,7.3,7.3,0,0,0-7.3,7.2A7.3,7.3,0,0,0,22.6,30.3Z"/></g><g id="icons"><path class="cls-3" d="M15.4,39.2l.7-3.2A16.6,16.6,0,1,1,36.3,19.1l3.3-.2A19.8,19.8,0,0,0,0,19.8,19.7,19.7,0,0,0,15.4,39.2Z"/><path class="cls-3" d="M19.8,13.8a6.2,6.2,0,0,1,6.1,5.4l3.2-.4a9.3,9.3,0,1,0-14.2,9L16.7,25a6.1,6.1,0,0,1-2.9-5.2A6,6,0,0,1,19.8,13.8Z"/><path class="cls-3" d="M63.9,58.6a6.8,6.8,0,0,0-6.5-5.4h-.6a5.4,5.4,0,0,0-2.5,1A5.8,5.8,0,0,0,50,51.4a6.9,6.9,0,0,0-4.8,1,6.7,6.7,0,0,0-4.7-3,9.1,9.1,0,0,0-4.5.7V30.6a7.7,7.7,0,0,0-7.3-7.7A7.5,7.5,0,0,0,23.2,25a7.3,7.3,0,0,0-2.3,5.4V64.9l-6.2-6.6a6.9,6.9,0,0,0-12,4.4,7,7,0,0,0,1.8,5L26,94l.2,9.5a1.7,1.7,0,0,0,1.6,1.7H62.9a1.7,1.7,0,0,0,1.6-1.7V63.7A27.7,27.7,0,0,0,63.9,58.6Zm-2.7,43.3H29.4l-.2-8.5a1.7,1.7,0,0,0-.3-1L7,65.5H7a3.7,3.7,0,0,1-1-2.6,3.4,3.4,0,0,1,1.2-2.6,3.6,3.6,0,0,1,5.1.2l9.1,9.8a1.7,1.7,0,0,0,1.8.4,1.8,1.8,0,0,0,1-1.6V30.4a4.6,4.6,0,0,1,1.3-3.1,3.9,3.9,0,0,1,3.1-1.1,4.3,4.3,0,0,1,4.1,4.4V54.2A1.7,1.7,0,0,0,34,55.8a1.7,1.7,0,0,0,1.8-1c.5-1,1.4-2.4,4.4-2.1s2.9,3,2.9,3a1.5,1.5,0,0,0,1.4,1.1,1.6,1.6,0,0,0,1.6-.7,3.3,3.3,0,0,1,3.4-1.5c1.1.2,2.2.7,2.8,3.4a1.6,1.6,0,0,0,1.6,1.2,1.6,1.6,0,0,0,1.6-1.1c.6-1.5,1.3-1.5,1.6-1.6h.3a3.4,3.4,0,0,1,3.2,2.8,21.7,21.7,0,0,1,.7,4.4Z"/></g></svg>