<svg width="40" height="15" viewBox="0 0 40 15" fill="none" xmlns="http://www.w3.org/2000/svg">
<path fill-rule="evenodd" clip-rule="evenodd" d="M8.4799 0.000511718C8.5734 0.00614315 8.663 0.0401363 8.73686 0.0980374C8.81072 0.155939 8.86536 0.235024 8.89357 0.324802C8.92178 0.414581 8.92222 0.510847 8.89484 0.600884C8.86746 0.690921 8.81355 0.770484 8.74022 0.829069L1.71152 6.91993H39.5306C39.5919 6.91905 39.6528 6.93044 39.7097 6.95343C39.7666 6.97641 39.8184 7.01054 39.8621 7.05382C39.9058 7.0971 39.9405 7.14868 39.9641 7.20555C39.9878 7.26242 40 7.32345 40 7.3851C40 7.44674 39.9878 7.50778 39.9641 7.56465C39.9405 7.62152 39.9058 7.67309 39.8621 7.71637C39.8184 7.75965 39.7666 7.79378 39.7097 7.81677C39.6528 7.83975 39.5919 7.85114 39.5306 7.85027H1.63923L8.37864 14.1882C8.42377 14.2301 8.46021 14.2805 8.48586 14.3366C8.51151 14.3927 8.52588 14.4533 8.52811 14.515C8.53035 14.5767 8.52043 14.6382 8.49891 14.696C8.47739 14.7538 8.4447 14.8068 8.40273 14.8519C8.36076 14.8969 8.31033 14.9332 8.25435 14.9586C8.19837 14.984 8.13795 14.998 8.07656 14.9998C8.01518 15.0016 7.95404 14.9912 7.89667 14.9692C7.8393 14.9472 7.78684 14.9139 7.7423 14.8714L0.149597 7.73397C0.101248 7.6893 0.0629115 7.63479 0.0371357 7.57407C0.0113599 7.51336 -0.00126492 7.4478 9.99709e-05 7.3818C0.00146486 7.3158 0.0167883 7.25085 0.0450521 7.19127C0.0733158 7.13168 0.113872 7.07884 0.164027 7.03622L8.14724 0.116804C8.22739 0.0456103 8.3296 0.00451701 8.43649 0.000511718C8.45095 -0.000170573 8.46544 -0.000170573 8.4799 0.000511718Z" fill="black"/>
</svg>
