<svg xmlns="http://www.w3.org/2000/svg" width="96.2" height="57.7" viewBox="0 0 96.2 57.7"><defs><style>.cls-1{fill:#d9dbff;}.cls-2{fill:#6364c2;}.cls-3{fill:#fff;}</style></defs><title>Asset 4</title><g id="Layer_2" data-name="Layer 2"><g id="Layer_1-2" data-name="Layer 1"><path class="cls-1" d="M14.8,0H90.5a5.8,5.8,0,0,1,5.7,5.9V48.7a5.8,5.8,0,0,1-5.7,5.8H14.8a5.7,5.7,0,0,1-5.6-5.8V5.9A5.7,5.7,0,0,1,14.8,0Z"/><rect class="cls-2" y="2.1" width="92.3" height="55.65" rx="6"/><path class="cls-3" d="M34.2,43.7a1,1,0,0,0-.4-.5L30,42c-1.3-.6-1.9-2.7-2-3.5a5.7,5.7,0,0,0,1.8-3.4c0-.5.1-.6.1-.6a1,1,0,0,0,.5-.4,9.6,9.6,0,0,0,.7-2.8v-.2a1.5,1.5,0,0,0-.6-.9V26.9c0-2.1-.7-2.9-1.3-3.4s-1.3-3-5.1-3a6.6,6.6,0,0,0-6.4,6.4v3.3a1.5,1.5,0,0,0-.6.9c-.1.1-.1.1-.1.2a14.3,14.3,0,0,0,.7,2.8c.1.1.2.3.4.4s.2.2.2.6a5.3,5.3,0,0,0,1.9,3.4c-.2.8-.8,2.9-2,3.5l-3.8,1.2c-.2,0-.4.2-.5.5-5.1-4.4-7.3-11.9-3.6-19.5A13.3,13.3,0,0,1,16.5,18c11.7-5.6,23.2,2.8,23.2,13.8A15.6,15.6,0,0,1,34.2,43.7Z"/><rect class="cls-3" x="49.8" y="13.7" width="34.3" height="3.69" rx="1.8"/><rect class="cls-3" x="49.7" y="22" width="34.3" height="3.69" rx="1.8"/><rect class="cls-3" x="49.7" y="38.8" width="34.3" height="3.69" rx="1.8"/><rect class="cls-3" x="49.7" y="30.6" width="23.3" height="3.69" rx="1.8"/></g></g></svg>