<svg width="10" height="14" viewBox="0 0 10 14" fill="none" xmlns="http://www.w3.org/2000/svg">
<path d="M4.48615 13.3612C0.702344 7.75118 0 7.17542 0 5.11364C0 2.28944 2.23857 0 5 0C7.76143 0 10 2.28944 10 5.11364C10 7.17542 9.29766 7.75118 5.51385 13.3612C5.26555 13.7281 4.73443 13.7281 4.48615 13.3612ZM5 7.24432C6.1506 7.24432 7.08333 6.29038 7.08333 5.11364C7.08333 3.93689 6.1506 2.98295 5 2.98295C3.8494 2.98295 2.91667 3.93689 2.91667 5.11364C2.91667 6.29038 3.8494 7.24432 5 7.24432Z" fill="black"/>
</svg>
