<svg xmlns="http://www.w3.org/2000/svg" width="10.972" height="12.539" viewBox="0 0 10.972 12.539">
  <path id="lock" d="M9.8,5.485a1.176,1.176,0,0,1,1.176,1.176v4.7A1.176,1.176,0,0,1,9.8,12.538H1.176A1.176,1.176,0,0,1,0,11.363v-4.7A1.176,1.176,0,0,1,1.176,5.485h.392V3.918A3.919,3.919,0,1,1,9.4,3.954V5.485ZM2.351,3.918V5.485h6.27V3.918a3.135,3.135,0,0,0-6.27,0ZM9.8,11.755a.393.393,0,0,0,.392-.392v-4.7A.393.393,0,0,0,9.8,6.269H1.176a.393.393,0,0,0-.392.392v4.7a.393.393,0,0,0,.392.392Z" transform="translate(0 0.001)" fill="#14bc63"/>
</svg>
