<svg width="13" height="16" viewBox="0 0 13 16" fill="none" xmlns="http://www.w3.org/2000/svg">
<path d="M1.39286 7.30737H2.08929V5.198C2.08929 2.74292 4.0683 0.744873 6.5 0.744873C8.9317 0.744873 10.9107 2.74292 10.9107 5.198V7.30737H11.6071C12.3761 7.30737 13 7.93726 13 8.71362V14.3386C13 15.115 12.3761 15.7449 11.6071 15.7449H1.39286C0.623884 15.7449 0 15.115 0 14.3386V8.71362C0 7.93726 0.623884 7.30737 1.39286 7.30737ZM4.41071 7.30737H8.58929V5.198C8.58929 4.03491 7.65201 3.08862 6.5 3.08862C5.34799 3.08862 4.41071 4.03491 4.41071 5.198V7.30737Z" fill="#FEFDE5"/>
</svg>
