<svg width="19" height="19" viewBox="0 0 19 19" fill="none" xmlns="http://www.w3.org/2000/svg">
<path d="M18.7816 4.43552V14.0671C18.7816 15.0762 18.1339 16.0852 17.1162 16.4521L12.4902 18.195C12.2127 18.2867 11.9351 18.3784 11.565 18.3784C11.1024 18.3784 10.5474 18.195 10.0848 17.9198C9.89971 17.7363 9.62218 17.5529 9.5296 17.3694H6.01389C4.6261 17.3694 3.42334 16.2686 3.42334 14.801V13.8837C3.42334 13.5168 3.7009 13.1498 4.1635 13.1498C4.6261 13.1498 4.90366 13.425 4.90366 13.8837V14.801C4.90366 15.4431 5.45877 15.9017 6.01389 15.9017H9.06701V2.69267H6.01389C5.36625 2.69267 4.90366 3.15132 4.90366 3.79342V4.71071C4.90366 5.07763 4.6261 5.44455 4.1635 5.44455C3.7009 5.44455 3.42334 5.07763 3.42334 4.71071V3.79342C3.42334 2.41748 4.53358 1.22499 6.01389 1.22499H9.5296C9.71466 1.04153 9.89971 0.858072 10.0848 0.674612C10.8249 0.215963 11.6576 0.124234 12.4902 0.399423L17.1162 2.14229C18.0414 2.41748 18.7816 3.4265 18.7816 4.43552Z" fill="black"/>
<path d="M2.82003 11.7998C2.63499 11.7998 2.44996 11.7081 2.35744 11.6163L0.507048 9.78175C0.414529 9.69 0.414529 9.59833 0.322011 9.59833C0.322011 9.50657 0.229492 9.41482 0.229492 9.32315C0.229492 9.23139 0.229492 9.13964 0.322011 9.04797C0.322011 8.95621 0.414529 8.86446 0.507048 8.86446L2.35744 7.02988C2.63499 6.75469 3.0976 6.75469 3.37515 7.02988C3.65271 7.30507 3.65271 7.76373 3.37515 8.03891L2.72751 8.68103H6.52081C6.89088 8.68103 7.26096 8.95621 7.26096 9.41482C7.26096 9.87351 6.89088 9.96527 6.52081 9.96527H2.63499L3.28263 10.6073C3.56019 10.8825 3.56019 11.3412 3.28263 11.6163C3.19011 11.7081 3.00507 11.7998 2.82003 11.7998Z" fill="black"/>
</svg>
