<svg width="12" height="18" viewBox="0 0 12 18" fill="none" xmlns="http://www.w3.org/2000/svg">
<path d="M9.87282 4.57164H8.85344V1.37137C8.85344 0.61528 8.26109 0 7.53287 0H3.97459C3.2465 0 2.65395 0.61528 2.65395 1.37137V4.57157H1.63464C0.997818 4.57157 0.481476 5.10777 0.481476 5.76909V14.8107C0.481476 15.4723 0.997951 16.0083 1.63464 16.0083H1.78927V16.8777C1.78927 17.0377 1.91415 17.1671 2.06791 17.1671H3.38662C3.54072 17.1671 3.6654 17.0375 3.6654 16.8777V16.0083H7.84173V16.8777C7.84173 17.0377 7.96674 17.1671 8.1205 17.1671H9.43908C9.59331 17.1671 9.71785 17.0375 9.71785 16.8777V16.0083H9.87268C10.5095 16.0083 11.0258 15.4721 11.0258 14.8107V5.76916C11.026 5.1077 10.5096 4.57164 9.87282 4.57164ZM7.97286 4.57157H3.5342V1.37137C3.5342 1.11934 3.73169 0.914245 3.97439 0.914245H7.53267C7.77536 0.914245 7.97286 1.11934 7.97286 1.37137V4.57157Z" fill="#7173C8"/>
</svg>
