<svg width="18" height="14" viewBox="0 0 18 14" fill="none" xmlns="http://www.w3.org/2000/svg">
<path d="M1.2915 4.65348V11.1311C1.2915 12.3818 2.30543 13.3958 3.55616 13.3958H14.8795C16.1302 13.3958 17.1441 12.3818 17.1441 11.1311V4.65348M1.2915 4.65348L8.03091 8.80081M1.2915 4.65348V3.20478C1.2915 1.95405 2.30543 0.940125 3.55616 0.940125H14.8795C16.1302 0.940125 17.1441 1.95405 17.1441 3.20478V4.65348M17.1441 4.65348L10.4047 8.80081M10.4047 8.80081C9.58447 9.1135 8.85421 9.18957 8.03091 8.80081M10.4047 8.80081C9.93438 9.078 8.65643 9.20478 8.03091 8.80081" stroke="#0F172A"/>
</svg>
