<svg id="Layer_1" data-name="Layer 1" xmlns="http://www.w3.org/2000/svg" width="17.4" height="17.4" viewBox="0 0 17.4 17.4"><title>1</title><g id="user-setting"><path d="M13.7,17.4H12.3V15.8a.9.9,0,0,1-.7-.3l-1.1,1.1-1-1,1.1-1.1a1.1,1.1,0,0,1-.3-.7H8.7V12.4h1.5a2.6,2.6,0,0,1,.3-.8l-1.1-1,1-1.1,1.1,1.1.7-.3V8.7h1.5v1.5c.3.1.5.1.7.3l1.1-1.1,1,1-1,1.2.3.7h1.6v1.4H15.8a1.3,1.3,0,0,1-.3.8l1.1,1-1,1.1-1.1-1.1-.8.3ZM13,11.6A1.4,1.4,0,0,0,11.6,13,1.5,1.5,0,0,0,13,14.5,1.5,1.5,0,0,0,14.5,13,1.5,1.5,0,0,0,13,11.6Z"/><path d="M1.4,13.7a5,5,0,0,1,5.1-5,4.2,4.2,0,0,1,2.6.6l.7-1.2c-.2-.1-.5-.2-.6-.4a4.3,4.3,0,0,0,1.6-3.4,4.3,4.3,0,0,0-8.6,0A4.3,4.3,0,0,0,3.9,7.8,6.5,6.5,0,0,0,0,13.7v3.7H8V15.9H1.4ZM3.6,4.3A2.9,2.9,0,1,1,6.5,7.2,2.9,2.9,0,0,1,3.6,4.3Z"/></g></svg>