<svg width="190" height="187" viewBox="0 0 190 187" fill="none" xmlns="http://www.w3.org/2000/svg">
<rect width="190" height="187" fill="#F3F3F3"/>
<path d="M66.0874 87.9091V101H63.6967L58.0014 92.7607H57.9055V101H55.1378V87.9091H57.5668L63.2173 96.142H63.3324V87.9091H66.0874ZM72.7591 101.192C71.7662 101.192 70.9075 100.981 70.1831 100.559C69.4629 100.133 68.9068 99.5405 68.5147 98.782C68.1227 98.0192 67.9267 97.1349 67.9267 96.1293C67.9267 95.1151 68.1227 94.2287 68.5147 93.4702C68.9068 92.7074 69.4629 92.1151 70.1831 91.6932C70.9075 91.267 71.7662 91.054 72.7591 91.054C73.752 91.054 74.6085 91.267 75.3287 91.6932C76.0531 92.1151 76.6113 92.7074 77.0034 93.4702C77.3954 94.2287 77.5914 95.1151 77.5914 96.1293C77.5914 97.1349 77.3954 98.0192 77.0034 98.782C76.6113 99.5405 76.0531 100.133 75.3287 100.559C74.6085 100.981 73.752 101.192 72.7591 101.192ZM72.7718 99.0824C73.2235 99.0824 73.6007 98.9545 73.9032 98.6989C74.2058 98.4389 74.4338 98.0852 74.5872 97.6378C74.7449 97.1903 74.8237 96.6811 74.8237 96.1101C74.8237 95.5391 74.7449 95.0298 74.5872 94.5824C74.4338 94.1349 74.2058 93.7812 73.9032 93.5213C73.6007 93.2614 73.2235 93.1314 72.7718 93.1314C72.3159 93.1314 71.9324 93.2614 71.6213 93.5213C71.3145 93.7812 71.0822 94.1349 70.9245 94.5824C70.7711 95.0298 70.6944 95.5391 70.6944 96.1101C70.6944 96.6811 70.7711 97.1903 70.9245 97.6378C71.0822 98.0852 71.3145 98.4389 71.6213 98.6989C71.9324 98.9545 72.3159 99.0824 72.7718 99.0824ZM86.3469 87.9091V101H83.5792V87.9091H86.3469ZM88.573 101V91.1818H91.1681V92.9141H91.2832C91.4877 92.3388 91.8287 91.8849 92.3059 91.5526C92.7832 91.2202 93.3542 91.054 94.019 91.054C94.6923 91.054 95.2654 91.2223 95.7385 91.5589C96.2115 91.8913 96.5268 92.343 96.6845 92.9141H96.7868C96.987 92.3516 97.3493 91.902 97.8734 91.5653C98.4018 91.2244 99.0261 91.054 99.7463 91.054C100.662 91.054 101.406 91.3459 101.977 91.9297C102.552 92.5092 102.84 93.3317 102.84 94.397V101H100.123V94.9339C100.123 94.3885 99.9785 93.9794 99.6887 93.7067C99.399 93.4339 99.0368 93.2976 98.6021 93.2976C98.1078 93.2976 97.7221 93.4553 97.4451 93.7706C97.1681 94.0817 97.0297 94.4929 97.0297 95.0043V101H94.3897V94.8764C94.3897 94.3949 94.2512 94.0114 93.9743 93.7259C93.7015 93.4403 93.3414 93.2976 92.894 93.2976C92.5914 93.2976 92.3187 93.3743 92.0758 93.5277C91.8372 93.6768 91.6475 93.8878 91.5069 94.1605C91.3663 94.429 91.296 94.7443 91.296 95.1065V101H88.573ZM107.791 101.185C107.164 101.185 106.606 101.077 106.116 100.859C105.626 100.638 105.238 100.312 104.953 99.8814C104.671 99.4467 104.531 98.9055 104.531 98.2578C104.531 97.7124 104.631 97.2543 104.831 96.8835C105.031 96.5128 105.304 96.2145 105.649 95.9886C105.994 95.7628 106.387 95.5923 106.825 95.4773C107.269 95.3622 107.733 95.2812 108.219 95.2344C108.79 95.1747 109.25 95.1193 109.6 95.0682C109.949 95.0128 110.203 94.9318 110.36 94.8253C110.518 94.7187 110.597 94.5611 110.597 94.3523V94.3139C110.597 93.9091 110.469 93.5959 110.213 93.3743C109.962 93.1527 109.604 93.0419 109.139 93.0419C108.649 93.0419 108.259 93.1506 107.97 93.3679C107.68 93.581 107.488 93.8494 107.394 94.1733L104.876 93.9688C105.004 93.3722 105.255 92.8565 105.63 92.4219C106.005 91.983 106.489 91.6463 107.081 91.4119C107.678 91.1733 108.368 91.054 109.152 91.054C109.698 91.054 110.22 91.1179 110.718 91.2457C111.221 91.3736 111.666 91.5717 112.054 91.8402C112.446 92.1087 112.755 92.4538 112.981 92.8757C113.207 93.2933 113.32 93.794 113.32 94.3778V101H110.737V99.6385H110.661C110.503 99.9453 110.292 100.216 110.028 100.45C109.764 100.68 109.446 100.862 109.075 100.994C108.705 101.121 108.276 101.185 107.791 101.185ZM108.57 99.3061C108.971 99.3061 109.325 99.2273 109.632 99.0696C109.938 98.9077 110.179 98.6903 110.354 98.4176C110.529 98.1449 110.616 97.8359 110.616 97.4908V96.4489C110.531 96.5043 110.414 96.5554 110.264 96.6023C110.119 96.6449 109.955 96.6854 109.772 96.7237C109.589 96.7578 109.406 96.7898 109.222 96.8196C109.039 96.8452 108.873 96.8686 108.724 96.8899C108.404 96.9368 108.125 97.0114 107.887 97.1136C107.648 97.2159 107.463 97.3544 107.33 97.5291C107.198 97.6996 107.132 97.9126 107.132 98.1683C107.132 98.5391 107.267 98.8224 107.535 99.0185C107.808 99.2102 108.153 99.3061 108.57 99.3061ZM119.856 104.886C118.974 104.886 118.217 104.765 117.586 104.522C116.96 104.283 116.461 103.957 116.091 103.544C115.72 103.131 115.479 102.666 115.368 102.151L117.887 101.812C117.964 102.008 118.085 102.191 118.251 102.362C118.417 102.532 118.637 102.668 118.91 102.771C119.187 102.877 119.523 102.93 119.92 102.93C120.512 102.93 121 102.786 121.383 102.496C121.771 102.21 121.965 101.731 121.965 101.058V99.2614H121.85C121.731 99.5341 121.552 99.7919 121.313 100.035C121.074 100.278 120.768 100.476 120.393 100.629C120.018 100.783 119.57 100.859 119.05 100.859C118.313 100.859 117.642 100.689 117.037 100.348C116.436 100.003 115.956 99.4766 115.599 98.7692C115.245 98.0575 115.068 97.1584 115.068 96.0717C115.068 94.9595 115.249 94.0305 115.611 93.2848C115.974 92.5391 116.455 91.9808 117.056 91.6101C117.661 91.2393 118.324 91.054 119.044 91.054C119.594 91.054 120.054 91.1477 120.425 91.3352C120.795 91.5185 121.094 91.7486 121.319 92.0256C121.55 92.2983 121.726 92.5668 121.85 92.831H121.952V91.1818H124.656V101.096C124.656 101.931 124.452 102.63 124.042 103.192C123.633 103.755 123.067 104.177 122.342 104.458C121.622 104.744 120.793 104.886 119.856 104.886ZM119.913 98.8139C120.352 98.8139 120.723 98.7053 121.025 98.4879C121.332 98.2663 121.567 97.951 121.729 97.5419C121.895 97.1286 121.978 96.6342 121.978 96.0589C121.978 95.4837 121.897 94.9851 121.735 94.5632C121.573 94.1371 121.339 93.8068 121.032 93.5724C120.725 93.3381 120.352 93.2209 119.913 93.2209C119.466 93.2209 119.089 93.3423 118.782 93.5852C118.475 93.8239 118.243 94.1562 118.085 94.5824C117.927 95.0085 117.849 95.5007 117.849 96.0589C117.849 96.6257 117.927 97.1158 118.085 97.5291C118.247 97.9382 118.479 98.2557 118.782 98.4815C119.089 98.7031 119.466 98.8139 119.913 98.8139ZM131.297 101.192C130.287 101.192 129.418 100.987 128.689 100.578C127.965 100.165 127.407 99.581 127.015 98.8267C126.623 98.0682 126.427 97.1712 126.427 96.1357C126.427 95.1257 126.623 94.2393 127.015 93.4766C127.407 92.7138 127.959 92.1193 128.67 91.6932C129.386 91.267 130.226 91.054 131.189 91.054C131.836 91.054 132.439 91.1584 132.998 91.3672C133.56 91.5717 134.05 91.8807 134.468 92.294C134.89 92.7074 135.218 93.2273 135.452 93.8537C135.687 94.4759 135.804 95.2045 135.804 96.0398V96.7876H127.513V95.1001H133.241C133.241 94.7081 133.155 94.3608 132.985 94.0582C132.814 93.7557 132.578 93.5192 132.275 93.3487C131.977 93.174 131.63 93.0866 131.233 93.0866C130.82 93.0866 130.454 93.1825 130.134 93.3743C129.819 93.5618 129.572 93.8153 129.393 94.1349C129.214 94.4503 129.122 94.8018 129.118 95.1896V96.794C129.118 97.2798 129.207 97.6996 129.386 98.0533C129.569 98.407 129.827 98.6797 130.16 98.8714C130.492 99.0632 130.886 99.1591 131.342 99.1591C131.645 99.1591 131.922 99.1165 132.173 99.0312C132.425 98.946 132.64 98.8182 132.819 98.6477C132.998 98.4773 133.134 98.2685 133.228 98.0213L135.746 98.1875C135.618 98.7926 135.356 99.321 134.96 99.7727C134.568 100.22 134.061 100.57 133.439 100.821C132.821 101.068 132.107 101.192 131.297 101.192Z" fill="#C5C5C5"/>
</svg>
