<svg width="12" height="14" viewBox="0 0 12 14" fill="none" xmlns="http://www.w3.org/2000/svg">
<path d="M9.64286 0.583333L10.7143 1.45833C10.7792 1.52315 10.8604 1.55556 10.9578 1.55556C11.0552 1.55556 11.1364 1.50694 11.2013 1.40972C11.2662 1.3125 11.2987 1.23148 11.2987 1.16667C11.2987 1.10185 11.2338 1.03704 11.1039 0.972222L10.0325 0.0972222C9.96753 0.0324074 9.88636 0 9.78896 0C9.69156 0 9.61039 0.0324074 9.54545 0.0972222C9.48052 0.162037 9.46429 0.243056 9.49675 0.340278C9.52922 0.4375 9.57792 0.518519 9.64286 0.583333ZM0.779221 1.55556C0.844156 1.55556 0.909091 1.52315 0.974026 1.45833L2.04545 0.583333C2.11039 0.518519 2.15909 0.4375 2.19156 0.340278C2.22403 0.243056 2.20779 0.162037 2.14286 0.0972222C2.07792 0.0324074 1.99675 0 1.89935 0H1.65584L0.487013 0.972222C0.422078 1.03704 0.38961 1.10185 0.38961 1.16667C0.38961 1.23148 0.422078 1.3125 0.487013 1.40972C0.551948 1.50694 0.649351 1.55556 0.779221 1.55556ZM9.44805 11.6667C10.1623 11.0833 10.7305 10.3866 11.1526 9.57639C11.5747 8.7662 11.7857 7.875 11.7857 6.90278C11.7857 5.93056 11.5097 4.99074 10.9578 4.08333C10.4058 3.17593 9.69156 2.46296 8.81493 1.94444C7.93831 1.42593 6.96429 1.16667 5.89286 1.16667C4.82143 1.16667 3.83117 1.42593 2.92208 1.94444C2.01299 2.46296 1.2987 3.17593 0.779221 4.08333C0.25974 4.99074 0 5.93056 0 6.90278C0 7.875 0.194805 8.78241 0.584416 9.625C0.974026 10.4676 1.55844 11.1481 2.33766 11.6667L0.681818 13.4167C0.616883 13.4815 0.584416 13.5625 0.584416 13.6597C0.584416 13.7569 0.616883 13.838 0.681818 13.9028C0.746753 13.9676 0.811688 14 0.876623 14C0.941558 14 1.00649 13.9676 1.07143 13.9028L2.82468 12.0556C3.73377 12.5741 4.72403 12.8333 5.79545 12.8333C6.86688 12.8333 7.88961 12.5741 8.86364 12.0556L10.6169 13.9028C10.6818 13.9676 10.7468 14 10.8117 14C10.8766 14 10.9416 13.9676 11.0065 13.9028C11.0714 13.838 11.1201 13.7569 11.1526 13.6597C11.1851 13.5625 11.1688 13.4815 11.1039 13.4167L9.44805 11.6667ZM0.584416 7C0.584416 6.02778 0.827922 5.15278 1.31494 4.375C1.80195 3.59722 2.43506 2.96528 3.21429 2.47917C3.99351 1.99306 4.87013 1.75 5.84416 1.75C6.81818 1.75 7.69481 1.99306 8.47403 2.47917C9.25325 2.96528 9.88636 3.59722 10.3734 4.375C10.8604 5.15278 11.1039 6.01157 11.1039 6.95139C11.1039 7.8912 10.8604 8.7662 10.3734 9.57639C9.88636 10.3866 9.23701 11.0347 8.42532 11.5208C7.61364 12.0069 6.75325 12.25 5.84416 12.25C4.93506 12.25 4.07468 12.0069 3.26299 11.5208C2.4513 11.0347 1.80195 10.3866 1.31494 9.57639C0.827922 8.7662 0.584416 7.90741 0.584416 7ZM8.66883 6.70833H6.13636V4.18056C6.13636 4.11574 6.1039 4.05093 6.03896 3.98611C5.97403 3.9213 5.90909 3.88889 5.84416 3.88889C5.77922 3.88889 5.71429 3.9213 5.64935 3.98611C5.58442 4.05093 5.55195 4.11574 5.55195 4.18056V7C5.55195 7.06482 5.58442 7.12963 5.64935 7.19444C5.71429 7.25926 5.77922 7.29167 5.84416 7.29167H8.66883C8.7987 7.29167 8.8961 7.25926 8.96104 7.19444C9.02597 7.12963 9.05844 7.06482 9.05844 7C9.05844 6.93519 9.02597 6.87037 8.96104 6.80556C8.8961 6.74074 8.7987 6.70833 8.66883 6.70833Z" fill="#EF6A00"/>
</svg>
