<svg width="35" height="17" viewBox="0 0 35 17" fill="none" xmlns="http://www.w3.org/2000/svg">
<path d="M17.1951 0H11.4634C11.3821 0 11.3008 0.0393518 11.2195 0.118056C11.1382 0.196759 11.0975 0.295139 11.0975 0.413194C11.0975 0.53125 11.1382 0.62963 11.2195 0.708333C11.3008 0.787037 11.3821 0.826389 11.4634 0.826389H17.317L1.34143 16.2917C1.26013 16.3704 1.21948 16.4688 1.21948 16.5868C1.21948 16.7049 1.26013 16.8032 1.34143 16.8819C1.42273 16.9606 1.52436 17 1.64631 17C1.76826 17 1.86989 16.9606 1.95119 16.8819L17.9268 1.41667V6.96528C17.9268 7.12268 17.9675 7.24074 18.0488 7.31944C18.1301 7.39815 18.2317 7.4375 18.3536 7.4375C18.4756 7.4375 18.5772 7.39815 18.6585 7.31944C18.7398 7.24074 18.7805 7.12268 18.7805 6.96528V1.53472C18.7805 1.1412 18.6179 0.787037 18.2927 0.472222C17.9675 0.157407 17.6016 0 17.1951 0Z" fill="black"/>
<path d="M32.1951 0H26.4634C26.3821 0 26.3008 0.0393518 26.2195 0.118056C26.1382 0.196759 26.0975 0.295139 26.0975 0.413194C26.0975 0.53125 26.1382 0.62963 26.2195 0.708333C26.3008 0.787037 26.3821 0.826389 26.4634 0.826389H32.317L16.3414 16.2917C16.2601 16.3704 16.2195 16.4688 16.2195 16.5868C16.2195 16.7049 16.2601 16.8032 16.3414 16.8819C16.4227 16.9606 16.5244 17 16.6463 17C16.7683 17 16.8699 16.9606 16.9512 16.8819L32.9268 1.41667V6.96528C32.9268 7.12268 32.9675 7.24074 33.0488 7.31944C33.1301 7.39815 33.2317 7.4375 33.3536 7.4375C33.4756 7.4375 33.5772 7.39815 33.6585 7.31944C33.7398 7.24074 33.7805 7.12268 33.7805 6.96528V1.53472C33.7805 1.1412 33.6179 0.787037 33.2927 0.472222C32.9675 0.157407 32.6016 0 32.1951 0Z" fill="black"/>
</svg>
