<svg width="25" height="24" viewBox="0 0 25 24" fill="none" xmlns="http://www.w3.org/2000/svg">
<path d="M12.3781 0C10.205 0 8.18574 0.548077 6.32036 1.64423C4.51267 2.70192 3.07997 4.13462 2.02228 5.94231C0.926129 7.80769 0.378052 9.82692 0.378052 12C0.378052 14.1731 0.926129 16.1923 2.02228 18.0577C3.07997 19.8654 4.51267 21.2981 6.32036 22.3558C8.18574 23.4519 10.205 24 12.3781 24C14.5511 24 16.5704 23.4519 18.4357 22.3558C20.2434 21.2981 21.6761 19.8654 22.7338 18.0577C23.83 16.1923 24.3781 14.1731 24.3781 12C24.3781 9.82692 23.83 7.80769 22.7338 5.94231C21.6761 4.13462 20.2434 2.70192 18.4357 1.64423C16.5704 0.548077 14.5511 0 12.3781 0ZM12.3781 1.84615C14.2242 1.84615 15.9357 2.30769 17.5127 3.23077C19.0319 4.13462 20.2434 5.34615 21.1473 6.86538C22.0704 8.44231 22.5319 10.1538 22.5319 12C22.5319 13.8462 22.0704 15.5577 21.1473 17.1346C20.2434 18.6538 19.0319 19.8654 17.5127 20.7692C15.9357 21.6923 14.2242 22.1538 12.3781 22.1538C10.5319 22.1538 8.82036 21.6923 7.24344 20.7692C5.72421 19.8654 4.51267 18.6538 3.60882 17.1346C2.68574 15.5577 2.22421 13.8462 2.22421 12C2.22421 10.1538 2.68574 8.44231 3.60882 6.86538C4.51267 5.34615 5.72421 4.13462 7.24344 3.23077C8.82036 2.30769 10.5319 1.84615 12.3781 1.84615ZM12.3781 4.61538C11.5511 4.61538 10.7819 4.82212 10.0704 5.23558C9.35882 5.64904 8.79632 6.21154 8.38286 6.92308C7.9694 7.63462 7.76267 8.40385 7.76267 9.23077C7.76267 9.90385 7.9069 10.5433 8.19536 11.149C8.48382 11.7548 8.88767 12.2788 9.4069 12.7212C8.34921 13.2596 7.50305 14.0433 6.86844 15.0721C6.23382 16.101 5.91651 17.2308 5.91651 18.4615H7.76267C7.76267 17.6154 7.9694 16.8413 8.38286 16.1394C8.79632 15.4375 9.35401 14.8798 10.0559 14.4663C10.7579 14.0529 11.5319 13.8462 12.3781 13.8462C13.2242 13.8462 13.9982 14.0529 14.7002 14.4663C15.4021 14.8798 15.9598 15.4375 16.3732 16.1394C16.7867 16.8413 16.9934 17.6154 16.9934 18.4615H18.8396C18.8396 17.2308 18.5223 16.101 17.8877 15.0721C17.2531 14.0433 16.4069 13.2596 15.3492 12.7212C15.8684 12.2788 16.2723 11.7548 16.5607 11.149C16.8492 10.5433 16.9934 9.90385 16.9934 9.23077C16.9934 8.40385 16.7867 7.63462 16.3732 6.92308C15.9598 6.21154 15.3973 5.64904 14.6857 5.23558C13.9742 4.82212 13.205 4.61538 12.3781 4.61538ZM12.3781 6.46154C13.1473 6.46154 13.8011 6.73077 14.3396 7.26923C14.8781 7.80769 15.1473 8.46154 15.1473 9.23077C15.1473 10 14.8781 10.6538 14.3396 11.1923C13.8011 11.7308 13.1473 12 12.3781 12C11.6088 12 10.955 11.7308 10.4165 11.1923C9.87805 10.6538 9.60882 10 9.60882 9.23077C9.60882 8.46154 9.87805 7.80769 10.4165 7.26923C10.955 6.73077 11.6088 6.46154 12.3781 6.46154Z" fill="#2B2B2B"/>
</svg>
