<svg width="33" height="17" viewBox="0 0 33 17" fill="none" xmlns="http://www.w3.org/2000/svg">
<g clip-path="url(#clip0_207_375)">
<path d="M2.80491 17L8.53662 17C8.61792 17 8.69922 16.9606 8.78052 16.8819C8.86182 16.8032 8.90247 16.7049 8.90247 16.5868C8.90247 16.4688 8.86182 16.3704 8.78052 16.2917C8.69922 16.213 8.61792 16.1736 8.53662 16.1736L2.68296 16.1736L18.6586 0.708334C18.7399 0.629629 18.7805 0.53125 18.7805 0.413195C18.7805 0.295139 18.7399 0.19676 18.6586 0.118055C18.5773 0.0393524 18.4756 2.66533e-08 18.3537 3.73146e-08C18.2317 4.79759e-08 18.1301 0.0393525 18.0488 0.118055L2.0732 15.5833L2.0732 10.0347C2.0732 9.87732 2.03255 9.75926 1.95125 9.68056C1.86995 9.60185 1.76832 9.5625 1.64637 9.5625C1.52442 9.5625 1.42279 9.60185 1.34149 9.68056C1.26019 9.75926 1.21954 9.87732 1.21954 10.0347L1.21954 15.4653C1.21954 15.8588 1.38214 16.213 1.70735 16.5278C2.03255 16.8426 2.3984 17 2.80491 17Z" fill="black"/>
</g>
<g clip-path="url(#clip1_207_375)">
<path d="M15.8049 17L21.5366 17C21.6179 17 21.6992 16.9606 21.7805 16.8819C21.8618 16.8032 21.9025 16.7049 21.9025 16.5868C21.9025 16.4688 21.8618 16.3704 21.7805 16.2917C21.6992 16.213 21.6179 16.1736 21.5366 16.1736L15.683 16.1736L31.6586 0.708334C31.7399 0.629629 31.7805 0.53125 31.7805 0.413195C31.7805 0.295139 31.7399 0.19676 31.6586 0.118055C31.5773 0.0393524 31.4756 2.66533e-08 31.3537 3.73146e-08C31.2317 4.79759e-08 31.1301 0.0393525 31.0488 0.118055L15.0732 15.5833L15.0732 10.0347C15.0732 9.87732 15.0325 9.75926 14.9512 9.68056C14.8699 9.60185 14.7683 9.5625 14.6464 9.5625C14.5244 9.5625 14.4228 9.60185 14.3415 9.68056C14.2602 9.75926 14.2195 9.87732 14.2195 10.0347L14.2195 15.4653C14.2195 15.8588 14.3821 16.213 14.7073 16.5278C15.0325 16.8426 15.3984 17 15.8049 17Z" fill="black"/>
</g>
<defs>
<clipPath id="clip0_207_375">
<rect width="20" height="17" fill="white" transform="translate(20 17) rotate(180)"/>
</clipPath>
<clipPath id="clip1_207_375">
<rect width="20" height="17" fill="white" transform="translate(33 17) rotate(180)"/>
</clipPath>
</defs>
</svg>
