<svg width="43" height="17" viewBox="0 0 43 17" fill="none" xmlns="http://www.w3.org/2000/svg">
<path id="Vector" d="M1.24043 10.4309L6.4715 16.3149C6.4715 16.5111 6.61681 16.6091 6.90742 16.6091C7.19804 16.6091 7.44022 16.5601 7.63397 16.462C7.82771 16.364 7.97302 16.1678 8.06989 15.8736C8.16676 15.5794 8.11832 15.3342 7.92458 15.1381L3.27474 9.25405L41.636 9.25405C41.8297 9.25405 42.0235 9.15598 42.2172 8.95985C42.4109 8.76371 42.5078 8.56758 42.5078 8.37144C42.5078 8.17531 42.4109 7.97917 42.2172 7.78304C42.0235 7.5869 41.8297 7.48883 41.636 7.48883L3.27474 7.48883L7.92458 1.60476C8.11833 1.40863 8.16676 1.16346 8.06989 0.869257C7.97302 0.575053 7.82771 0.378918 7.63397 0.28085C7.44023 0.182782 7.19804 0.133748 6.90743 0.133748C6.61681 0.133748 6.47151 0.231818 6.47151 0.427952L1.24043 6.31201C0.85294 6.90042 -0.00325315 7.5869 -0.00325322 8.37144C-0.00325329 9.15598 0.85294 9.84245 1.24043 10.4309Z" fill="black"/>
</svg>
