<svg width="25" height="10" viewBox="0 0 25 10" fill="none" xmlns="http://www.w3.org/2000/svg">
<path d="M24.0244 3.83334L21.061 0.50001C21.061 0.388899 20.9787 0.333344 20.814 0.333344C20.6494 0.333344 20.5122 0.361121 20.4025 0.416677C20.2927 0.472232 20.2104 0.583343 20.1555 0.75001C20.1006 0.916677 20.1281 1.05557 20.2378 1.16668L22.872 4.50001H1.14026C1.03051 4.50001 0.920753 4.55557 0.810996 4.66668C0.70124 4.77779 0.646362 4.8889 0.646362 5.00001C0.646362 5.11112 0.70124 5.22223 0.810996 5.33334C0.920753 5.44445 1.03051 5.50001 1.14026 5.50001H22.872L20.2378 8.83334C20.1281 8.94445 20.1006 9.08334 20.1555 9.25001C20.2104 9.41668 20.2927 9.52779 20.4025 9.58334C20.5122 9.6389 20.6494 9.66668 20.814 9.66668C20.9787 9.66668 21.061 9.61112 21.061 9.50001L24.0244 6.16668C24.2439 5.83334 24.3537 5.44445 24.3537 5.00001C24.3537 4.55557 24.2439 4.16668 24.0244 3.83334Z" fill="#EF6A00"/>
</svg>
