<svg xmlns="http://www.w3.org/2000/svg" width="69.7" height="88" viewBox="0 0 69.7 88"><defs><style>.cls-1{fill:#ff7e67;}.cls-2{fill:#dcdeff;}.cls-3{fill:#6364c2;}</style></defs><title>icon-1</title><g id="color"><rect class="cls-1" x="34.7" y="32.9" width="15" height="24.03" rx="1.8"/><rect class="cls-2" x="24" y="20.5" width="25.6" height="41.14" rx="1.8"/></g><g id="icons"><path class="cls-3" d="M54.8,31.3l-3.3-24A8.4,8.4,0,0,0,43.1,0H26.4A8.4,8.4,0,0,0,18,7.3L14.8,31.1V53.6l2.6,11.9a10,10,0,0,0,9.7,7.8H42.4a10,10,0,0,0,9.8-7.8l2.5-11.3ZM21.3,7.7a5.1,5.1,0,0,1,5.1-4.4V5.4h5.5V3.3h5.2V5.4h5.5V3.3h.5a5.3,5.3,0,0,1,5.2,4.4L50,20.9l-8.3,6.4H29.4l-1,.2-8.9-6.9ZM41,30.6V51.1c0,.1-.1.1-.2.1H29.4a.1.1,0,0,1-.1-.1V30.6H41ZM51.5,53.7,49,64.8l-.3.9h-5V69h2.1a6.5,6.5,0,0,1-3.4,1H27.1a6.7,6.7,0,0,1-3.4-1h1.8V65.7H20.9a2.9,2.9,0,0,1-.3-1L18.1,53.4v-22l.9-7.1,7.1,5.5c0,.3-.1.5-.1.8V51.1a3.4,3.4,0,0,0,3.4,3.4H40.8a3.5,3.5,0,0,0,3.5-3.4V30.6a2.9,2.9,0,0,0-.2-.9l6.4-5,1,6.7Z"/><rect class="cls-3" x="29" y="18" width="12.2" height="3.3"/><rect class="cls-3" x="28.4" y="58.3" width="13.5" height="3.3"/><rect class="cls-3" x="7.4" y="19.6" width="4.9" height="3.3"/><rect class="cls-3" x="57.4" y="19.6" width="4.9" height="3.3"/><path class="cls-3" d="M3.3,71.6H0A16.5,16.5,0,0,0,16.6,88V84.7A13.3,13.3,0,0,1,3.3,71.6Z"/><path class="cls-3" d="M12.7,71.6H9.4a7.1,7.1,0,0,0,7.2,7.1V75.4A3.8,3.8,0,0,1,12.7,71.6Z"/><path class="cls-3" d="M66.4,71.6A13.2,13.2,0,0,1,53.1,84.7V88A16.5,16.5,0,0,0,69.7,71.6Z"/><path class="cls-3" d="M53.1,78.7a7.1,7.1,0,0,0,7.2-7.1H57a3.8,3.8,0,0,1-3.9,3.8Z"/></g></svg>