<svg width="13" height="15" viewBox="0 0 13 15" fill="none" xmlns="http://www.w3.org/2000/svg">
<path d="M12.5616 10.2908C12.5175 8.67199 12.4292 7.65448 12.2086 6.77572C12.0983 6.31321 12.0101 6.10508 11.9439 5.94321C11.8777 5.78133 11.8556 5.68883 11.7895 5.41132C11.7233 4.99507 11.7012 4.64819 11.6792 4.30131C11.6792 4.27818 11.6792 4.23193 11.6792 4.20881L11.8336 3.60755C11.8998 3.30692 11.8336 3.00629 11.635 2.77504L10.8629 1.94253C10.532 1.5494 10.1349 1.22564 9.67157 0.994388C9.47302 0.901887 9.25241 0.971263 9.16416 1.17939C9.07592 1.38752 9.1421 1.61877 9.34065 1.71127C9.67157 1.89628 9.95837 2.1044 10.2231 2.38191C10.2452 2.54378 10.2452 2.72879 10.2672 2.86754C10.2893 3.09879 10.3555 3.30692 10.4658 3.51505L10.9291 4.16256C10.9291 4.23193 10.9291 4.27818 10.9291 4.34756C10.9511 4.69444 10.9511 5.08757 11.0394 5.5732C11.1056 5.94321 11.1717 6.10508 11.2379 6.26696C11.3041 6.40571 11.3703 6.59071 11.4806 7.00697C11.635 7.60823 11.7674 8.41761 11.8115 10.337C11.8557 12.3027 11.5909 12.5802 11.5468 12.6033C11.3924 12.6958 11.1497 12.7189 10.9732 12.6264C10.554 12.4183 10.4437 11.5164 10.3775 10.7995C10.3114 10.1983 10.3334 9.75888 10.3555 9.36575C10.3775 8.81074 10.3996 8.32511 10.1128 7.79323C9.87013 7.35385 9.47302 7.00697 8.94355 6.75259L8.89943 0.647509C8.89943 0.277504 8.61263 0 8.28171 0L1.44268 0.0231253C1.0897 0.0231253 0.824961 0.323754 0.824961 0.670634L0.847022 13.2739C0.847022 13.4589 0.692592 13.6208 0.516101 13.6208C0.33961 13.6208 0.185181 13.7827 0.185181 13.9677V14.2452C0.185181 14.4302 0.33961 14.5921 0.516101 14.5921L9.25241 14.5689C9.4289 14.5689 9.58333 14.4071 9.58333 14.2221V13.9446C9.58333 13.7596 9.4289 13.5977 9.25241 13.5977C9.07592 13.5977 8.92149 13.4358 8.92149 13.2508L8.89943 7.63135C9.12004 7.7701 9.29653 7.95511 9.40684 8.16323C9.58333 8.46386 9.58333 8.71824 9.53921 9.27325C9.51714 9.66638 9.49508 10.1751 9.56127 10.8458C9.64951 11.7708 9.75982 12.9039 10.5761 13.3202C10.7746 13.4127 10.9953 13.4589 11.1938 13.4589C11.4365 13.4589 11.7012 13.3896 11.8998 13.2508C12.341 12.9964 12.6057 12.3952 12.5616 10.2908ZM7.06833 5.43445L2.65606 5.45757C2.30307 5.45757 2.03834 5.15694 2.03834 4.81006V2.17378C2.03834 1.80377 2.32513 1.52627 2.65606 1.52627L7.06833 1.50315C7.42131 1.50315 7.68605 1.80377 7.68605 2.15065V4.78694C7.68605 5.13382 7.42131 5.43445 7.06833 5.43445Z" fill="#7173C8"/>
</svg>
