<?xml version="1.0" encoding="UTF-8" standalone="no"?>
<svg
   xmlns:dc="http://purl.org/dc/elements/1.1/"
   xmlns:cc="http://creativecommons.org/ns#"
   xmlns:rdf="http://www.w3.org/1999/02/22-rdf-syntax-ns#"
   xmlns:svg="http://www.w3.org/2000/svg"
   xmlns="http://www.w3.org/2000/svg"
   xmlns:sodipodi="http://sodipodi.sourceforge.net/DTD/sodipodi-0.dtd"
   xmlns:inkscape="http://www.inkscape.org/namespaces/inkscape"
   version="1.1"
   viewBox="-10 0 833.88232 833.25"
   id="svg4"
   sodipodi:docname="phone_la-solid-900.svg"
   width="833.88232"
   height="833.25"
   inkscape:version="0.92.5 (2060ec1f9f, 2020-04-08)">
  <metadata
     id="metadata10">
    <rdf:RDF>
      <cc:Work
         rdf:about="">
        <dc:format>image/svg+xml</dc:format>
        <dc:type
           rdf:resource="http://purl.org/dc/dcmitype/StillImage" />
      </cc:Work>
    </rdf:RDF>
  </metadata>
  <defs
     id="defs8" />
  <sodipodi:namedview
     pagecolor="#ffffff"
     bordercolor="#666666"
     borderopacity="1"
     objecttolerance="10"
     gridtolerance="10"
     guidetolerance="10"
     inkscape:pageopacity="0"
     inkscape:pageshadow="2"
     inkscape:window-width="1920"
     inkscape:window-height="1027"
     id="namedview6"
     showgrid="false"
     inkscape:zoom="0.23046875"
     inkscape:cx="-128.32104"
     inkscape:cy="417.25"
     inkscape:window-x="-8"
     inkscape:window-y="-8"
     inkscape:window-maximized="1"
     inkscape:current-layer="svg4" />
  <path
     d="m 171.88235,0 q -26,0 -47,17 l -2,1 -100.999997,104 1,1 q -23.00000006,21 -30.0000001,50.5 -6.9999999,29.5 3,57.5 v 1 q 27.0000001,78 75.0000001,160 66.999997,113 156.999997,203 148,148 363,232 h 1 q 29,10 58.5,4 29.5,-6 52.5,-26 l 101,-101 q 20,-20 20,-49.5 0,-29.5 -20,-49.5 l -130,-130 -1,-2 q -20,-20 -50,-20 -30,0 -50,20 l -64,64 q -74,-36 -131,-90 -55,-52 -89,-130 l 64,-64 q 20,-20 20,-49 0,-29 -21,-49 l 1,-1 -131,-135 -3,-2 q -21,-17 -47,-17 z m 0,64 q 3,0 7,3 l 131,134 v 0 q 1,4 -2,7 l -80,80 -15,14 7,20 12,28 q 17,35 38,67 30,44 64,77 l 7,6 q 33,30 75,57 30,20 62,36 l 45,21 96,-96 q 3,-3 4,-3 1,0 4,3 l 134,134 q 2,2 2,2.5 0,0.5 -2,2.5 l -100,100 q -21,18 -49,9 -203,-80 -339,-216 -84,-84 -147,-191 -44.999997,-78 -69.999997,-149 -4,-10 -1,-22.5 3,-12.5 11,-19.5 L 164.88235,67 q 4,-3 7,-3 z"
     id="path2"
     inkscape:connector-curvature="0"
     style="fill:#ffffff" />
</svg>
