<svg xmlns="http://www.w3.org/2000/svg" width="26.727" height="26.727" viewBox="0 0 26.727 26.727">
  <path id="Icon_awesome-phone-alt" data-name="Icon awesome-phone-alt" d="M25.964,18.887l-5.847-2.506a1.253,1.253,0,0,0-1.462.36L16.067,19.9a19.349,19.349,0,0,1-9.25-9.25L9.981,8.066a1.25,1.25,0,0,0,.36-1.462L7.835.758A1.261,1.261,0,0,0,6.4.032L.971,1.285A1.253,1.253,0,0,0,0,2.506,24.219,24.219,0,0,0,24.221,26.727a1.253,1.253,0,0,0,1.222-.971L26.7,20.327a1.268,1.268,0,0,0-.731-1.441Z" transform="translate(0 0)" fill="#000"/>
</svg>
