<svg width="24" height="24" viewBox="0 0 24 24" fill="none" xmlns="http://www.w3.org/2000/svg">
<path d="M12 0C9.82692 0 7.80769 0.548077 5.94231 1.64423C4.13462 2.70192 2.70192 4.13462 1.64423 5.94231C0.548077 7.80769 0 9.82692 0 12C0 14.1731 0.548077 16.1923 1.64423 18.0577C2.70192 19.8654 4.13462 21.2981 5.94231 22.3558C7.80769 23.4519 9.82692 24 12 24C14.1731 24 16.1923 23.4519 18.0577 22.3558C19.8654 21.2981 21.2981 19.8654 22.3558 18.0577C23.4519 16.1923 24 14.1731 24 12C24 9.82692 23.4519 7.80769 22.3558 5.94231C21.2981 4.13462 19.8654 2.70192 18.0577 1.64423C16.1923 0.548077 14.1731 0 12 0ZM12 1.84615C13.8462 1.84615 15.5577 2.30769 17.1346 3.23077C18.6538 4.13462 19.8654 5.34615 20.7692 6.86538C21.6923 8.44231 22.1538 10.1538 22.1538 12C22.1538 13.8462 21.6923 15.5577 20.7692 17.1346C19.8654 18.6538 18.6538 19.8654 17.1346 20.7692C15.5577 21.6923 13.8462 22.1538 12 22.1538C10.1538 22.1538 8.44231 21.6923 6.86538 20.7692C5.34615 19.8654 4.13462 18.6538 3.23077 17.1346C2.30769 15.5577 1.84615 13.8462 1.84615 12C1.84615 10.1538 2.30769 8.44231 3.23077 6.86538C4.13462 5.34615 5.34615 4.13462 6.86538 3.23077C8.44231 2.30769 10.1538 1.84615 12 1.84615ZM12 4.61538C11.1731 4.61538 10.4038 4.82212 9.69231 5.23558C8.98077 5.64904 8.41827 6.21154 8.00481 6.92308C7.59135 7.63462 7.38462 8.40385 7.38462 9.23077C7.38462 9.90385 7.52885 10.5433 7.81731 11.149C8.10577 11.7548 8.50962 12.2788 9.02885 12.7212C7.97115 13.2596 7.125 14.0433 6.49038 15.0721C5.85577 16.101 5.53846 17.2308 5.53846 18.4615H7.38462C7.38462 17.6154 7.59135 16.8413 8.00481 16.1394C8.41827 15.4375 8.97596 14.8798 9.67789 14.4663C10.3798 14.0529 11.1538 13.8462 12 13.8462C12.8462 13.8462 13.6202 14.0529 14.3221 14.4663C15.024 14.8798 15.5817 15.4375 15.9952 16.1394C16.4087 16.8413 16.6154 17.6154 16.6154 18.4615H18.4615C18.4615 17.2308 18.1442 16.101 17.5096 15.0721C16.875 14.0433 16.0288 13.2596 14.9712 12.7212C15.4904 12.2788 15.8942 11.7548 16.1827 11.149C16.4712 10.5433 16.6154 9.90385 16.6154 9.23077C16.6154 8.40385 16.4087 7.63462 15.9952 6.92308C15.5817 6.21154 15.0192 5.64904 14.3077 5.23558C13.5962 4.82212 12.8269 4.61538 12 4.61538ZM12 6.46154C12.7692 6.46154 13.4231 6.73077 13.9615 7.26923C14.5 7.80769 14.7692 8.46154 14.7692 9.23077C14.7692 10 14.5 10.6538 13.9615 11.1923C13.4231 11.7308 12.7692 12 12 12C11.2308 12 10.5769 11.7308 10.0385 11.1923C9.5 10.6538 9.23077 10 9.23077 9.23077C9.23077 8.46154 9.5 7.80769 10.0385 7.26923C10.5769 6.73077 11.2308 6.46154 12 6.46154Z" fill="#2B2B2B"/>
</svg>
