<svg width="21" height="15" viewBox="0 0 21 15" fill="none" xmlns="http://www.w3.org/2000/svg">
<path d="M10.3601 14.456L10.3596 14.4556L0.515736 6.10042C0.509839 6.09542 0.505901 6.09109 0.503347 6.08782C0.505901 6.08455 0.509839 6.08022 0.515736 6.07521C0.541089 6.05369 0.59066 6.03089 0.656157 6.03089C0.687059 6.03089 0.716231 6.03612 0.741423 6.04498C0.766624 6.05384 0.784808 6.06522 0.796578 6.07521L10.1764 14.0366L10.5 14.3112L10.8236 14.0366L20.2034 6.07521C20.2152 6.06522 20.2334 6.05384 20.2586 6.04498C20.2838 6.03612 20.3129 6.03089 20.3438 6.03089C20.3747 6.03089 20.4039 6.03612 20.4291 6.04498C20.4543 6.05384 20.4725 6.06522 20.4843 6.07521C20.4902 6.08021 20.4941 6.08455 20.4966 6.08781C20.4941 6.09108 20.4902 6.09542 20.4843 6.10043L10.6404 14.4556L10.6399 14.456C10.6283 14.4659 10.6103 14.4772 10.5853 14.486C10.5602 14.4948 10.5312 14.5 10.5004 14.5L10.4996 14.5C10.4688 14.5 10.4398 14.4948 10.4147 14.486C10.3897 14.4772 10.3717 14.4659 10.3601 14.456ZM10.5004 8.96911L10.4996 8.96911C10.4688 8.96914 10.4398 8.96394 10.4147 8.95513L10.2488 9.4268L10.4147 8.95513C10.3897 8.94631 10.3717 8.93501 10.3601 8.92515L10.3596 8.92471L0.515736 0.569534C0.509829 0.56452 0.505893 0.56019 0.503344 0.556927C0.505893 0.553664 0.509829 0.549335 0.515736 0.544321C0.541089 0.522802 0.59066 0.5 0.656157 0.5C0.721654 0.5 0.771225 0.522802 0.796578 0.544321L10.1764 8.50569L10.5 8.78031L10.8236 8.50569L20.2034 0.544321C20.2152 0.534335 20.2334 0.522954 20.2586 0.514091C20.2838 0.505234 20.3129 0.5 20.3438 0.5C20.3747 0.5 20.4039 0.505234 20.4291 0.514091C20.4543 0.522952 20.4725 0.534333 20.4843 0.544322C20.4902 0.549325 20.4941 0.553655 20.4966 0.556924C20.4941 0.560193 20.4902 0.564532 20.4843 0.569538L10.6404 8.92471L10.6399 8.92515C10.6283 8.93501 10.6103 8.94631 10.5853 8.95513L10.7512 9.4268L10.5853 8.95513C10.5602 8.96394 10.5312 8.96914 10.5004 8.96911Z" fill="#F67E5D" stroke="#6A6CC5"/>
</svg>
