<svg width="150" height="45" viewBox="0 0 150 45" fill="none" xmlns="http://www.w3.org/2000/svg">
<g clip-path="url(#clip0_2740_4658)">
<path d="M121.791 1.36292C121.473 0.974994 121.076 0.431893 120.679 0.354307C119.41 0.276721 118.06 0.354307 116.473 0.354307C116.394 0.354307 116.394 0.431893 116.394 0.509479C116.87 1.20775 117.187 1.67327 117.505 2.13879C120.283 5.94051 122.981 9.74227 125.838 13.4664C126.552 14.3974 126.632 15.0181 125.838 15.9492C122.902 19.8285 120.044 23.863 117.108 27.8199C116.711 28.363 116.314 28.9061 115.838 29.6819C115.838 29.7595 115.838 29.8371 115.918 29.8371C116.711 29.8371 117.267 29.9147 117.822 29.8371C120.521 29.6819 120.838 29.3716 121.949 27.8199C123.775 25.1043 129.171 17.7337 130.918 15.3285C131.235 14.863 131.235 14.2423 130.918 13.7768L121.791 1.36292Z" fill="#F3CD0E"/>
<path d="M129.013 1.36282C128.695 0.974891 128.298 0.431784 127.902 0.354198C126.552 0.276611 125.203 0.276611 123.616 0.276611C123.616 0.354198 123.616 0.431784 123.616 0.50937C124.092 1.20765 124.41 1.67317 124.727 2.13868C127.505 5.94041 130.203 9.74209 133.06 13.4662C133.775 14.3973 133.854 15.018 133.06 15.949C130.124 19.8283 127.267 23.8628 124.33 27.8197C123.933 28.3628 123.536 28.9059 123.06 29.6817C123.06 29.7593 123.06 29.8369 123.14 29.8369C123.933 29.8369 125.044 29.8369 125.044 29.8369C127.743 29.6817 128.06 29.3714 129.171 27.8197C130.997 25.1042 136.394 17.7335 138.14 15.3283C138.457 14.8628 138.457 14.2421 138.14 13.7766L129.013 1.36282Z" fill="black"/>
<path d="M137.505 10.2854V10.2078L144.013 1.44056C144.33 1.05263 144.727 0.50953 145.124 0.431944C146.473 0.276771 147.822 0.354357 149.41 0.354357C149.489 0.354357 149.489 0.431944 149.489 0.50953C149.013 1.2078 148.695 1.67332 148.378 2.13884C146.076 5.24229 140.679 12.4578 139.965 13.3112C139.965 13.3888 139.886 13.3888 139.806 13.3112L137.505 10.2854ZM136.949 19.5957V19.6733L143.695 28.7509C144.013 29.1388 144.41 29.6819 144.806 29.7595C146.156 29.9147 147.505 29.8371 149.092 29.8371C149.171 29.8371 149.171 29.7595 149.171 29.6819C148.695 28.9836 148.378 28.5181 148.06 28.0526C145.441 24.4836 140.124 17.4233 139.41 16.5698C139.41 16.4923 139.33 16.4923 139.251 16.5698L136.949 19.5957Z" fill="black"/>
<path d="M104.171 29.3713H100.679C100.6 29.3713 100.6 29.3713 100.6 29.2937C100.6 28.9058 100.6 27.3541 100.6 26.811C100.6 26.7334 100.521 26.7334 100.441 26.7334C97.5841 29.3713 94.3301 30.3023 90.7587 29.6816C88.0603 29.2161 85.9174 27.8196 84.1714 25.7247C80.5206 21.3799 80.6 14.7075 84.4095 10.4403C88.5365 5.78505 95.1238 5.16436 100.521 9.50923H100.6C101.473 8.57819 102.425 7.64712 103.457 7.33677C103.854 7.1816 104.251 7.49195 104.251 7.87992V29.2161C104.251 29.3713 104.251 29.3713 104.171 29.3713ZM100.283 17.8885C100.283 13.4661 96.473 9.74199 92.0286 10.2851C88.5365 10.7506 86.1555 12.923 85.3619 16.5696C84.6476 19.9058 86.0762 23.5523 88.9333 25.2592C91.3143 26.6558 93.7746 26.7334 96.1555 25.492C99.092 23.9403 100.283 21.3799 100.283 17.8885Z" fill="black"/>
<path d="M36.5521 19.2853H24.9648C24.8855 19.2853 24.8855 19.2853 24.8855 19.2077V16.1818C24.8855 16.1043 24.8855 16.1043 24.9648 16.1043H32.1077C32.1871 16.1043 32.1871 16.1043 32.1871 16.0267C32.1077 13.4663 29.568 10.906 26.7902 10.4405C23.8537 9.97494 21.3934 10.7508 19.6474 13.0008C17.5045 15.7163 17.1871 18.8198 18.6156 21.9232C20.9966 27.0439 27.5045 27.8198 31.1553 23.5525C31.4728 23.1646 32.1871 22.8543 32.7426 22.8543C33.695 22.7767 34.6474 22.8543 35.5998 22.8543C35.6791 22.8543 35.6791 22.9318 35.6791 22.9318C34.568 27.5094 28.695 30.6905 23.2982 29.7594C17.3458 28.7508 13.1394 22.6991 14.0125 16.4922C14.8855 10.2853 20.5998 6.09564 27.0283 6.79391C32.7426 7.49219 37.1871 13.156 36.5521 19.2853Z" fill="black"/>
<path d="M40.7585 7.64715H42.0283C43.2188 7.64715 44.1712 8.50056 44.2505 9.66436V10.1299C44.568 9.89711 44.8061 9.81953 45.0442 9.66436C48.5362 6.87128 52.4251 6.40577 56.4727 8.03505C60.5204 9.58677 62.5045 12.8454 62.822 16.8799C63.1394 21.1471 62.9013 25.4144 62.9013 29.7592C62.9013 29.8368 62.9013 29.8368 62.822 29.8368H59.568C59.4886 29.8368 59.4886 29.8368 59.4886 29.7592C59.4886 26.5006 59.4886 23.1644 59.4886 19.9057C59.4886 18.8195 59.4093 17.7333 59.1712 16.7247C58.2981 12.8454 55.0442 10.5178 51.1553 10.8281C47.4251 11.1385 44.4093 14.2419 44.2505 18.0437C44.1712 21.3799 44.1712 24.7937 44.1712 28.1299C44.1712 28.673 44.1712 29.1385 44.1712 29.7592C44.1712 29.8368 44.1712 29.8368 44.0918 29.8368H40.6791C40.5997 29.8368 40.5997 29.8368 40.5997 29.7592V7.72473C40.6791 7.64715 40.7585 7.64715 40.7585 7.64715Z" fill="black"/>
<path d="M68.6157 0.431885H70.7585C70.8379 0.431885 70.8379 0.431885 70.8379 0.509471V7.41464C70.8379 7.49223 70.8379 7.49223 70.9173 7.49223H77.2665C77.3458 7.49223 77.3458 7.49223 77.3458 7.56982V10.7508C77.3458 10.8284 77.3458 10.8284 77.2665 10.8284H71.076C70.9966 10.8284 70.9966 10.8284 70.9966 10.906C70.9966 14.9405 70.8379 18.7422 71.076 22.6215C71.2347 24.7163 73.2982 26.1129 75.7585 26.2681C76.7109 26.3456 77.5839 26.2681 78.6157 26.2681C78.695 26.2681 78.695 26.2681 78.695 26.3456V29.6819C78.695 29.7594 78.695 29.7594 78.6157 29.7594C73.7744 30.4577 69.6474 28.8284 68.0601 25.2594C67.6633 24.406 67.2665 23.475 67.2665 22.6215C67.1871 15.7163 67.2665 8.81116 67.2665 1.75085C67.2665 1.05257 67.9014 0.431885 68.6157 0.431885Z" fill="black"/>
<path d="M108.616 0.586914H112.029C112.108 0.586914 112.108 0.586914 112.108 0.6645V29.7593C112.108 29.8369 112.108 29.8369 112.029 29.8369H108.616C108.537 29.8369 108.536 29.8369 108.536 29.7593V0.6645C108.536 0.6645 108.537 0.586914 108.616 0.586914Z" fill="black"/>
<path d="M4.25051 29.837H0.679079C0.679079 29.837 0.599714 29.837 0.599714 29.7594C0.599714 26.8111 0.599714 23.9404 0.599714 21.0697C0.599714 18.7422 0.440984 16.337 0.837807 14.0094C1.47273 10.2853 3.93304 8.3456 7.82193 7.72495C8.77432 7.56977 9.7267 7.56977 10.6791 7.49219C11.314 7.49219 11.9489 7.49219 12.7426 7.49219C12.8219 7.49219 12.8219 7.49219 12.8219 7.56977V11.0611C12.8219 11.1387 12.8219 11.1387 12.7426 11.1387C11.7108 11.1387 10.6791 11.1387 9.64734 11.1387C6.23463 11.2939 4.40924 13.0784 4.32987 16.337C4.2505 20.2163 4.32987 24.0956 4.32987 27.9749C4.32987 28.518 4.32987 29.0611 4.32987 29.6818C4.32987 29.837 4.32987 29.837 4.25051 29.837Z" fill="black"/>
<path d="M4.56803 41.785L1.79025 34.6471C1.86962 35.1902 1.86962 35.8885 1.86962 36.6643V41.785H0.917236V33.7161H2.34581L4.96486 40.3885H5.04422L7.66327 33.7161H9.09184V41.785H8.13946V36.5868C8.13946 35.9661 8.13946 35.3454 8.21882 34.6471L5.36168 41.785H4.56803Z" fill="black"/>
<path d="M15.0443 41.7851L14.8855 40.9316H14.8062C14.4887 41.3196 14.1712 41.5523 13.8538 41.7075C13.5363 41.8627 13.1395 41.9402 12.7427 41.9402C12.1078 41.9402 11.6316 41.7851 11.3141 41.4747C10.9966 41.1644 10.7585 40.6989 10.7585 40.1558C10.7585 38.9144 11.7903 38.2937 13.7744 38.2161H14.8062V37.8282C14.8062 37.3627 14.7268 36.9747 14.4887 36.742C14.2506 36.5092 13.9331 36.4316 13.457 36.4316C12.9808 36.4316 12.3458 36.5868 11.7109 36.8971L11.3935 36.1989C11.7109 36.0437 12.0284 35.8885 12.4252 35.8109C12.822 35.7333 13.1395 35.6558 13.5363 35.6558C14.2506 35.6558 14.8062 35.8109 15.203 36.1213C15.5204 36.4316 15.7585 36.9747 15.7585 37.673V41.7851H15.0443ZM12.9014 41.1644C13.457 41.1644 13.9331 41.0092 14.2506 40.6989C14.5681 40.3885 14.7268 39.923 14.7268 39.3799V38.8368H13.7744C13.0601 38.8368 12.5046 38.992 12.1871 39.1471C11.8697 39.3799 11.7109 39.6902 11.7109 40.0782C11.7109 40.3885 11.7903 40.6989 12.0284 40.854C12.2665 41.0868 12.5839 41.1644 12.9014 41.1644Z" fill="black"/>
<path d="M21.8696 41.7851V37.9058C21.8696 37.4403 21.7902 37.0524 21.5521 36.8196C21.314 36.5868 20.9966 36.4317 20.441 36.4317C19.8061 36.4317 19.3299 36.5868 19.0124 36.9748C18.695 37.3627 18.5362 37.9058 18.5362 38.6817V41.8627H17.5839V35.811H18.3775L18.5362 36.6644H18.6156C18.7743 36.3541 19.0918 36.1213 19.4093 35.9662C19.7267 35.811 20.1235 35.7334 20.5997 35.7334C21.314 35.7334 21.8696 35.8886 22.2664 36.2765C22.6632 36.6644 22.822 37.2075 22.822 37.9834V41.9403H21.8696V41.7851Z" fill="black"/>
<path d="M28.5363 41.7851L28.3776 40.9316H28.2982C27.9808 41.3196 27.6633 41.5523 27.3458 41.7075C27.0284 41.8627 26.6316 41.9402 26.2347 41.9402C25.5998 41.9402 25.1236 41.7851 24.8062 41.4747C24.4887 41.1644 24.2506 40.6989 24.2506 40.1558C24.2506 38.9144 25.2824 38.2937 27.2665 38.2161H28.2982V37.8282C28.2982 37.3627 28.2189 36.9747 27.9808 36.742C27.7427 36.5092 27.4252 36.4316 26.949 36.4316C26.4728 36.4316 25.8379 36.5868 25.203 36.8971L24.8855 36.1989C25.203 36.0437 25.5205 35.8885 25.9173 35.8109C26.3141 35.7333 26.6316 35.6558 27.0284 35.6558C27.7427 35.6558 28.2982 35.8109 28.6951 36.1213C29.0125 36.4316 29.2506 36.9747 29.2506 37.673V41.7851H28.5363ZM26.3935 41.1644C26.949 41.1644 27.4252 41.0092 27.7427 40.6989C28.0601 40.3885 28.2189 39.923 28.2189 39.3799V38.8368H27.2665C26.5522 38.8368 25.9966 38.992 25.6792 39.1471C25.3617 39.3799 25.203 39.6902 25.203 40.0782C25.203 40.3885 25.2824 40.6989 25.5205 40.854C25.7585 41.0868 26.076 41.1644 26.3935 41.1644Z" fill="black"/>
<path d="M36.2347 35.7333V36.2764L35.1236 36.4316C35.2029 36.5867 35.3617 36.7419 35.441 36.8971C35.5204 37.0523 35.5998 37.3626 35.5998 37.5954C35.5998 38.2161 35.3617 38.6816 34.9648 38.9919C34.568 39.3023 34.0124 39.535 33.2982 39.535C33.1394 39.535 32.9013 39.535 32.7426 39.4574C32.3458 39.6902 32.1077 39.923 32.1077 40.2333C32.1077 40.3885 32.1871 40.5436 32.3458 40.6212C32.5045 40.6988 32.7426 40.7764 33.0601 40.7764H34.1712C34.8061 40.7764 35.3617 40.9316 35.6791 41.1643C36.0759 41.4747 36.2347 41.8626 36.2347 42.3281C36.2347 43.0264 35.9966 43.4919 35.441 43.8798C34.8855 44.2678 34.0918 44.423 33.0601 44.423C32.2664 44.423 31.6315 44.2678 31.1553 43.9574C30.6791 43.6471 30.5204 43.2592 30.5204 42.7161C30.5204 42.3281 30.6791 42.0178 30.9172 41.785C31.1553 41.5523 31.4728 41.3195 31.949 41.2419C31.7902 41.1643 31.6315 41.0867 31.5521 40.9316C31.4728 40.7764 31.3934 40.6212 31.3934 40.3885C31.3934 40.1557 31.4728 40.0005 31.5521 39.8454C31.7109 39.6902 31.8696 39.535 32.1077 39.3799C31.7902 39.2247 31.5521 39.0695 31.314 38.7592C31.0759 38.4488 30.9966 38.0609 30.9966 37.673C30.9966 36.9747 31.2347 36.5092 31.6315 36.1212C32.0283 35.7333 32.5839 35.5781 33.3775 35.5781C33.695 35.5781 34.0124 35.5781 34.2505 35.6557L36.2347 35.7333ZM31.314 42.7936C31.314 43.104 31.4728 43.3367 31.7109 43.5695C32.0283 43.7247 32.4251 43.8023 32.9013 43.8023C33.695 43.8023 34.2505 43.7247 34.6474 43.4919C35.0442 43.2592 35.2029 42.9488 35.2029 42.5609C35.2029 42.2505 35.1236 42.0178 34.8855 41.8626C34.6474 41.7074 34.2505 41.7074 33.695 41.7074H32.5839C32.1871 41.7074 31.7902 41.785 31.6315 42.0178C31.4728 42.2505 31.314 42.4057 31.314 42.7936ZM31.7902 37.673C31.7902 38.0609 31.949 38.4488 32.1871 38.604C32.4251 38.8367 32.7426 38.9143 33.2188 38.9143C34.1712 38.9143 34.568 38.4488 34.568 37.5954C34.568 36.6643 34.0918 36.1988 33.2188 36.1988C32.7426 36.1988 32.4251 36.2764 32.1871 36.5092C31.949 36.7419 31.7902 37.2074 31.7902 37.673Z" fill="black"/>
<path d="M40.1235 41.9402C39.1711 41.9402 38.4569 41.6299 37.9807 41.0868C37.5045 40.5437 37.187 39.7678 37.187 38.8368C37.187 37.8282 37.4251 37.0523 37.9013 36.5092C38.3775 35.9661 39.0124 35.6558 39.8854 35.6558C40.6791 35.6558 41.2346 35.8885 41.7108 36.4316C42.187 36.8971 42.4251 37.5954 42.4251 38.3713V38.9144H38.1394C38.1394 39.6127 38.3775 40.1558 38.6949 40.5437C39.0124 40.9316 39.568 41.0868 40.2029 41.0868C40.8378 41.0868 41.5521 40.9316 42.187 40.6989V41.4747C41.8696 41.6299 41.5521 41.7075 41.2346 41.7851C40.9172 41.8627 40.5203 41.9402 40.1235 41.9402ZM39.8061 36.4316C39.3299 36.4316 38.933 36.5868 38.6156 36.8971C38.2981 37.2075 38.1394 37.673 38.06 38.2161H41.314C41.314 37.673 41.1553 37.2075 40.9172 36.8971C40.6791 36.5868 40.3616 36.4316 39.8061 36.4316Z" fill="black"/>
<path d="M45.9966 35.7334H47.0283L48.3775 39.1472C48.695 39.9231 48.8537 40.4662 48.9331 40.8541H49.0125C49.0918 40.6989 49.1712 40.311 49.3299 39.9231C49.4886 39.4575 49.9648 38.061 50.8379 35.7334H51.8696L49.2505 42.6386C49.0125 43.3368 48.695 43.8024 48.2982 44.1127C47.9013 44.4231 47.5045 44.5782 47.0283 44.5782C46.7109 44.5782 46.4728 44.5782 46.1553 44.5006V43.8024C46.3934 43.8799 46.6315 43.8799 46.8696 43.8799C47.5045 43.8799 47.9807 43.492 48.2188 42.7937L48.5363 41.9403L45.9966 35.7334Z" fill="black"/>
<path d="M58.1394 38.7592C58.1394 39.7678 57.9013 40.5437 57.3458 41.0868C56.8696 41.6299 56.1553 41.9402 55.2823 41.9402C54.7267 41.9402 54.2505 41.7851 53.7744 41.5523C53.3775 41.3196 52.9807 40.9316 52.822 40.4661C52.5839 40.0006 52.5045 39.4575 52.5045 38.8368C52.5045 37.8282 52.7426 37.0523 53.2982 36.5092C53.7744 35.9661 54.4886 35.6558 55.3617 35.6558C56.2347 35.6558 56.949 35.9661 57.4251 36.5092C57.822 37.0523 58.1394 37.8282 58.1394 38.7592ZM53.3775 38.7592C53.3775 39.5351 53.5363 40.1558 53.8537 40.5437C54.1712 40.9316 54.6474 41.1644 55.2823 41.1644C55.9172 41.1644 56.3934 40.9316 56.7109 40.5437C57.0283 40.1558 57.1871 39.5351 57.1871 38.7592C57.1871 37.9833 57.0283 37.4402 56.7109 36.9747C56.3934 36.5868 55.9172 36.354 55.2823 36.354C54.6474 36.354 54.1712 36.5868 53.9331 36.9747C53.5363 37.4402 53.3775 37.9833 53.3775 38.7592Z" fill="black"/>
<path d="M60.5997 35.7334V39.6903C60.5997 40.1558 60.6791 40.5437 60.9172 40.7765C61.1553 41.0093 61.4727 41.1644 62.0283 41.1644C62.6632 41.1644 63.1394 41.0093 63.4569 40.6213C63.7743 40.311 63.9331 39.6903 63.9331 38.9144V35.7334H64.8854V41.7851H64.0918L63.9331 41.0093H63.8537C63.695 41.3196 63.3775 41.5524 63.06 41.7075C62.7426 41.8627 62.3458 41.9403 61.8696 41.9403C61.1553 41.9403 60.5204 41.7851 60.2029 41.3972C59.8854 41.0093 59.6473 40.4662 59.6473 39.6903V35.7334H60.5997Z" fill="black"/>
<path d="M69.6474 35.6558C69.8855 35.6558 70.203 35.6558 70.3617 35.7333L70.203 36.5868C69.9649 36.5092 69.7268 36.5092 69.4887 36.5092C69.0125 36.5092 68.5363 36.742 68.2189 37.1299C67.9014 37.5178 67.6633 37.9834 67.6633 38.604V41.8627H66.7109V35.8109H67.5046L67.584 36.8971H67.6633C67.9014 36.5092 68.1395 36.1989 68.457 35.9661C68.9332 35.7333 69.2506 35.6558 69.6474 35.6558Z" fill="black"/>
<path d="M77.3457 36.4317H75.7584V41.7852H74.8061V36.4317H73.6949V36.0438L74.8061 35.7334V35.4231C74.8061 33.949 75.441 33.1731 76.7902 33.1731C77.1076 33.1731 77.5045 33.2507 77.9013 33.3283L77.6632 34.0265C77.2664 33.949 77.0283 33.8714 76.7108 33.8714C76.3934 33.8714 76.0759 33.949 75.9172 34.1817C75.7584 34.4145 75.6791 34.8024 75.6791 35.2679V35.6559H77.2664L77.3457 36.4317ZM79.4095 41.7852H78.4569V33.2507H79.4095V41.7852Z" fill="black"/>
<path d="M84.0127 41.9402C83.0603 41.9402 82.346 41.6299 81.8698 41.0868C81.3936 40.5437 81.0762 39.7678 81.0762 38.8368C81.0762 37.8282 81.3143 37.0523 81.7905 36.5092C82.2666 35.9661 82.9016 35.6558 83.7746 35.6558C84.5682 35.6558 85.1238 35.8885 85.6 36.4316C86.0762 36.8971 86.3143 37.5954 86.3143 38.3713V38.9144H82.0286C82.0286 39.6127 82.2666 40.1558 82.5841 40.5437C82.9016 40.9316 83.4571 41.0868 84.092 41.0868C84.727 41.0868 85.4413 40.9316 86.0762 40.6989V41.4747C85.7587 41.6299 85.4413 41.7075 85.1238 41.7851C84.8063 41.8627 84.4095 41.9402 84.0127 41.9402ZM83.7746 36.4316C83.2984 36.4316 82.9016 36.5868 82.5841 36.8971C82.2666 37.2075 82.1079 37.673 82.0286 38.2161H85.2825C85.2825 37.673 85.1238 37.2075 84.8857 36.8971C84.5682 36.5868 84.2508 36.4316 83.7746 36.4316Z" fill="black"/>
<path d="M90.4413 41.9402C89.4889 41.9402 88.7746 41.6299 88.2984 41.0868C87.8222 40.5437 87.5048 39.7678 87.5048 38.8368C87.5048 37.8282 87.7429 37.0523 88.219 36.5092C88.6952 35.9661 89.3302 35.6558 90.2032 35.6558C90.9968 35.6558 91.5524 35.8885 92.0286 36.4316C92.5048 36.8971 92.7429 37.5954 92.7429 38.3713V38.9144H88.4571C88.4571 39.6127 88.6952 40.1558 89.0127 40.5437C89.3302 40.9316 89.8857 41.0868 90.5206 41.0868C91.1556 41.0868 91.8698 40.9316 92.5048 40.6989V41.4747C92.1873 41.6299 91.8698 41.7075 91.5524 41.7851C91.2349 41.8627 90.9175 41.9402 90.4413 41.9402ZM90.2032 36.4316C89.727 36.4316 89.3302 36.5868 89.0127 36.8971C88.6952 37.2075 88.5365 37.673 88.4571 38.2161H91.7111C91.7111 37.673 91.5524 37.2075 91.3143 36.8971C91.0762 36.5868 90.6794 36.4316 90.2032 36.4316Z" fill="black"/>
<path d="M96.3143 41.1643C96.473 41.1643 96.6318 41.1643 96.7905 41.1643C96.9492 41.1643 97.0286 41.0867 97.1873 41.0867V41.7849C97.108 41.8625 96.9492 41.8625 96.7111 41.9401C96.5524 41.9401 96.3143 42.0177 96.1556 42.0177C94.9651 42.0177 94.3302 41.397 94.3302 40.1556V36.5867H93.4572V36.0436L94.3302 35.6556L94.727 34.3367H95.2826V35.7332H97.108V36.4315H95.2826V40.0005C95.2826 40.3884 95.3619 40.6212 95.5207 40.8539C95.6794 41.0867 95.9968 41.1643 96.3143 41.1643Z" fill="black"/>
<path d="M102.346 41.785H101.394V33.2505H102.346V41.785Z" fill="black"/>
<path d="M104.251 34.1041C104.251 33.8713 104.33 33.7162 104.41 33.6386C104.489 33.561 104.648 33.4834 104.806 33.4834C104.965 33.4834 105.124 33.561 105.203 33.6386C105.283 33.7162 105.362 33.8713 105.362 34.1041C105.362 34.3368 105.283 34.492 105.203 34.5696C105.124 34.6472 104.965 34.7248 104.806 34.7248C104.648 34.7248 104.489 34.6472 104.41 34.5696C104.33 34.492 104.251 34.3368 104.251 34.1041ZM105.283 41.7851H104.33V35.7334H105.283V41.7851Z" fill="black"/>
<path d="M108.219 38.6815C108.378 38.4488 108.616 38.1384 108.933 37.8281L110.918 35.7332H112.029L109.489 38.2936L112.187 41.785H111.076L108.933 38.9143L108.219 39.535V41.785H107.267V33.2505H108.219V37.8281C108.219 37.9832 108.14 38.2936 108.219 38.6815Z" fill="black"/>
<path d="M115.917 41.9402C114.965 41.9402 114.251 41.6299 113.775 41.0868C113.298 40.5437 112.981 39.7678 112.981 38.8368C112.981 37.8282 113.219 37.0523 113.695 36.5092C114.171 35.9661 114.806 35.6558 115.679 35.6558C116.473 35.6558 117.029 35.8885 117.505 36.4316C117.981 36.8971 118.219 37.5954 118.219 38.3713V38.9144H113.933C113.933 39.6127 114.171 40.1558 114.489 40.5437C114.806 40.9316 115.362 41.0868 115.997 41.0868C116.632 41.0868 117.346 40.9316 117.981 40.6989V41.4747C117.663 41.6299 117.346 41.7075 117.029 41.7851C116.711 41.8627 116.314 41.9402 115.917 41.9402ZM115.679 36.4316C115.203 36.4316 114.806 36.5868 114.489 36.8971C114.171 37.2075 114.013 37.673 113.933 38.2161H117.187C117.187 37.673 117.029 37.2075 116.79 36.8971C116.552 36.5868 116.156 36.4316 115.679 36.4316Z" fill="black"/>
<path d="M126.632 41.7851L126.473 40.9316H126.394C126.076 41.3196 125.759 41.5523 125.441 41.7075C125.124 41.8627 124.727 41.9402 124.33 41.9402C123.695 41.9402 123.219 41.7851 122.902 41.4747C122.584 41.1644 122.346 40.6989 122.346 40.1558C122.346 38.9144 123.378 38.2937 125.362 38.2161H126.394V37.8282C126.394 37.3627 126.314 36.9747 126.076 36.742C125.838 36.5092 125.521 36.4316 125.044 36.4316C124.568 36.4316 123.933 36.5868 123.298 36.8971L122.981 36.1989C123.298 36.0437 123.616 35.8885 124.013 35.8109C124.41 35.7333 124.727 35.6558 125.124 35.6558C125.838 35.6558 126.394 35.8109 126.791 36.1213C127.108 36.4316 127.346 36.9747 127.346 37.673V41.7851H126.632ZM124.489 41.1644C125.044 41.1644 125.521 41.0092 125.838 40.6989C126.156 40.3885 126.314 39.923 126.314 39.3799V38.8368H125.362C124.648 38.8368 124.092 38.992 123.775 39.1471C123.457 39.3799 123.298 39.6902 123.298 40.0782C123.298 40.3885 123.378 40.6989 123.616 40.854C123.854 41.0868 124.092 41.1644 124.489 41.1644Z" fill="black"/>
<path d="M137.584 36.1212C137.584 36.9747 137.267 37.5954 136.711 37.9833C136.156 38.4488 135.362 38.604 134.251 38.604H133.298V41.785H132.346V33.7161H134.489C136.552 33.7161 137.584 34.4919 137.584 36.1212ZM133.298 37.8281H134.171C135.044 37.8281 135.6 37.673 135.997 37.4402C136.394 37.2074 136.552 36.7419 136.552 36.1212C136.552 35.5781 136.394 35.1902 135.997 34.9574C135.6 34.7247 135.044 34.5695 134.33 34.5695H133.298V37.8281Z" fill="black"/>
<path d="M141.949 35.6558C142.187 35.6558 142.505 35.6558 142.663 35.7333L142.505 36.5868C142.267 36.5092 142.029 36.5092 141.79 36.5092C141.314 36.5092 140.838 36.742 140.521 37.1299C140.203 37.5178 139.965 37.9834 139.965 38.604V41.8627H139.013V35.8109H139.806L139.886 36.8971H139.965C140.203 36.5092 140.441 36.1989 140.759 35.9661C141.235 35.7333 141.632 35.6558 141.949 35.6558Z" fill="black"/>
<path d="M149.251 38.7592C149.251 39.7678 149.013 40.5437 148.457 41.0868C147.981 41.6299 147.267 41.9402 146.394 41.9402C145.838 41.9402 145.362 41.7851 144.886 41.5523C144.489 41.3196 144.092 40.9316 143.933 40.4661C143.695 40.0006 143.616 39.4575 143.616 38.8368C143.616 37.8282 143.854 37.0523 144.409 36.5092C144.886 35.9661 145.6 35.6558 146.473 35.6558C147.346 35.6558 148.06 35.9661 148.536 36.5092C148.933 37.0523 149.251 37.8282 149.251 38.7592ZM144.489 38.7592C144.489 39.5351 144.648 40.1558 144.965 40.5437C145.283 40.9316 145.759 41.1644 146.394 41.1644C147.029 41.1644 147.505 40.9316 147.822 40.5437C148.14 40.1558 148.298 39.5351 148.298 38.7592C148.298 37.9833 148.14 37.4402 147.822 36.9747C147.505 36.5868 147.029 36.354 146.394 36.354C145.759 36.354 145.283 36.5868 145.044 36.9747C144.648 37.4402 144.489 37.9833 144.489 38.7592Z" fill="black"/>
</g>
<defs>
<clipPath id="clip0_2740_4658">
<rect width="150" height="45" fill="white"/>
</clipPath>
</defs>
</svg>
