<svg width="443" height="136" viewBox="0 0 443 136" fill="none" xmlns="http://www.w3.org/2000/svg">
<path d="M359.688 4.11879C358.75 2.94638 357.578 1.30501 356.406 1.07052C352.656 0.83604 348.671 1.07052 343.984 1.07052C343.749 1.07052 343.749 1.30501 343.749 1.53949C345.156 3.64982 346.093 5.05672 347.031 6.46362C355.234 17.9533 363.204 29.443 371.642 40.6982C373.751 43.512 373.986 45.3879 371.642 48.2017C362.969 59.9258 354.531 72.1189 345.859 84.0775C344.687 85.7189 343.515 87.3603 342.108 89.7051C342.108 89.9396 342.109 90.1741 342.343 90.1741C344.687 90.1741 346.328 90.4086 347.968 90.1741C355.938 89.7051 356.875 88.7672 360.157 84.0775C365.548 75.8706 381.486 53.5948 386.643 46.3258C387.58 44.9189 387.58 43.043 386.643 41.6362L359.688 4.11879Z" fill="white"/>
<path d="M381.018 4.11846C380.08 2.94605 378.908 1.30466 377.736 1.07018C373.751 0.835693 369.767 0.835693 365.079 0.835693C365.079 1.07018 365.079 1.30466 365.079 1.53914C366.485 3.6495 367.423 5.05639 368.36 6.46329C376.564 17.9529 384.533 29.4425 392.971 40.6977C395.081 43.5114 395.315 45.3873 392.971 48.2011C384.299 59.9252 375.861 72.1183 367.188 84.077C366.016 85.7183 364.844 87.3597 363.438 89.7046C363.438 89.939 363.438 90.1735 363.673 90.1735C366.016 90.1735 369.298 90.1735 369.298 90.1735C377.267 89.7046 378.205 88.7666 381.486 84.077C386.877 75.8701 402.816 53.5942 407.973 46.3252C408.91 44.9183 408.91 43.0425 407.973 41.6356L381.018 4.11846Z" fill="black"/>
<path d="M406.097 31.0845V30.85L425.317 4.35358C426.255 3.18117 427.427 1.53979 428.599 1.30531C432.584 0.836345 436.568 1.07083 441.256 1.07083C441.491 1.07083 441.491 1.30531 441.491 1.53979C440.084 3.65014 439.147 5.05703 438.209 6.46393C431.412 15.8432 415.473 37.65 413.364 40.2294C413.364 40.4638 413.129 40.4638 412.895 40.2294L406.097 31.0845ZM404.457 59.2225V59.4569L424.38 86.8914C425.318 88.0638 426.489 89.7052 427.661 89.9397C431.646 90.4087 435.631 90.1742 440.319 90.1742C440.553 90.1742 440.553 89.9397 440.553 89.7052C439.147 87.5949 438.209 86.188 437.271 84.7811C429.537 73.9949 413.832 52.6569 411.723 50.0776C411.723 49.8431 411.488 49.8431 411.254 50.0776L404.457 59.2225Z" fill="black"/>
<path d="M307.653 88.7667H297.34C297.105 88.7667 297.105 88.7667 297.105 88.5322C297.105 87.3598 297.105 82.6702 297.105 81.0288C297.105 80.7943 296.871 80.7943 296.637 80.7943C288.198 88.7667 278.588 91.5805 268.041 89.7047C260.071 88.2978 253.743 84.0771 248.586 77.746C237.804 64.615 238.039 44.4495 249.289 31.5529C261.478 17.4838 280.932 15.608 296.871 28.7391H297.105C299.684 25.9253 302.496 23.1114 305.543 22.1735C306.715 21.7045 307.887 22.6425 307.887 23.815V88.2978C307.887 88.7667 307.887 88.7667 307.653 88.7667ZM296.168 54.0633C296.168 40.6978 284.917 29.4426 271.791 31.084C261.478 32.4909 254.446 39.0564 252.102 50.0771C249.993 60.1598 254.212 71.1805 262.65 76.3391C269.682 80.5598 276.948 80.7943 283.979 77.0426C292.652 72.3529 296.168 64.615 296.168 54.0633Z" fill="black"/>
<path d="M107.951 58.2843H73.7295C73.4951 58.2843 73.4951 58.2843 73.4951 58.0498V48.905C73.4951 48.6705 73.4951 48.6705 73.7295 48.6705H94.8247C95.0591 48.6705 95.0591 48.6705 95.0591 48.436C94.8247 40.6981 87.3242 32.9602 79.1205 31.5533C70.448 30.1464 63.1819 32.4912 58.0253 39.2912C51.6967 47.4981 50.7591 56.8774 54.9782 66.2567C62.0099 81.7326 81.23 84.0774 92.012 71.1809C92.9496 70.0084 95.0591 69.0705 96.6999 69.0705C99.5126 68.836 102.325 69.0705 105.138 69.0705C105.372 69.0705 105.372 69.305 105.372 69.305C102.091 83.1395 84.7459 92.7533 68.8073 89.9395C51.2279 86.8912 38.8052 68.6015 41.3835 49.8429C43.9618 31.0843 60.838 18.4223 79.8237 20.5326C96.6999 22.6429 109.826 39.7602 107.951 58.2843Z" fill="black"/>
<path d="M120.373 23.1114H124.124C127.64 23.1114 130.452 25.6906 130.687 29.2078V30.6147C131.624 29.9113 132.327 29.6768 133.031 29.2078C143.344 20.7665 154.829 19.3596 166.783 24.2837C178.737 28.9733 184.597 38.8216 185.534 51.0147C186.472 63.9113 185.769 76.8078 185.769 89.9389C185.769 90.1733 185.769 90.1733 185.534 90.1733H175.924C175.69 90.1733 175.69 90.1733 175.69 89.9389C175.69 80.0906 175.69 70.0078 175.69 60.1595C175.69 56.8768 175.455 53.594 174.752 50.5457C172.174 38.8216 162.564 31.7871 151.079 32.7251C140.062 33.663 131.155 43.0423 130.687 54.532C130.452 64.6147 130.452 74.932 130.452 85.0147C130.452 86.6561 130.452 88.063 130.452 89.9389C130.452 90.1733 130.452 90.1733 130.218 90.1733H120.139C119.905 90.1733 119.905 90.1733 119.905 89.9389V23.3458C120.139 23.1114 120.373 23.1114 120.373 23.1114Z" fill="black"/>
<path d="M202.645 1.30518H208.973C209.208 1.30518 209.208 1.30518 209.208 1.53966V22.4086C209.208 22.6431 209.208 22.6431 209.442 22.6431H228.194C228.428 22.6431 228.428 22.6431 228.428 22.8776V32.4913C228.428 32.7258 228.428 32.7258 228.194 32.7258H209.911C209.677 32.7258 209.677 32.7258 209.677 32.9603C209.677 45.1534 209.208 56.643 209.911 68.3672C210.38 74.6982 216.474 78.9189 223.74 79.3878C226.553 79.6223 229.131 79.3878 232.178 79.3878C232.413 79.3878 232.413 79.3878 232.413 79.6223V89.7051C232.413 89.9396 232.413 89.9396 232.178 89.9396C217.88 92.0499 205.692 87.1258 201.004 76.3396C199.832 73.7603 198.66 70.9465 198.66 68.3672C198.426 47.4982 198.66 26.6292 198.66 5.29138C198.66 3.18104 200.535 1.30518 202.645 1.30518Z" fill="black"/>
<path d="M320.779 1.77344H330.858C331.092 1.77344 331.092 1.77344 331.092 2.00792V89.9388C331.092 90.1733 331.092 90.1733 330.858 90.1733H320.779C320.544 90.1733 320.544 90.1733 320.544 89.9388V2.00792C320.544 2.00792 320.544 1.77344 320.779 1.77344Z" fill="black"/>
<path d="M12.5533 90.1742H2.00567C2.00567 90.1742 1.77128 90.1742 1.77128 89.9398C1.77128 81.0294 1.77128 72.3536 1.77128 63.6777C1.77128 56.6432 1.3025 49.3742 2.47445 42.3398C4.34958 31.0846 11.6157 25.2225 23.1009 23.3468C25.9136 22.8778 28.7263 22.8778 31.539 22.6433C33.4142 22.6433 35.2893 22.6433 37.6332 22.6433C37.8676 22.6433 37.8676 22.6433 37.8676 22.8778V33.4294C37.8676 33.6639 37.8676 33.6639 37.6332 33.6639C34.5861 33.6639 31.539 33.6639 28.4919 33.6639C18.4131 34.1329 13.0221 39.526 12.7877 49.3742C12.5533 61.0984 12.7877 72.8225 12.7877 84.5467C12.7877 86.188 12.7877 87.8294 12.7877 89.7053C12.7877 90.1742 12.7877 90.1742 12.5533 90.1742Z" fill="black"/>
<path d="M13.4909 126.284L5.28717 104.711C5.52156 106.353 5.52156 108.463 5.52156 110.808V126.284H2.70886V101.897H6.92791L14.6628 122.063H14.8972L22.6321 101.897H26.8512V126.284H24.0385V110.573C24.0385 108.697 24.0385 106.822 24.2729 104.711L15.8348 126.284H13.4909Z" fill="black"/>
<path d="M44.4306 126.284L43.9618 123.704H43.7274C42.7898 124.877 41.8522 125.58 40.9147 126.049C39.9771 126.518 38.8052 126.753 37.6332 126.753C35.7581 126.753 34.3517 126.284 33.4142 125.346C32.4766 124.408 31.7734 123.001 31.7734 121.36C31.7734 117.608 34.8205 115.732 40.6803 115.497H43.7274V114.325C43.7274 112.918 43.493 111.746 42.7898 111.042C42.0866 110.339 41.1491 110.104 39.7427 110.104C38.3364 110.104 36.4612 110.573 34.5861 111.511L33.6485 109.401C34.5861 108.932 35.5237 108.463 36.6956 108.228C37.8676 107.994 38.8052 107.76 39.9771 107.76C42.0866 107.76 43.7274 108.228 44.8993 109.166C45.8369 110.104 46.5401 111.746 46.5401 113.856V126.284H44.4306ZM38.102 124.408C39.7427 124.408 41.1491 123.939 42.0866 123.001C43.0242 122.063 43.493 120.656 43.493 119.015V117.373H40.6803C38.5708 117.373 36.93 117.842 35.9925 118.311C35.0549 119.015 34.5861 119.953 34.5861 121.125C34.5861 122.063 34.8205 123.001 35.5237 123.47C36.2269 124.173 37.1644 124.408 38.102 124.408Z" fill="black"/>
<path d="M64.5882 126.284V114.56C64.5882 113.153 64.3538 111.98 63.6507 111.277C62.9475 110.573 62.0099 110.104 60.3692 110.104C58.4941 110.104 57.0877 110.573 56.1501 111.746C55.2126 112.918 54.7438 114.56 54.7438 116.904V126.518H51.9311V108.229H54.275L54.7438 110.808H54.9782C55.447 109.87 56.3845 109.167 57.3221 108.698C58.2597 108.229 59.4316 107.994 60.838 107.994C62.9475 107.994 64.5882 108.463 65.7602 109.636C66.9321 110.808 67.4009 112.449 67.4009 114.794V126.753H64.5882V126.284Z" fill="black"/>
<path d="M84.2771 126.284L83.8083 123.704H83.5739C82.6364 124.877 81.6988 125.58 80.7612 126.049C79.8237 126.518 78.6517 126.753 77.4798 126.753C75.6046 126.753 74.1983 126.284 73.2607 125.346C72.3231 124.408 71.62 123.001 71.62 121.36C71.62 117.608 74.6671 115.732 80.5269 115.497H83.5739V114.325C83.5739 112.918 83.3395 111.746 82.6364 111.042C81.9332 110.339 80.9956 110.104 79.5893 110.104C78.1829 110.104 76.3078 110.573 74.4327 111.511L73.4951 109.401C74.4327 108.932 75.3702 108.463 76.5422 108.228C77.7142 107.994 78.6517 107.76 79.8237 107.76C81.9332 107.76 83.5739 108.228 84.7459 109.166C85.6835 110.104 86.3866 111.746 86.3866 113.856V126.284H84.2771ZM77.9485 124.408C79.5893 124.408 80.9956 123.939 81.9332 123.001C82.8708 122.063 83.3395 120.656 83.3395 119.015V117.373H80.5269C78.4173 117.373 76.7766 117.842 75.839 118.311C74.9015 119.015 74.4327 119.953 74.4327 121.125C74.4327 122.063 74.6671 123.001 75.3702 123.47C76.0734 124.173 77.011 124.408 77.9485 124.408Z" fill="black"/>
<path d="M107.013 107.994V109.635L103.732 110.104C103.966 110.573 104.435 111.042 104.669 111.511C104.904 111.98 105.138 112.918 105.138 113.622C105.138 115.498 104.435 116.904 103.263 117.842C102.091 118.78 100.45 119.484 98.3406 119.484C97.8718 119.484 97.1686 119.484 96.6999 119.249C95.5279 119.953 94.8247 120.656 94.8247 121.594C94.8247 122.063 95.0591 122.532 95.5279 122.767C95.9967 123.001 96.6999 123.235 97.6374 123.235H100.919C102.794 123.235 104.435 123.704 105.372 124.408C106.544 125.346 107.013 126.518 107.013 127.925C107.013 130.035 106.31 131.442 104.669 132.615C103.028 133.787 100.685 134.256 97.6374 134.256C95.2935 134.256 93.4184 133.787 92.012 132.849C90.6057 131.911 90.1369 130.739 90.1369 129.098C90.1369 127.925 90.6057 126.987 91.3089 126.284C92.012 125.58 92.9496 124.877 94.3559 124.642C93.8872 124.408 93.4184 124.173 93.184 123.704C92.9496 123.235 92.7152 122.767 92.7152 122.063C92.7152 121.36 92.9496 120.891 93.184 120.422C93.6528 119.953 94.1216 119.484 94.8247 119.015C93.8872 118.546 93.184 118.077 92.4808 117.139C91.7776 116.201 91.5432 115.029 91.5432 113.856C91.5432 111.746 92.2464 110.339 93.4184 109.167C94.5903 107.994 96.2311 107.525 98.575 107.525C99.5126 107.525 100.45 107.525 101.153 107.76L107.013 107.994ZM92.4808 129.332C92.4808 130.27 92.9496 130.973 93.6528 131.677C94.5903 132.146 95.7623 132.38 97.1686 132.38C99.5126 132.38 101.153 132.146 102.325 131.442C103.497 130.739 103.966 129.801 103.966 128.629C103.966 127.691 103.732 126.987 103.028 126.518C102.325 126.049 101.153 126.049 99.5126 126.049H96.2311C95.0591 126.049 93.8872 126.284 93.4184 126.987C92.9496 127.691 92.4808 128.16 92.4808 129.332ZM93.8872 113.856C93.8872 115.029 94.3559 116.201 95.0591 116.67C95.7623 117.373 96.6999 117.608 98.1062 117.608C100.919 117.608 102.091 116.201 102.091 113.622C102.091 110.808 100.685 109.401 98.1062 109.401C96.6999 109.401 95.7623 109.635 95.0591 110.339C94.3559 111.042 93.8872 112.449 93.8872 113.856Z" fill="black"/>
<path d="M118.498 126.753C115.686 126.753 113.576 125.815 112.17 124.173C110.763 122.532 109.826 120.187 109.826 117.373C109.826 114.325 110.529 111.98 111.935 110.339C113.342 108.697 115.217 107.76 117.795 107.76C120.139 107.76 121.78 108.463 123.186 110.104C124.592 111.511 125.296 113.622 125.296 115.966V117.608H112.638C112.638 119.718 113.342 121.36 114.279 122.532C115.217 123.704 116.858 124.173 118.733 124.173C120.608 124.173 122.717 123.704 124.592 123.001V125.346C123.655 125.815 122.717 126.049 121.78 126.284C120.842 126.518 119.67 126.753 118.498 126.753ZM117.561 110.104C116.154 110.104 114.982 110.573 114.045 111.511C113.107 112.449 112.638 113.856 112.404 115.497H122.014C122.014 113.856 121.545 112.449 120.842 111.511C120.139 110.573 119.201 110.104 117.561 110.104Z" fill="black"/>
<path d="M135.843 107.994H138.89L142.875 118.311C143.813 120.656 144.281 122.298 144.516 123.47H144.75C144.985 123.001 145.219 121.829 145.688 120.656C146.156 119.249 147.563 115.029 150.141 107.994H153.188L145.453 128.863C144.75 130.973 143.813 132.38 142.641 133.318C141.469 134.256 140.297 134.725 138.89 134.725C137.953 134.725 137.25 134.725 136.312 134.491V132.38C137.015 132.615 137.718 132.615 138.422 132.615C140.297 132.615 141.703 131.442 142.406 129.332L143.344 126.753L135.843 107.994Z" fill="black"/>
<path d="M171.705 117.139C171.705 120.187 171.002 122.532 169.361 124.173C167.955 125.815 165.845 126.753 163.267 126.753C161.626 126.753 160.22 126.284 158.814 125.58C157.642 124.877 156.47 123.704 156.001 122.297C155.298 120.891 155.063 119.249 155.063 117.373C155.063 114.325 155.767 111.98 157.407 110.339C158.814 108.697 160.923 107.76 163.501 107.76C166.08 107.76 168.189 108.697 169.596 110.339C170.768 111.98 171.705 114.325 171.705 117.139ZM157.642 117.139C157.642 119.484 158.11 121.36 159.048 122.532C159.986 123.704 161.392 124.408 163.267 124.408C165.142 124.408 166.549 123.704 167.486 122.532C168.424 121.36 168.892 119.484 168.892 117.139C168.892 114.794 168.424 113.153 167.486 111.746C166.549 110.573 165.142 109.87 163.267 109.87C161.392 109.87 159.986 110.573 159.282 111.746C158.11 113.153 157.642 114.794 157.642 117.139Z" fill="black"/>
<path d="M178.971 107.994V119.953C178.971 121.36 179.206 122.532 179.909 123.236C180.612 123.939 181.55 124.408 183.19 124.408C185.065 124.408 186.472 123.939 187.409 122.767C188.347 121.829 188.816 119.953 188.816 117.608V107.994H191.628V126.284H189.285L188.816 123.939H188.581C188.113 124.877 187.175 125.58 186.237 126.049C185.3 126.518 184.128 126.753 182.722 126.753C180.612 126.753 178.737 126.284 177.799 125.111C176.862 123.939 176.159 122.298 176.159 119.953V107.994H178.971Z" fill="black"/>
<path d="M205.692 107.76C206.395 107.76 207.333 107.76 207.801 107.994L207.333 110.573C206.63 110.339 205.926 110.339 205.223 110.339C203.817 110.339 202.41 111.042 201.473 112.215C200.535 113.387 199.832 114.794 199.832 116.67V126.518H197.019V108.228H199.363L199.598 111.511H199.832C200.535 110.339 201.238 109.401 202.176 108.697C203.582 107.994 204.52 107.76 205.692 107.76Z" fill="black"/>
<path d="M228.428 110.104H223.74V126.284H220.927V110.104H217.646V108.932L220.927 107.994V107.056C220.927 102.601 222.803 100.256 226.787 100.256C227.725 100.256 228.897 100.491 230.069 100.725L229.365 102.835C228.194 102.601 227.49 102.366 226.553 102.366C225.615 102.366 224.678 102.601 224.209 103.304C223.74 104.008 223.506 105.18 223.506 106.587V107.76H228.194L228.428 110.104ZM234.523 126.284H231.709V100.491H234.523V126.284Z" fill="black"/>
<path d="M248.118 126.753C245.305 126.753 243.195 125.815 241.789 124.173C240.383 122.532 239.445 120.187 239.445 117.373C239.445 114.325 240.148 111.98 241.555 110.339C242.961 108.697 244.836 107.76 247.414 107.76C249.758 107.76 251.399 108.463 252.805 110.104C254.212 111.511 254.915 113.622 254.915 115.966V117.608H242.258C242.258 119.718 242.961 121.36 243.898 122.532C244.836 123.704 246.477 124.173 248.352 124.173C250.227 124.173 252.337 123.704 254.212 123.001V125.346C253.274 125.815 252.337 126.049 251.399 126.284C250.461 126.518 249.289 126.753 248.118 126.753ZM247.414 110.104C246.008 110.104 244.836 110.573 243.898 111.511C242.961 112.449 242.492 113.856 242.258 115.497H251.868C251.868 113.856 251.399 112.449 250.696 111.511C249.758 110.573 248.821 110.104 247.414 110.104Z" fill="black"/>
<path d="M267.103 126.753C264.291 126.753 262.181 125.815 260.775 124.173C259.368 122.532 258.431 120.187 258.431 117.373C258.431 114.325 259.134 111.98 260.54 110.339C261.947 108.697 263.822 107.76 266.4 107.76C268.744 107.76 270.385 108.463 271.791 110.104C273.197 111.511 273.901 113.622 273.901 115.966V117.608H261.243C261.243 119.718 261.947 121.36 262.884 122.532C263.822 123.704 265.462 124.173 267.338 124.173C269.213 124.173 271.322 123.704 273.197 123.001V125.346C272.26 125.815 271.322 126.049 270.385 126.284C269.447 126.518 268.51 126.753 267.103 126.753ZM266.4 110.104C264.994 110.104 263.822 110.573 262.884 111.511C261.947 112.449 261.478 113.856 261.243 115.497H270.853C270.853 113.856 270.385 112.449 269.682 111.511C268.978 110.573 267.806 110.104 266.4 110.104Z" fill="black"/>
<path d="M284.448 124.408C284.917 124.408 285.386 124.408 285.855 124.408C286.323 124.408 286.558 124.173 287.027 124.173V126.284C286.792 126.518 286.323 126.518 285.62 126.753C285.151 126.753 284.448 126.987 283.979 126.987C280.464 126.987 278.588 125.111 278.588 121.36V110.573H276.01V108.932L278.588 107.76L279.76 103.773H281.401V107.994H286.792V110.104H281.401V120.891C281.401 122.063 281.636 122.767 282.104 123.47C282.573 124.173 283.511 124.408 284.448 124.408Z" fill="black"/>
<path d="M302.262 126.284H299.449V100.491H302.262V126.284Z" fill="black"/>
<path d="M307.887 103.07C307.887 102.367 308.122 101.898 308.356 101.663C308.591 101.429 309.059 101.194 309.528 101.194C309.997 101.194 310.466 101.429 310.7 101.663C310.934 101.898 311.169 102.367 311.169 103.07C311.169 103.773 310.934 104.242 310.7 104.477C310.466 104.711 309.997 104.946 309.528 104.946C309.059 104.946 308.591 104.711 308.356 104.477C308.122 104.242 307.887 103.773 307.887 103.07ZM310.934 126.284H308.122V107.994H310.934V126.284Z" fill="black"/>
<path d="M319.607 116.905C320.076 116.201 320.779 115.263 321.716 114.325L327.576 107.994H330.858L323.357 115.732L331.327 126.284H328.045L321.716 117.608L319.607 119.484V126.284H316.794V100.491H319.607V114.325C319.607 114.794 319.373 115.732 319.607 116.905Z" fill="black"/>
<path d="M342.343 126.753C339.53 126.753 337.421 125.815 336.014 124.173C334.608 122.532 333.67 120.187 333.67 117.373C333.67 114.325 334.374 111.98 335.78 110.339C337.186 108.697 339.061 107.76 341.64 107.76C343.984 107.76 345.624 108.463 347.031 110.104C348.437 111.511 349.14 113.622 349.14 115.966V117.608H336.483C336.483 119.718 337.186 121.36 338.124 122.532C339.061 123.704 340.702 124.173 342.577 124.173C344.452 124.173 346.562 123.704 348.437 123.001V125.346C347.5 125.815 346.562 126.049 345.624 126.284C344.687 126.518 343.515 126.753 342.343 126.753ZM341.64 110.104C340.233 110.104 339.061 110.573 338.124 111.511C337.186 112.449 336.717 113.856 336.483 115.497H346.093C346.093 113.856 345.624 112.449 344.921 111.511C344.218 110.573 343.046 110.104 341.64 110.104Z" fill="black"/>
<path d="M373.986 126.284L373.517 123.704H373.283C372.345 124.877 371.407 125.58 370.47 126.049C369.532 126.518 368.36 126.753 367.188 126.753C365.313 126.753 363.907 126.284 362.969 125.346C362.032 124.408 361.329 123.001 361.329 121.36C361.329 117.608 364.376 115.732 370.235 115.497H373.283V114.325C373.283 112.918 373.048 111.746 372.345 111.042C371.642 110.339 370.704 110.104 369.298 110.104C367.892 110.104 366.016 110.573 364.141 111.511L363.204 109.401C364.141 108.932 365.079 108.463 366.251 108.228C367.423 107.994 368.36 107.76 369.532 107.76C371.642 107.76 373.283 108.228 374.455 109.166C375.392 110.104 376.095 111.746 376.095 113.856V126.284H373.986ZM367.657 124.408C369.298 124.408 370.704 123.939 371.642 123.001C372.579 122.063 373.048 120.656 373.048 119.015V117.373H370.235C368.126 117.373 366.485 117.842 365.548 118.311C364.61 119.015 364.141 119.953 364.141 121.125C364.141 122.063 364.376 123.001 365.079 123.47C365.782 124.173 366.485 124.408 367.657 124.408Z" fill="black"/>
<path d="M406.332 109.166C406.332 111.746 405.394 113.622 403.753 114.794C402.113 116.201 399.769 116.67 396.487 116.67H393.675V126.284H390.862V101.897H397.191C403.285 101.897 406.332 104.242 406.332 109.166ZM393.675 114.325H396.253C398.831 114.325 400.472 113.856 401.644 113.153C402.816 112.449 403.285 111.042 403.285 109.166C403.285 107.525 402.816 106.353 401.644 105.649C400.472 104.946 398.831 104.477 396.722 104.477H393.675V114.325Z" fill="black"/>
<path d="M419.223 107.76C419.926 107.76 420.864 107.76 421.333 107.994L420.864 110.573C420.161 110.339 419.458 110.339 418.755 110.339C417.348 110.339 415.942 111.042 415.004 112.215C414.067 113.387 413.364 114.794 413.364 116.67V126.518H410.551V108.228H412.895L413.129 111.511H413.364C414.067 110.339 414.77 109.401 415.707 108.697C417.114 107.994 418.286 107.76 419.223 107.76Z" fill="black"/>
<path d="M440.787 117.139C440.787 120.187 440.084 122.532 438.443 124.173C437.037 125.815 434.928 126.753 432.349 126.753C430.709 126.753 429.302 126.284 427.896 125.58C426.724 124.877 425.552 123.704 425.083 122.297C424.38 120.891 424.146 119.249 424.146 117.373C424.146 114.325 424.849 111.98 426.489 110.339C427.896 108.697 430.005 107.76 432.584 107.76C435.162 107.76 437.271 108.697 438.678 110.339C439.85 111.98 440.787 114.325 440.787 117.139ZM426.724 117.139C426.724 119.484 427.193 121.36 428.13 122.532C429.068 123.704 430.474 124.408 432.349 124.408C434.224 124.408 435.631 123.704 436.568 122.532C437.506 121.36 437.975 119.484 437.975 117.139C437.975 114.794 437.506 113.153 436.568 111.746C435.631 110.573 434.224 109.87 432.349 109.87C430.474 109.87 429.068 110.573 428.365 111.746C427.193 113.153 426.724 114.794 426.724 117.139Z" fill="black"/>
</svg>
