<?xml version="1.0" encoding="utf-8"?>
<!-- Generator: Adobe Illustrator 25.0.0, SVG Export Plug-In . SVG Version: 6.00 Build 0)  -->
<svg version="1.1" id="Layer_1" xmlns="http://www.w3.org/2000/svg" xmlns:xlink="http://www.w3.org/1999/xlink" x="0px" y="0px"
	 viewBox="0 0 187.6 56.9" style="enable-background:new 0 0 187.6 56.9;" xml:space="preserve">
<style type="text/css">
	.st0{display:none;fill:#3D50A3;}
	.st1{fill:#F4CB13;}
	.st2{fill:#555555;}
</style>
<path class="st0" d="M977.6,501.9c0,0-9.6-13.7-14.4-20.3c-0.6-0.8-1.4-1.9-2.1-2c-2.7-0.2-5.5-0.1-8.7-0.1c1.1,1.5,1.7,2.6,2.4,3.6
	c5.5,7.7,10.9,15.4,16.4,22.9c1.4,1.9,1.5,3.1,0.1,5.1c-5.8,7.9-11.5,15.9-17.2,23.9c-0.8,1.1-1.6,2.3-2.7,3.9c1.7,0,2.9,0.1,4.1,0
	c5.3-0.3,6-0.9,8.1-4c4.3-6.6,13.9-19.6,13.9-19.6C981.1,510.8,981.5,506.8,977.6,501.9z"/>
<g>
	<path class="st1" d="M152.7,1.3c-0.4-0.5-0.9-1.2-1.4-1.3c-1.6-0.1-3.3,0-5.3,0c-0.1,0-0.1,0.1-0.1,0.2c0.6,0.9,1,1.5,1.4,2.1
		c3.5,4.9,6.9,9.8,10.5,14.6c0.9,1.2,1,2,0,3.2c-3.7,5-7.3,10.2-11,15.3c-0.5,0.7-1,1.4-1.6,2.4c0,0.1,0,0.2,0.1,0.2
		c1,0,1.7,0.1,2.4,0c3.4-0.2,3.8-0.6,5.2-2.6c2.3-3.5,9.1-13,11.3-16.1c0.4-0.6,0.4-1.4,0-2L152.7,1.3z"/>
	<path d="M161.8,1.3c-0.4-0.5-0.9-1.2-1.4-1.3c-1.7-0.1-3.4-0.1-5.4-0.1c0,0.1,0,0.2,0,0.3c0.6,0.9,1,1.5,1.4,2.1
		c3.5,4.9,6.9,9.8,10.5,14.6c0.9,1.2,1,2,0,3.2c-3.7,5-7.3,10.2-11,15.3c-0.5,0.7-1,1.4-1.6,2.4c0,0.1,0,0.2,0.1,0.2
		c1,0,2.4,0,2.4,0c3.4-0.2,3.8-0.6,5.2-2.6c2.3-3.5,9.1-13,11.3-16.1c0.4-0.6,0.4-1.4,0-2L161.8,1.3z"/>
	<path d="M172.5,12.8v-0.1l8.2-11.3c0.4-0.5,0.9-1.2,1.4-1.3c1.7-0.2,3.4-0.1,5.4-0.1c0.1,0,0.1,0.1,0.1,0.2c-0.6,0.9-1,1.5-1.4,2.1
		c-2.9,4-9.7,13.3-10.6,14.4c0,0.1-0.1,0.1-0.2,0L172.5,12.8z M171.8,24.8v0.1l8.5,11.7c0.4,0.5,0.9,1.2,1.4,1.3
		c1.7,0.2,3.4,0.1,5.4,0.1c0.1,0,0.1-0.1,0.1-0.2c-0.6-0.9-1-1.5-1.4-2.1c-3.3-4.6-10-13.7-10.9-14.8c0-0.1-0.1-0.1-0.2,0
		L171.8,24.8z"/>
	<path d="M130.5,37.4h-4.4c-0.1,0-0.1,0-0.1-0.1c0-0.5,0-2.5,0-3.2c0-0.1-0.1-0.1-0.2-0.1c-3.6,3.4-7.7,4.6-12.2,3.8
		c-3.4-0.6-6.1-2.4-8.3-5.1c-4.6-5.6-4.5-14.2,0.3-19.7c5.2-6,13.5-6.8,20.3-1.2h0.1c1.1-1.2,2.3-2.4,3.6-2.8c0.5-0.2,1,0.2,1,0.7
		v27.5C130.6,37.4,130.6,37.4,130.5,37.4z M125.6,22.6c0-5.7-4.8-10.5-10.4-9.8c-4.4,0.6-7.4,3.4-8.4,8.1c-0.9,4.3,0.9,9,4.5,11.2
		c3,1.8,6.1,1.9,9.1,0.3C124.1,30.4,125.6,27.1,125.6,22.6z"/>
	<path d="M45.3,24.4H30.7c-0.1,0-0.1,0-0.1-0.1v-3.9c0-0.1,0-0.1,0.1-0.1h9c0.1,0,0.1,0,0.1-0.1c-0.1-3.3-3.3-6.6-6.8-7.2
		c-3.7-0.6-6.8,0.4-9,3.3c-2.7,3.5-3.1,7.5-1.3,11.5c3,6.6,11.2,7.6,15.8,2.1c0.4-0.5,1.3-0.9,2-0.9c1.2-0.1,2.4,0,3.6,0
		c0.1,0,0.1,0.1,0.1,0.1c-1.4,5.9-8.8,10-15.6,8.8c-7.5-1.3-12.8-9.1-11.7-17.1S25.2,7.4,33.3,8.3C40.5,9.2,46.1,16.5,45.3,24.4
		C45.4,24.3,45.3,24.4,45.3,24.4z"/>
	<path d="M50.6,9.4h1.6c1.5,0,2.7,1.1,2.8,2.6v0.6c0.4-0.3,0.7-0.4,1-0.6c4.4-3.6,9.3-4.2,14.4-2.1c5.1,2,7.6,6.2,8,11.4
		c0.4,5.5,0.1,11,0.1,16.6c0,0.1,0,0.1-0.1,0.1h-4.1c-0.1,0-0.1,0-0.1-0.1c0-4.2,0-8.5,0-12.7c0-1.4-0.1-2.8-0.4-4.1
		c-1.1-5-5.2-8-10.1-7.6c-4.7,0.4-8.5,4.4-8.7,9.3c-0.1,4.3-0.1,8.7-0.1,13c0,0.7,0,1.3,0,2.1c0,0.1,0,0.1-0.1,0.1h-4.3
		c-0.1,0-0.1,0-0.1-0.1V9.5C50.5,9.4,50.6,9.4,50.6,9.4z"/>
	<path d="M85.7,0.1h2.7c0.1,0,0.1,0,0.1,0.1v8.9c0,0.1,0,0.1,0.1,0.1h8c0.1,0,0.1,0,0.1,0.1v4.1c0,0.1,0,0.1-0.1,0.1h-7.8
		c-0.1,0-0.1,0-0.1,0.1c0,5.2-0.2,10.1,0.1,15.1c0.2,2.7,2.8,4.5,5.9,4.7c1.2,0.1,2.3,0,3.6,0c0.1,0,0.1,0,0.1,0.1v4.3
		c0,0.1,0,0.1-0.1,0.1C92.2,38.8,87,36.7,85,32.1c-0.5-1.1-1-2.3-1-3.4c-0.1-8.9,0-17.8,0-26.9C84,0.9,84.8,0.1,85.7,0.1z"/>
	<path d="M136.1,0.3h4.3c0.1,0,0.1,0,0.1,0.1v37.5c0,0.1,0,0.1-0.1,0.1h-4.3c-0.1,0-0.1,0-0.1-0.1V0.4C136,0.4,136,0.3,136.1,0.3z"
		/>
	<path d="M4.6,38H0.1c0,0-0.1,0-0.1-0.1c0-3.8,0-7.5,0-11.2c0-3-0.2-6.1,0.3-9.1c0.8-4.8,3.9-7.3,8.8-8.1c1.2-0.2,2.4-0.2,3.6-0.3
		c0.8,0,1.6,0,2.6,0c0.1,0,0.1,0,0.1,0.1v4.5c0,0.1,0,0.1-0.1,0.1c-1.3,0-2.6,0-3.9,0c-4.3,0.2-6.6,2.5-6.7,6.7c-0.1,5,0,10,0,15
		c0,0.7,0,1.4,0,2.2C4.7,38,4.7,38,4.6,38z"/>
</g>
<g>
	<path class="st2" d="M5,53.4l-3.5-9.2l0,0c0.1,0.7,0.1,1.6,0.1,2.6v6.6H0.4V43h1.8l3.3,8.6h0.1L8.9,43h1.8v10.4H9.5v-6.7
		c0-0.8,0-1.6,0.1-2.5l0,0L6,53.4H5z"/>
	<path class="st2" d="M18.2,53.4L18,52.3h-0.1c-0.4,0.5-0.8,0.8-1.2,1c-0.4,0.2-0.9,0.3-1.4,0.3c-0.8,0-1.4-0.2-1.8-0.6
		s-0.7-1-0.7-1.7c0-1.6,1.3-2.4,3.8-2.5h1.3v-0.5c0-0.6-0.1-1.1-0.4-1.4c-0.3-0.3-0.7-0.4-1.3-0.4c-0.6,0-1.4,0.2-2.2,0.6l-0.4-0.9
		c0.4-0.2,0.8-0.4,1.3-0.5s0.9-0.2,1.4-0.2c0.9,0,1.6,0.2,2.1,0.6c0.4,0.4,0.7,1.1,0.7,2v5.3C19.1,53.4,18.2,53.4,18.2,53.4z
		 M15.5,52.6c0.7,0,1.3-0.2,1.7-0.6c0.4-0.4,0.6-1,0.6-1.7v-0.7h-1.2c-0.9,0-1.6,0.2-2,0.4c-0.4,0.3-0.6,0.7-0.6,1.2
		c0,0.4,0.1,0.8,0.4,1C14.7,52.5,15.1,52.6,15.5,52.6z"/>
	<path class="st2" d="M26.8,53.4v-5c0-0.6-0.1-1.1-0.4-1.4s-0.7-0.5-1.4-0.5c-0.8,0-1.4,0.2-1.8,0.7s-0.6,1.2-0.6,2.2v4.1h-1.2v-7.8
		h1l0.2,1.1h0.1c0.2-0.4,0.6-0.7,1-0.9s0.9-0.3,1.5-0.3c0.9,0,1.6,0.2,2.1,0.7s0.7,1.2,0.7,2.2v5.1h-1.2
		C26.8,53.6,26.8,53.4,26.8,53.4z"/>
	<path class="st2" d="M35.2,53.4L35,52.3h-0.1c-0.4,0.5-0.8,0.8-1.2,1s-0.9,0.3-1.4,0.3c-0.8,0-1.4-0.2-1.8-0.6s-0.7-1-0.7-1.7
		c0-1.6,1.3-2.4,3.8-2.5h1.3v-0.5c0-0.6-0.1-1.1-0.4-1.4c-0.3-0.3-0.7-0.4-1.3-0.4s-1.4,0.2-2.2,0.6l-0.4-0.9
		c0.4-0.2,0.8-0.4,1.3-0.5c0.5-0.1,0.9-0.2,1.4-0.2c0.9,0,1.6,0.2,2.1,0.6c0.4,0.4,0.7,1.1,0.7,2v5.3L35.2,53.4L35.2,53.4z
		 M32.5,52.6c0.7,0,1.3-0.2,1.7-0.6c0.4-0.4,0.6-1,0.6-1.7v-0.7h-1.2c-0.9,0-1.6,0.2-2,0.4c-0.4,0.3-0.6,0.7-0.6,1.2
		c0,0.4,0.1,0.8,0.4,1C31.7,52.5,32.1,52.6,32.5,52.6z"/>
	<path class="st2" d="M44.9,45.6v0.7l-1.4,0.2c0.1,0.2,0.3,0.4,0.4,0.6s0.2,0.6,0.2,0.9c0,0.8-0.3,1.4-0.8,1.8s-1.2,0.7-2.1,0.7
		c-0.2,0-0.5,0-0.7-0.1c-0.5,0.3-0.8,0.6-0.8,1c0,0.2,0.1,0.4,0.3,0.5s0.5,0.2,0.9,0.2h1.4c0.8,0,1.5,0.2,1.9,0.5
		c0.5,0.4,0.7,0.9,0.7,1.5c0,0.9-0.3,1.5-1,2s-1.7,0.7-3,0.7c-1,0-1.8-0.2-2.4-0.6s-0.8-0.9-0.8-1.6c0-0.5,0.2-0.9,0.5-1.2
		s0.7-0.6,1.3-0.7c-0.2-0.1-0.4-0.2-0.5-0.4s-0.2-0.4-0.2-0.7s0.1-0.5,0.2-0.7c0.2-0.2,0.4-0.4,0.7-0.6c-0.4-0.2-0.7-0.4-1-0.8
		s-0.4-0.9-0.4-1.4c0-0.9,0.3-1.5,0.8-2s1.2-0.7,2.2-0.7c0.4,0,0.8,0,1.1,0.1L44.9,45.6L44.9,45.6z M38.7,54.7c0,0.4,0.2,0.7,0.5,1
		c0.4,0.2,0.9,0.3,1.5,0.3c1,0,1.7-0.1,2.2-0.4c0.5-0.3,0.7-0.7,0.7-1.2c0-0.4-0.1-0.7-0.4-0.9c-0.3-0.2-0.8-0.2-1.5-0.2h-1.4
		c-0.5,0-1,0.1-1.2,0.4S38.7,54.2,38.7,54.7z M39.3,48.1c0,0.5,0.2,1,0.5,1.2c0.3,0.3,0.7,0.4,1.3,0.4c1.2,0,1.7-0.6,1.7-1.7
		c0-1.2-0.6-1.8-1.7-1.8c-0.6,0-1,0.1-1.3,0.4S39.3,47.5,39.3,48.1z"/>
	<path class="st2" d="M49.8,53.6c-1.2,0-2.1-0.4-2.7-1.1s-1-1.7-1-2.9c0-1.3,0.3-2.3,0.9-3c0.6-0.7,1.4-1.1,2.5-1.1
		c1,0,1.7,0.3,2.3,1c0.6,0.6,0.9,1.5,0.9,2.5v0.7h-5.4c0,0.9,0.3,1.6,0.7,2.1s1.1,0.7,1.9,0.7c0.8,0,1.7-0.2,2.5-0.5v1
		c-0.4,0.2-0.8,0.3-1.2,0.4S50.3,53.6,49.8,53.6z M49.4,46.5c-0.6,0-1.1,0.2-1.5,0.6s-0.6,1-0.7,1.7h4.1c0-0.7-0.2-1.3-0.5-1.7
		C50.5,46.7,50.1,46.5,49.4,46.5z"/>
	<path class="st2" d="M57.2,45.6h1.3l1.7,4.4c0.4,1,0.6,1.7,0.7,2.2H61c0.1-0.2,0.2-0.7,0.4-1.2c0.2-0.6,0.8-2.4,1.9-5.4h1.3
		l-3.3,8.9c-0.3,0.9-0.7,1.5-1.2,1.9s-1,0.6-1.6,0.6c-0.4,0-0.7,0-1.1-0.1V56c0.3,0.1,0.6,0.1,0.9,0.1c0.8,0,1.4-0.5,1.7-1.4
		l0.4-1.1L57.2,45.6z"/>
	<path class="st2" d="M72.5,49.5c0,1.3-0.3,2.3-1,3c-0.6,0.7-1.5,1.1-2.6,1.1c-0.7,0-1.3-0.2-1.9-0.5c-0.5-0.3-1-0.8-1.2-1.4
		c-0.3-0.6-0.4-1.3-0.4-2.1c0-1.3,0.3-2.3,1-3c0.6-0.7,1.5-1.1,2.6-1.1s2,0.4,2.6,1.1C72.1,47.3,72.5,48.3,72.5,49.5z M66.5,49.5
		c0,1,0.2,1.8,0.6,2.3s1,0.8,1.8,0.8s1.4-0.3,1.8-0.8s0.6-1.3,0.6-2.3s-0.2-1.7-0.6-2.3c-0.4-0.5-1-0.8-1.8-0.8s-1.4,0.3-1.7,0.8
		C66.7,47.8,66.5,48.5,66.5,49.5z"/>
	<path class="st2" d="M75.6,45.6v5.1c0,0.6,0.1,1.1,0.4,1.4c0.3,0.3,0.7,0.5,1.4,0.5c0.8,0,1.4-0.2,1.8-0.7c0.4-0.4,0.6-1.2,0.6-2.2
		v-4.1H81v7.8h-1l-0.2-1h-0.1c-0.2,0.4-0.6,0.7-1,0.9s-0.9,0.3-1.5,0.3c-0.9,0-1.7-0.2-2.1-0.7s-0.7-1.2-0.7-2.2v-5.1H75.6z"/>
	<path class="st2" d="M87,45.5c0.3,0,0.7,0,0.9,0.1l-0.2,1.1c-0.3-0.1-0.6-0.1-0.9-0.1c-0.6,0-1.2,0.3-1.6,0.8s-0.7,1.1-0.7,1.9v4.2
		h-1.2v-7.8h1l0.1,1.4h0.1c0.3-0.5,0.6-0.9,1-1.2C86.1,45.6,86.5,45.5,87,45.5z"/>
	<path class="st2" d="M96.7,46.5h-2v6.9h-1.2v-6.9h-1.4V46l1.4-0.4v-0.4c0-1.9,0.8-2.9,2.5-2.9c0.4,0,0.9,0.1,1.4,0.2l-0.3,0.9
		c-0.5-0.1-0.8-0.2-1.2-0.2c-0.4,0-0.8,0.1-1,0.4c-0.2,0.3-0.3,0.8-0.3,1.4v0.5h2L96.7,46.5L96.7,46.5z M99.3,53.4h-1.2v-11h1.2
		V53.4z"/>
	<path class="st2" d="M105.1,53.6c-1.2,0-2.1-0.4-2.7-1.1s-1-1.7-1-2.9c0-1.3,0.3-2.3,0.9-3s1.4-1.1,2.5-1.1c1,0,1.7,0.3,2.3,1
		c0.6,0.6,0.9,1.5,0.9,2.5v0.7h-5.4c0,0.9,0.3,1.6,0.7,2.1s1.1,0.7,1.9,0.7s1.7-0.2,2.5-0.5v1c-0.4,0.2-0.8,0.3-1.2,0.4
		S105.6,53.6,105.1,53.6z M104.8,46.5c-0.6,0-1.1,0.2-1.5,0.6s-0.6,1-0.7,1.7h4.1c0-0.7-0.2-1.3-0.5-1.7
		C105.8,46.7,105.4,46.5,104.8,46.5z"/>
	<path class="st2" d="M113.2,53.6c-1.2,0-2.1-0.4-2.7-1.1s-1-1.7-1-2.9c0-1.3,0.3-2.3,0.9-3s1.4-1.1,2.5-1.1c1,0,1.7,0.3,2.3,1
		c0.6,0.6,0.9,1.5,0.9,2.5v0.7h-5.4c0,0.9,0.3,1.6,0.7,2.1s1.1,0.7,1.9,0.7s1.7-0.2,2.5-0.5v1c-0.4,0.2-0.8,0.3-1.2,0.4
		S113.8,53.6,113.2,53.6z M112.9,46.5c-0.6,0-1.1,0.2-1.5,0.6s-0.6,1-0.7,1.7h4.1c0-0.7-0.2-1.3-0.5-1.7
		C114,46.7,113.5,46.5,112.9,46.5z"/>
	<path class="st2" d="M120.6,52.6c0.2,0,0.4,0,0.6,0s0.3-0.1,0.5-0.1v0.9c-0.1,0.1-0.3,0.1-0.6,0.2c-0.2,0-0.5,0.1-0.7,0.1
		c-1.5,0-2.3-0.8-2.3-2.4v-4.6H117V46l1.1-0.5l0.5-1.7h0.7v1.8h2.3v0.9h-2.3v4.6c0,0.5,0.1,0.8,0.3,1.1S120.2,52.6,120.6,52.6z"/>
	<path class="st2" d="M128.2,53.4H127v-11h1.2V53.4z"/>
	<path class="st2" d="M130.6,43.5c0-0.3,0.1-0.5,0.2-0.6c0.1-0.1,0.3-0.2,0.5-0.2s0.4,0.1,0.5,0.2c0.1,0.1,0.2,0.3,0.2,0.6
		s-0.1,0.5-0.2,0.6c-0.1,0.1-0.3,0.2-0.5,0.2s-0.4-0.1-0.5-0.2C130.7,44,130.6,43.8,130.6,43.5z M131.9,53.4h-1.2v-7.8h1.2V53.4z"/>
	<path class="st2" d="M135.6,49.4c0.2-0.3,0.5-0.7,0.9-1.1l2.5-2.7h1.4l-3.2,3.3l3.4,4.5h-1.4l-2.7-3.7l-0.9,0.8v2.9h-1.2v-11h1.2
		v5.9C135.6,48.5,135.5,48.9,135.6,49.4L135.6,49.4z"/>
	<path class="st2" d="M145.3,53.6c-1.2,0-2.1-0.4-2.7-1.1s-1-1.7-1-2.9c0-1.3,0.3-2.3,0.9-3c0.6-0.7,1.4-1.1,2.5-1.1
		c1,0,1.7,0.3,2.3,1c0.6,0.6,0.9,1.5,0.9,2.5v0.7h-5.4c0,0.9,0.3,1.6,0.7,2.1s1.1,0.7,1.9,0.7c0.8,0,1.7-0.2,2.5-0.5v1
		c-0.4,0.2-0.8,0.3-1.2,0.4S145.8,53.6,145.3,53.6z M145,46.5c-0.6,0-1.1,0.2-1.5,0.6s-0.6,1-0.7,1.7h4.1c0-0.7-0.2-1.3-0.5-1.7
		C146.1,46.7,145.6,46.5,145,46.5z"/>
	<path class="st2" d="M158.8,53.4l-0.2-1.1h-0.1c-0.4,0.5-0.8,0.8-1.2,1s-0.9,0.3-1.4,0.3c-0.8,0-1.4-0.2-1.8-0.6s-0.7-1-0.7-1.7
		c0-1.6,1.3-2.4,3.8-2.5h1.3v-0.5c0-0.6-0.1-1.1-0.4-1.4c-0.3-0.3-0.7-0.4-1.3-0.4s-1.4,0.2-2.2,0.6l-0.4-0.9
		c0.4-0.2,0.8-0.4,1.3-0.5s0.9-0.2,1.4-0.2c0.9,0,1.6,0.2,2.1,0.6c0.4,0.4,0.7,1.1,0.7,2v5.3C159.7,53.4,158.8,53.4,158.8,53.4z
		 M156.1,52.6c0.7,0,1.3-0.2,1.7-0.6c0.4-0.4,0.6-1,0.6-1.7v-0.7h-1.2c-0.9,0-1.6,0.2-2,0.4c-0.4,0.3-0.6,0.7-0.6,1.2
		c0,0.4,0.1,0.8,0.4,1C155.3,52.5,155.6,52.6,156.1,52.6z"/>
	<path class="st2" d="M172.6,46.1c0,1.1-0.4,1.9-1.1,2.4c-0.7,0.6-1.7,0.8-3.1,0.8h-1.2v4.1H166V43h2.7
		C171.3,43,172.6,44,172.6,46.1z M167.2,48.3h1.1c1.1,0,1.8-0.2,2.3-0.5s0.7-0.9,0.7-1.7c0-0.7-0.2-1.2-0.7-1.5s-1.2-0.5-2.1-0.5
		h-1.3V48.3z"/>
	<path class="st2" d="M178.1,45.5c0.3,0,0.7,0,0.9,0.1l-0.2,1.1c-0.3-0.1-0.6-0.1-0.9-0.1c-0.6,0-1.2,0.3-1.6,0.8
		c-0.4,0.5-0.7,1.1-0.7,1.9v4.2h-1.2v-7.8h1l0.1,1.4h0.1c0.3-0.5,0.6-0.9,1-1.2C177.2,45.6,177.7,45.5,178.1,45.5z"/>
	<path class="st2" d="M187.3,49.5c0,1.3-0.3,2.3-1,3c-0.6,0.7-1.5,1.1-2.6,1.1c-0.7,0-1.3-0.2-1.9-0.5c-0.5-0.3-1-0.8-1.2-1.4
		c-0.3-0.6-0.4-1.3-0.4-2.1c0-1.3,0.3-2.3,1-3c0.6-0.7,1.5-1.1,2.6-1.1s2,0.4,2.6,1.1C186.9,47.3,187.3,48.3,187.3,49.5z
		 M181.3,49.5c0,1,0.2,1.8,0.6,2.3c0.4,0.5,1,0.8,1.8,0.8s1.4-0.3,1.8-0.8c0.4-0.5,0.6-1.3,0.6-2.3s-0.2-1.7-0.6-2.3
		c-0.4-0.5-1-0.8-1.8-0.8s-1.4,0.3-1.7,0.8C181.5,47.8,181.3,48.5,181.3,49.5z"/>
</g>
</svg>
