<svg width="40" height="15" viewBox="0 0 40 15" fill="none" xmlns="http://www.w3.org/2000/svg">
<path fill-rule="evenodd" clip-rule="evenodd" d="M31.5201 0.000511718C31.4266 0.00614315 31.337 0.0401363 31.2631 0.0980374C31.1893 0.155939 31.1346 0.235024 31.1064 0.324802C31.0782 0.414581 31.0778 0.510847 31.1052 0.600884C31.1325 0.690921 31.1865 0.770484 31.2598 0.829069L38.2885 6.91993H0.469383C0.408058 6.91905 0.347172 6.93044 0.290264 6.95343C0.233353 6.97641 0.181557 7.01054 0.137882 7.05382C0.0942078 7.0971 0.0595284 7.14868 0.0358582 7.20555C0.012188 7.26242 0 7.32345 0 7.3851C0 7.44674 0.012188 7.50778 0.0358582 7.56465C0.0595284 7.62152 0.0942078 7.67309 0.137882 7.71637C0.181557 7.75965 0.233353 7.79378 0.290264 7.81677C0.347172 7.83975 0.408058 7.85114 0.469383 7.85027H38.3608L31.6214 14.1882C31.5762 14.2301 31.5398 14.2805 31.5141 14.3366C31.4885 14.3927 31.4741 14.4533 31.4719 14.515C31.4696 14.5767 31.4796 14.6382 31.5011 14.696C31.5226 14.7538 31.5553 14.8068 31.5973 14.8519C31.6392 14.8969 31.6897 14.9332 31.7456 14.9586C31.8016 14.984 31.862 14.998 31.9234 14.9998C31.9848 15.0016 32.046 14.9912 32.1033 14.9692C32.1607 14.9472 32.2132 14.9139 32.2577 14.8714L39.8504 7.73397C39.8988 7.6893 39.9371 7.63479 39.9629 7.57407C39.9886 7.51336 40.0013 7.4478 39.9999 7.3818C39.9985 7.3158 39.9832 7.25085 39.9549 7.19127C39.9267 7.13168 39.8861 7.07884 39.836 7.03622L31.8528 0.116804C31.7726 0.0456103 31.6704 0.00451701 31.5635 0.000511718C31.549 -0.000170573 31.5346 -0.000170573 31.5201 0.000511718Z" fill="black"/>
</svg>
