<svg width="24" height="10" viewBox="0 0 24 10" fill="none" xmlns="http://www.w3.org/2000/svg">
<path d="M22.5838 3.81103L19.8335 0.639765C19.8335 0.534056 19.7571 0.481201 19.6043 0.481201C19.4515 0.481201 19.3242 0.507628 19.2223 0.560483C19.1204 0.613337 19.044 0.719046 18.9931 0.87761C18.9422 1.03617 18.9676 1.16831 19.0695 1.27402L21.5142 4.44529H1.34511C1.24324 4.44529 1.14138 4.49814 1.03952 4.60385C0.937651 4.70956 0.886719 4.81527 0.886719 4.92098C0.886719 5.02669 0.937651 5.1324 1.03952 5.2381C1.14138 5.34381 1.24324 5.39667 1.34511 5.39667H21.5142L19.0695 8.56794C18.9676 8.67365 18.9422 8.80578 18.9931 8.96435C19.044 9.12291 19.1204 9.22862 19.2223 9.28147C19.3242 9.33433 19.4515 9.36075 19.6043 9.36075C19.7571 9.36075 19.8335 9.3079 19.8335 9.20219L22.5838 6.03092C22.7875 5.7138 23.2869 5.34381 23.2869 4.92098C23.2869 4.49814 22.7875 4.12816 22.5838 3.81103Z" fill="#342B18"/>
</svg>
