<svg width="13" height="18" viewBox="0 0 13 18" fill="none" xmlns="http://www.w3.org/2000/svg">
<path d="M13 1.12504C13 1.18835 12.9874 1.25105 12.9629 1.30955C12.9384 1.36805 12.9025 1.4212 12.8572 1.46597C12.8119 1.51075 12.7582 1.54626 12.6991 1.57049C12.6399 1.59472 12.5765 1.6072 12.5125 1.6072H7.75273C8.35972 2.23157 8.77914 3.01063 8.96409 3.85727H12.5095C12.6388 3.85727 12.7628 3.90807 12.8543 3.99849C12.9457 4.08891 12.997 4.21155 12.997 4.33943V4.98231C12.997 5.11018 12.9457 5.23282 12.8543 5.32324C12.7628 5.41367 12.6388 5.46446 12.5095 5.46446H9.08877C8.91741 8.41469 6.61877 10.286 3.48164 10.286H2.53086L8.84059 17.1947C8.9038 17.2639 8.94536 17.3497 8.96023 17.4418C8.97509 17.5339 8.96264 17.6283 8.92436 17.7135C8.88608 17.7988 8.82363 17.8712 8.74458 17.9221C8.66552 17.9729 8.57325 18 8.47895 18H7.60205C7.46645 17.9926 7.33826 17.9365 7.24159 17.8422L0.126455 10.102C0.0449891 10.0131 -9.53189e-05 9.8975 1.51315e-07 9.77759V9.14231C1.51315e-07 9.01443 0.0513616 8.89179 0.142786 8.80137C0.23421 8.71095 0.358207 8.66015 0.4875 8.66015H3.41132C5.70877 8.66015 7.24514 7.47726 7.40882 5.46388H0.4875C0.358207 5.46388 0.23421 5.41308 0.142786 5.32266C0.0513616 5.23224 1.51315e-07 5.1096 1.51315e-07 4.98172V4.33884C0.000156746 4.21107 0.0515873 4.08858 0.142994 3.99828C0.234401 3.90799 0.358309 3.85727 0.4875 3.85727H7.23036C6.73991 2.41547 5.35009 1.6072 3.43732 1.6072H0.4875C0.423481 1.6072 0.360088 1.59472 0.300942 1.57049C0.241796 1.54626 0.188054 1.51075 0.142786 1.46597C0.097517 1.4212 0.061608 1.36805 0.0371089 1.30955C0.0126097 1.25105 1.51315e-07 1.18835 1.51315e-07 1.12504V0.482159C1.51315e-07 0.354283 0.0513616 0.231644 0.142786 0.141222C0.23421 0.0507994 0.358207 0 0.4875 0H12.5119C12.6412 0 12.7652 0.0507994 12.8566 0.141222C12.948 0.231644 12.9994 0.354283 12.9994 0.482159V1.12504H13Z" fill="white"/>
</svg>
