<svg width="15" height="17" viewBox="0 0 15 17" fill="none" xmlns="http://www.w3.org/2000/svg">
<path d="M3.95937 12.7193L5.31745 12.5042C5.38212 11.2723 5.33362 9.78611 5.01026 8.12395C4.70308 6.59866 4.23422 5.32759 3.7977 4.34985C3.61985 3.95875 3.28034 3.72409 2.89231 3.70454C2.73064 3.70454 2.58513 3.68498 2.42345 3.68498C1.71208 3.62632 1.17855 4.34985 1.34023 5.09294L3.10249 13.6384C3.16716 13.1691 3.50668 12.778 3.95937 12.7193Z" fill="#7173C8"/>
<path d="M2.18096 3.46978L2.29413 3.43067C3.02167 3.11779 3.23185 2.3747 3.15101 1.59251C3.08634 0.790757 2.71449 0.145444 1.90611 0.028115L1.82527 0.00856008C1.29174 -0.0696596 0.806719 0.399658 0.855222 0.947196L1.03306 2.80491C1.09773 3.35245 1.67977 3.68488 2.18096 3.46978Z" fill="#7173C8"/>
<path d="M11.7522 11.6047L3.97558 12.8953C3.55522 12.9735 3.23187 13.3646 3.23187 13.8535C3.23187 14.3815 3.61989 14.8117 4.10492 14.8117H13.2234C13.7084 14.8117 14.0965 14.3815 14.0965 13.8535C14.0803 12.4651 12.9809 11.4091 11.7522 11.6047ZM4.15342 14.2641C3.95941 14.2641 3.79774 14.0881 3.79774 13.873C3.79774 13.6579 3.95941 13.4819 4.15342 13.4819C4.34743 13.4819 4.50911 13.6579 4.50911 13.873C4.52528 14.0881 4.3636 14.2641 4.15342 14.2641Z" fill="#7173C8"/>
<path d="M12.2696 15.0266H4.62231C4.41213 15.0266 4.29896 15.3004 4.44447 15.4764L4.50914 15.5546C4.89716 16.0435 5.44686 16.3172 6.02889 16.3172H10.8792C11.445 16.3172 11.9785 16.063 12.3666 15.5937L12.4636 15.4764C12.5929 15.3004 12.4959 15.0266 12.2696 15.0266ZM11.7845 15.535C11.4612 15.8088 11.0408 15.9652 10.6043 15.9652H6.2714C5.83488 15.9652 5.41452 15.8088 5.09117 15.535C5.05884 15.4959 5.075 15.4373 5.12351 15.4373H11.7522C11.8007 15.4373 11.833 15.4959 11.7845 15.535Z" fill="#7173C8"/>
<path d="M4.15341 13.6187C4.02407 13.6187 3.92706 13.736 3.92706 13.8729C3.92706 14.0097 4.02407 14.1271 4.15341 14.1271C4.28275 14.1271 4.37975 14.0097 4.37975 13.8729C4.37975 13.736 4.28275 13.6187 4.15341 13.6187Z" fill="#7173C8"/>
</svg>
