<svg width="66" height="46" viewBox="0 0 66 46" fill="none" xmlns="http://www.w3.org/2000/svg">
<path d="M55.777 16.4C58.3875 16.4 60.8911 17.437 62.7371 19.2829C64.583 21.1289 65.62 23.6325 65.62 26.243V34.443C65.6201 34.6585 65.5778 34.8718 65.4955 35.0709C65.4131 35.27 65.2923 35.4509 65.14 35.6033C64.9877 35.7557 64.8069 35.8766 64.6078 35.9591C64.4088 36.0415 64.1954 36.084 63.98 36.084H59.058C59.058 38.6945 58.021 41.1981 56.1751 43.0441C54.3291 44.89 51.8255 45.927 49.215 45.927C46.6045 45.927 44.1009 44.89 42.2549 43.0441C40.409 41.1981 39.372 38.6945 39.372 36.084H26.248C26.248 38.6945 25.211 41.1981 23.3651 43.0441C21.5191 44.89 19.0155 45.927 16.405 45.927C13.7945 45.927 11.2909 44.89 9.44495 43.0441C7.59903 41.1981 6.562 38.6945 6.562 36.084H1.641C1.20691 36.0843 0.790421 35.9124 0.482817 35.6061C0.175213 35.2998 0.00158996 34.8841 1.90508e-06 34.45V22.967C-0.000655025 22.1048 0.168591 21.251 0.498069 20.4543C0.827546 19.6576 1.3108 18.9336 1.9202 18.3237C2.5296 17.7139 3.25321 17.2301 4.04968 16.9C4.84614 16.5699 5.69985 16.4 6.562 16.4L11.474 4.12C11.9618 2.90312 12.8029 1.86026 13.8889 1.12591C14.9749 0.391564 16.256 -0.000596415 17.567 6.80831e-07H37.859C38.8328 0.0539497 39.7865 0.299235 40.6655 0.721844C41.5445 1.14445 42.3317 1.73611 42.982 2.463L54.137 16.4H55.778H55.777ZM29.529 3.281V16.4H49.935L40.421 4.512C40.1142 4.12713 39.7245 3.81653 39.2808 3.60337C38.8372 3.39022 38.3512 3.28002 37.859 3.281H29.529ZM14.521 5.343L10.1 16.4H26.248V3.281H17.567C16.9107 3.27879 16.269 3.47447 15.7257 3.84248C15.1823 4.2105 14.7625 4.73377 14.521 5.344V5.343ZM16.406 42.652C17.7038 42.652 18.9725 42.2671 20.0517 41.5461C21.1308 40.8251 21.9718 39.8002 22.4685 38.6012C22.9652 37.4021 23.0951 36.0827 22.8419 34.8098C22.5887 33.5369 21.9637 32.3677 21.046 31.45C20.1283 30.5323 18.9591 29.9073 17.6862 29.6541C16.4133 29.4009 15.0939 29.5308 13.8948 30.0275C12.6958 30.5242 11.6709 31.3652 10.9499 32.4444C10.2289 33.5235 9.844 34.7922 9.844 36.09C9.84387 36.9517 10.0135 37.8051 10.3431 38.6012C10.6728 39.3974 11.156 40.1209 11.7653 40.7303C12.3745 41.3398 13.0978 41.8232 13.8939 42.1531C14.69 42.483 15.5433 42.6529 16.405 42.653L16.406 42.652ZM49.216 42.652C50.5138 42.652 51.7825 42.2671 52.8617 41.5461C53.9408 40.8251 54.7818 39.8002 55.2785 38.6012C55.7752 37.4021 55.9051 36.0827 55.6519 34.8098C55.3987 33.5369 54.7737 32.3677 53.856 31.45C52.9383 30.5323 51.7691 29.9073 50.4962 29.6541C49.2233 29.4009 47.9039 29.5308 46.7048 30.0275C45.5058 30.5242 44.4809 31.3652 43.7599 32.4444C43.0389 33.5235 42.654 34.7922 42.654 36.09C42.6539 36.9517 42.8235 37.8051 43.1531 38.6012C43.4828 39.3974 43.966 40.1209 44.5753 40.7303C45.1845 41.3398 45.9078 41.8232 46.7039 42.1531C47.5 42.483 48.3533 42.6529 49.215 42.653L49.216 42.652ZM62.339 32.81V26.248C62.3371 24.5082 61.6452 22.8402 60.415 21.61C59.1848 20.3798 57.5168 19.6879 55.777 19.686H6.562C5.69215 19.6871 4.85823 20.0331 4.24315 20.6482C3.62808 21.2632 3.28206 22.0971 3.281 22.967V32.81H7.165C7.8343 30.893 9.08326 29.2317 10.7388 28.0562C12.3944 26.8806 14.3746 26.2491 16.405 26.2491C18.4355 26.2491 20.4156 26.8806 22.0712 28.0562C23.7267 29.2317 24.9757 30.893 25.645 32.81H39.975C40.6443 30.893 41.8933 29.2317 43.5488 28.0562C45.2044 26.8806 47.1845 26.2491 49.215 26.2491C51.2455 26.2491 53.2256 26.8806 54.8812 28.0562C56.5367 29.2317 57.7857 30.893 58.455 32.81H62.339Z" fill="white"/>
</svg>
