<svg width="47" height="47" viewBox="0 0 47 47" fill="none" xmlns="http://www.w3.org/2000/svg">
<path d="M45.3713 32.1348C44.8284 31.4884 44.1821 30.9197 43.484 30.4285C44.2338 28.2569 44.6474 25.9301 44.6474 23.5C44.6474 11.8146 35.1853 2.35255 23.5 2.35255C11.8147 2.35255 2.35255 11.8146 2.35255 23.5C2.35255 35.1854 11.8147 44.6474 23.5 44.6474C25.9301 44.6474 28.2569 44.2338 30.4285 43.484C30.9197 44.1821 31.4884 44.8284 32.1348 45.3713C29.4719 46.4313 26.5506 47 23.5 47C10.522 47 0 36.478 0 23.5C0 10.522 10.522 0 23.5 0C36.478 0 47 10.522 47 23.5C47 26.5506 46.4313 29.4461 45.3713 32.1348ZM38.1843 31.1265C42.088 31.1265 45.2421 34.2805 45.2421 38.1843C45.2421 42.088 42.088 45.2421 38.1843 45.2421C34.2805 45.2421 31.1265 42.088 31.1265 38.1843C31.1265 34.3064 34.3063 31.1265 38.1843 31.1265ZM39.0633 42.0105V40.8212C39.0633 40.6661 38.934 40.5369 38.7789 40.5369H37.6155C37.4604 40.5369 37.3312 40.6661 37.3312 40.8212V41.9846C37.3312 42.1397 37.4604 42.269 37.6155 42.269H38.7789C38.934 42.2948 39.0632 42.1656 39.0632 42.0104L39.0633 42.0105ZM39.3476 34.3839C39.3476 34.203 39.2184 34.0737 39.0633 34.0737H37.3052C37.1501 34.0737 37.0209 34.2288 37.0209 34.3839L37.2794 39.3735C37.2794 39.5286 37.4087 39.6578 37.5638 39.6578H38.7788C38.9339 39.6578 39.0632 39.5286 39.0632 39.3735L39.3476 34.3839H39.3476ZM24.6892 8.50546L25.5682 24.9736L17.5539 31.8504C17.4246 31.9538 17.2696 31.9538 17.1661 31.8246L15.4857 30.1441C15.3823 30.0407 15.3823 29.8598 15.4598 29.7305L21.4318 22.9054L22.3108 8.50546C22.3108 8.35042 22.4401 8.22111 22.5951 8.22111H24.379C24.56 8.22111 24.6892 8.35042 24.6892 8.50546Z" fill="#BABAB9"/>
</svg>
