<svg width="27" height="27" viewBox="0 0 27 27" fill="none" xmlns="http://www.w3.org/2000/svg">
<path d="M15.0886 2.54117C15.0886 1.13772 14.3775 0 13.5003 0C12.6232 0 11.9121 1.13772 11.9121 2.54117V5.4C11.9121 6.80346 12.6232 7.94118 13.5003 7.94118C14.3775 7.94118 15.0886 6.80346 15.0886 5.4V2.54117Z" fill="#F3D124"/>
<path d="M22.3711 6.87355C23.3635 5.88116 23.6652 4.57386 23.0449 3.95362C22.4247 3.33337 21.1174 3.63506 20.125 4.62745L18.1035 6.64894C17.1111 7.64134 16.8094 8.94863 17.4297 9.56888C18.0499 10.1891 19.3572 9.88744 20.3496 8.89505L22.3711 6.87355Z" fill="#F1F1EB"/>
<path d="M24.4588 15.0881C25.8623 15.0881 27 14.377 27 13.4999C27 12.6227 25.8623 11.9116 24.4588 11.9116H21.6C20.1965 11.9116 19.0588 12.6227 19.0588 13.4999C19.0588 14.377 20.1965 15.0881 21.6 15.0881H24.4588Z" fill="#F1ECCF"/>
<path d="M20.1269 22.3721C21.1193 23.3645 22.4266 23.6661 23.0469 23.0459C23.6671 22.4257 23.3654 21.1184 22.373 20.126L20.3515 18.1045C19.3592 17.1121 18.0519 16.8104 17.4316 17.4306C16.8114 18.0509 17.113 19.3582 18.1054 20.3506L20.1269 22.3721Z" fill="#F2E8B2"/>
<path d="M11.9114 24.4588C11.9114 25.8623 12.6225 27 13.4997 27C14.3768 27 15.0879 25.8623 15.0879 24.4588V21.6C15.0879 20.1965 14.3768 19.0588 13.4997 19.0588C12.6225 19.0588 11.9114 20.1965 11.9114 21.6V24.4588Z" fill="#F2E396"/>
<path d="M4.6289 20.1264C3.63651 21.1188 3.33483 22.4261 3.95507 23.0464C4.57532 23.6666 5.88262 23.3649 6.87501 22.3726L8.8965 20.3511C9.88889 19.3587 10.1906 18.0514 9.57033 17.4311C8.95009 16.8109 7.64279 17.1126 6.6504 18.105L4.6289 20.1264Z" fill="#F1DE78"/>
<path d="M2.54117 11.9119C1.13772 11.9119 0 12.623 0 13.5001C0 14.3773 1.13772 15.0884 2.54117 15.0884L5.4 15.0884C6.80346 15.0884 7.94118 14.3773 7.94118 13.5001C7.94118 12.623 6.80346 11.9119 5.4 11.9119H2.54117Z" fill="#F2DA5C"/>
<path d="M6.87306 4.62793C5.88067 3.63553 4.57337 3.33385 3.95313 3.9541C3.33289 4.57434 3.63457 5.88164 4.62696 6.87403L6.64846 8.89553C7.64085 9.88792 8.94815 10.1896 9.56839 9.56936C10.1886 8.94911 9.88695 7.64181 8.89456 6.64942L6.87306 4.62793Z" fill="#F2D43F"/>
</svg>
