<svg width="18" height="18" viewBox="0 0 18 18" fill="none" xmlns="http://www.w3.org/2000/svg">
<path d="M7 0L6.88889 0.5625L6.46667 2.61779C5.82963 2.86298 5.21482 3.21635 4.62222 3.67788L2.55556 2.98558L2 2.8125L0 6.1875L2.02222 7.91827L2 8.11298C1.92593 8.5024 1.88889 8.79808 1.88889 9C1.88889 9.20192 1.92593 9.4976 2 9.88702L2.02222 10.0817L0 11.8125L2 15.1875L2.55556 15.0144L4.62222 14.3221C5.21482 14.7837 5.82963 15.137 6.46667 15.3822L7 18H11L11.5333 15.3822C12.1704 15.137 12.7852 14.7837 13.3778 14.3221L15.4444 15.0144L16 15.1875L18 11.8125L15.9778 10.0817L16 9.88702C16.0741 9.4976 16.1111 9.20192 16.1111 9C16.1111 8.79808 16.0741 8.5024 16 8.11298L15.9778 7.91827L18 6.1875L16 2.8125L15.4444 2.98558L13.3778 3.67788C12.7852 3.21635 12.1704 2.86298 11.5333 2.61779L11 0H7ZM8.15556 1.38462H9.84444L10.2889 3.59135L10.6889 3.72115C11.5037 3.96635 12.2222 4.37019 12.8444 4.93269L13.1556 5.21394L15.3556 4.47837L16.2 5.88462L14.7778 7.11779L14.4444 7.3774L14.5556 7.78846C14.6444 8.17789 14.6889 8.58173 14.6889 9C14.6889 9.41827 14.6444 9.82212 14.5556 10.2115L14.4667 10.6226L16.2 12.1154L15.3556 13.5216L13.1556 12.7861L12.8444 13.0673C12.2222 13.6298 11.5037 14.0337 10.6889 14.2788L10.2889 14.4087L9.84444 16.6154H8.15556L7.71111 14.4087L7.31111 14.2788C6.4963 14.0337 5.77778 13.6298 5.15556 13.0673L4.84444 12.7861L2.64444 13.5216L1.8 12.1154L3.22222 10.8822L3.55556 10.6226L3.44444 10.2115C3.35556 9.82212 3.31111 9.41827 3.31111 9C3.31111 8.58173 3.35556 8.17789 3.44444 7.78846L3.55556 7.3774L3.22222 7.11779L1.8 5.88462L2.64444 4.47837L4.84444 5.21394L5.15556 4.93269C5.77778 4.37019 6.4963 3.96635 7.31111 3.72115L7.71111 3.59135L7.8 3.18029L8.15556 1.38462ZM9 5.53846C8.36296 5.53846 7.77037 5.69351 7.22222 6.00361C6.67407 6.3137 6.24074 6.73558 5.92222 7.26923C5.6037 7.80288 5.44444 8.37981 5.44444 9C5.44444 9.62019 5.6037 10.1971 5.92222 10.7308C6.24074 11.2644 6.67407 11.6863 7.22222 11.9964C7.77037 12.3065 8.36296 12.4615 9 12.4615C9.63704 12.4615 10.2296 12.3065 10.7778 11.9964C11.3259 11.6863 11.7593 11.2644 12.0778 10.7308C12.3963 10.1971 12.5556 9.62019 12.5556 9C12.5556 8.37981 12.3963 7.80288 12.0778 7.26923C11.7593 6.73558 11.3259 6.3137 10.7778 6.00361C10.2296 5.69351 9.63704 5.53846 9 5.53846ZM9 6.92308C9.59259 6.92308 10.0963 7.125 10.5111 7.52885C10.9259 7.93269 11.1333 8.42308 11.1333 9C11.1333 9.57692 10.9259 10.0673 10.5111 10.4712C10.0963 10.875 9.59259 11.0769 9 11.0769C8.40741 11.0769 7.9037 10.875 7.48889 10.4712C7.07407 10.0673 6.86667 9.57692 6.86667 9C6.86667 8.42308 7.07407 7.93269 7.48889 7.52885C7.9037 7.125 8.40741 6.92308 9 6.92308Z" fill="#241A00"/>
</svg>
