<svg width="58" height="58" viewBox="0 0 58 58" fill="none" xmlns="http://www.w3.org/2000/svg">
<path d="M19.645 23.083C18.8602 23.132 18.1033 23.3928 17.4548 23.8375C16.8063 24.2823 16.2904 24.8945 15.962 25.609L14.851 27.6C14.7431 27.7821 14.5779 27.9234 14.3813 28.0017C14.1846 28.0801 13.9676 28.0911 13.764 28.033C13.5594 27.9704 13.3821 27.8403 13.2609 27.664C13.1398 27.4876 13.082 27.2754 13.097 27.062C13.483 22.139 16.862 18.713 19.645 18.713C22.428 18.713 25.808 22.139 26.193 27.062C26.2097 27.2757 26.1526 27.4887 26.0312 27.6654C25.9098 27.8421 25.7315 27.9719 25.526 28.033C25.3228 28.0967 25.1038 28.0884 24.906 28.0096C24.7082 27.9307 24.5436 27.786 24.44 27.6L23.329 25.612C22.9986 24.8989 22.4823 24.288 21.8342 23.8435C21.1861 23.399 20.4302 23.1373 19.646 23.086L19.645 23.083ZM29 0C34.7357 0 40.3425 1.70082 45.1115 4.88738C49.8806 8.07394 53.5976 12.6031 55.7925 17.9022C57.9874 23.2012 58.5617 29.0322 57.4428 34.6576C56.3238 40.2831 53.5618 45.4504 49.5061 49.5061C45.4504 53.5618 40.2831 56.3238 34.6576 57.4428C29.0322 58.5617 23.2012 57.9874 17.9022 55.7925C12.6031 53.5976 8.07394 49.8806 4.88738 45.1115C1.70082 40.3425 0 34.7357 0 29C0 21.3087 3.05535 13.9325 8.4939 8.4939C13.9325 3.05535 21.3087 0 29 0ZM29 54.258C33.9956 54.258 38.8789 52.7766 43.0326 50.0013C47.1862 47.2259 50.4236 43.2811 52.3354 38.6658C54.2471 34.0505 54.7473 28.972 53.7727 24.0724C52.7981 19.1728 50.3925 14.6723 46.8601 11.1399C43.3277 7.6075 38.8272 5.20191 33.9276 4.22733C29.028 3.25274 23.9495 3.75293 19.3342 5.66465C14.7189 7.57637 10.7741 10.8138 7.99874 14.9674C5.22336 19.1211 3.742 24.0044 3.742 29C3.74968 35.6965 6.41324 42.1165 11.1484 46.8516C15.8835 51.5868 22.3035 54.2503 29 54.258ZM38.355 18.71C41.138 18.71 44.518 22.136 44.903 27.059C44.9197 27.2727 44.8626 27.4857 44.7412 27.6624C44.6198 27.8391 44.4415 27.9689 44.236 28.03C44.0327 28.094 43.8135 28.0858 43.6154 28.0069C43.4174 27.9281 43.2527 27.7833 43.149 27.597L42.038 25.609C41.7076 24.8959 41.1913 24.285 40.5432 23.8405C39.8951 23.396 39.1392 23.1343 38.355 23.083C37.5708 23.1343 36.8149 23.396 36.1668 23.8405C35.5187 24.285 35.0024 24.8959 34.672 25.609L33.56 27.6C33.4521 27.7821 33.2869 27.9234 33.0903 28.0017C32.8936 28.0801 32.6766 28.0911 32.473 28.033C32.2684 27.9704 32.0911 27.8403 31.9699 27.664C31.8488 27.4876 31.791 27.2754 31.806 27.062C32.192 22.136 35.572 18.71 38.355 18.71ZM39.548 37.162C39.8671 36.7807 40.3238 36.541 40.8189 36.4949C41.3139 36.4488 41.807 36.6002 42.191 36.916C42.3801 37.0727 42.5363 37.2653 42.6505 37.4828C42.7648 37.7002 42.8348 37.9381 42.8565 38.1827C42.8783 38.4273 42.8514 38.6739 42.7773 38.908C42.7032 39.1422 42.5835 39.3594 42.425 39.547C40.7867 41.515 38.7358 43.0987 36.4174 44.1859C34.099 45.2731 31.57 45.8373 29.0093 45.8384C26.4487 45.8396 23.9191 45.2777 21.5997 44.1925C19.2804 43.1074 17.228 41.5255 15.588 39.559C15.2697 39.1791 15.1154 38.6883 15.159 38.1946C15.2026 37.7009 15.4406 37.2448 15.8205 36.9265C16.2004 36.6082 16.6912 36.4539 17.1849 36.4975C17.6786 36.5411 18.1347 36.7791 18.453 37.159C19.7425 38.7045 21.3558 39.9478 23.1789 40.801C25.0019 41.6542 26.9902 42.0964 29.003 42.0964C31.0158 42.0964 33.0041 41.6542 34.8271 40.801C36.6502 39.9478 38.2635 38.7045 39.553 37.159L39.548 37.162Z" fill="white"/>
</svg>
