<svg xmlns="http://www.w3.org/2000/svg" width="75.499" height="73" viewBox="0 0 75.499 73">
  <g id="Group_24" data-name="Group 24" transform="translate(-1314 -2332)">
    <circle id="Ellipse_9" data-name="Ellipse 9" cx="36.5" cy="36.5" r="36.5" transform="translate(1314 2332)" fill="#f2f2f2"/>
    <path id="garage-car" d="M22.124,35.4a1.475,1.475,0,1,1-1.475,1.475A1.475,1.475,0,0,1,22.124,35.4Zm14.749,0A1.475,1.475,0,1,1,35.4,36.877,1.475,1.475,0,0,1,36.874,35.4ZM56.287,10.912A4.77,4.77,0,0,1,59,14.981V46.464a.738.738,0,0,1-.737.737H56.786a.738.738,0,0,1-.737-.737V14.977a1.586,1.586,0,0,0-.9-1.355L30.07,3.058a1.453,1.453,0,0,0-1.141,0L3.854,13.623a1.6,1.6,0,0,0-.9,1.36V46.464a.738.738,0,0,1-.737.737H.738A.738.738,0,0,1,0,46.464V14.981a4.77,4.77,0,0,1,2.711-4.07L27.785.349A5.276,5.276,0,0,1,29.5,0a5.276,5.276,0,0,1,1.714.345ZM47.2,17.7a2.951,2.951,0,0,1,2.95,2.95V46.464a.738.738,0,0,1-.737.737H47.936a.738.738,0,0,1-.737-.737V20.653H11.8V46.464a.738.738,0,0,1-.737.737H9.587a.738.738,0,0,1-.737-.737V20.653A2.951,2.951,0,0,1,11.8,17.7Zm-6.276,13.43A4.646,4.646,0,0,1,44.249,35.4v4.425a2.951,2.951,0,0,1-2.95,2.95v2.95A1.475,1.475,0,0,1,39.824,47.2H38.349a1.475,1.475,0,0,1-1.475-1.475v-2.95H22.124v2.95A1.475,1.475,0,0,1,20.649,47.2H19.175A1.475,1.475,0,0,1,17.7,45.727v-2.95a2.951,2.951,0,0,1-2.95-2.95V35.4a4.647,4.647,0,0,1,3.326-4.265l.868-3.478A5.62,5.62,0,0,1,24.132,23.6H34.867a5.621,5.621,0,0,1,5.187,4.051ZM21.807,28.368l-.65,2.61H37.843l-.652-2.61a2.52,2.52,0,0,0-2.325-1.815H24.132a2.52,2.52,0,0,0-2.325,1.815ZM41.3,39.827V35.4a1.475,1.475,0,0,0-1.475-1.475H19.174A1.475,1.475,0,0,0,17.7,35.4v4.425Z" transform="translate(1330.501 2348.395)" fill="#FFB600"/>
  </g>
</svg>
