<svg xmlns="http://www.w3.org/2000/svg" width="77" height="73" viewBox="0 0 77 73">
  <g id="Group_23" data-name="Group 23" transform="translate(-1052 -2332)">
    <circle id="Ellipse_8" data-name="Ellipse 8" cx="36.5" cy="36.5" r="36.5" transform="translate(1052 2332)" fill="#f2f2f2"/>
    <path id="smile-beam" d="M19.645,31.083a4.352,4.352,0,0,0-3.683,2.526L14.851,35.6a.958.958,0,0,1-1.087.433.946.946,0,0,1-.667-.971c.386-4.923,3.765-8.349,6.548-8.349s6.163,3.426,6.548,8.349a.937.937,0,0,1-.667.971A.926.926,0,0,1,24.44,35.6l-1.111-1.988a4.374,4.374,0,0,0-3.683-2.526ZM29,8A29,29,0,1,1,0,37,29,29,0,0,1,29,8Zm0,54.258A25.258,25.258,0,1,0,3.742,37,25.287,25.287,0,0,0,29,62.258ZM38.355,26.71c2.783,0,6.163,3.426,6.548,8.349a.937.937,0,0,1-.667.971.926.926,0,0,1-1.087-.433l-1.111-1.988a4.374,4.374,0,0,0-3.683-2.526,4.374,4.374,0,0,0-3.683,2.526L33.56,35.6a.958.958,0,0,1-1.087.433.946.946,0,0,1-.667-.971C32.192,30.136,35.572,26.71,38.355,26.71Zm1.193,18.452a1.885,1.885,0,0,1,2.643-.246,1.859,1.859,0,0,1,.234,2.631,17.466,17.466,0,0,1-26.837.012,1.868,1.868,0,1,1,2.865-2.4,13.74,13.74,0,0,0,21.1,0Z" transform="translate(1071 2339)" fill="#FFB600"/>
  </g>
</svg>
