<svg xmlns="http://www.w3.org/2000/svg" width="82.62" height="73" viewBox="0 0 82.62 73">
  <g id="Group_22" data-name="Group 22" transform="translate(-790 -2332)">
    <circle id="Ellipse_10" data-name="Ellipse 10" cx="36.5" cy="36.5" r="36.5" transform="translate(790 2332)" fill="#f2f2f2"/>
    <path id="car-side_1_" data-name="car-side (1)" d="M55.777,48.4a9.843,9.843,0,0,1,9.843,9.843v8.2a1.64,1.64,0,0,1-1.64,1.641H59.058a9.843,9.843,0,0,1-19.686,0H26.248a9.843,9.843,0,0,1-19.686,0H1.641A1.64,1.64,0,0,1,0,66.45V54.967A6.562,6.562,0,0,1,6.562,48.4l4.912-12.28A6.561,6.561,0,0,1,17.567,32H37.859a7.425,7.425,0,0,1,5.123,2.463L54.137,48.4h1.641ZM29.529,35.281V48.4H49.935L40.421,36.512a3.268,3.268,0,0,0-2.562-1.231h-8.33ZM14.521,37.343,10.1,48.4H26.248V35.281H17.567a3.264,3.264,0,0,0-3.046,2.063Zm1.885,37.309a6.562,6.562,0,1,0-6.562-6.562A6.562,6.562,0,0,0,16.405,74.653Zm32.81,0a6.562,6.562,0,1,0-6.562-6.562A6.562,6.562,0,0,0,49.215,74.653ZM62.339,64.81V58.248a6.569,6.569,0,0,0-6.562-6.562H6.562a3.285,3.285,0,0,0-3.281,3.281V64.81H7.165a9.787,9.787,0,0,1,18.48,0h14.33a9.787,9.787,0,0,1,18.48,0h3.884Z" transform="translate(807 2319.4)" fill="#FFB600"/>
  </g>
</svg>
