<svg xmlns="http://www.w3.org/2000/svg" width="73" height="73" viewBox="0 0 73 73">
  <g id="Group_21" data-name="Group 21" transform="translate(-528 -2332)">
    <circle id="Ellipse_7" data-name="Ellipse 7" cx="36.5" cy="36.5" r="36.5" transform="translate(528 2332)" fill="#f2f2f2"/>
    <path id="desktop-alt" d="M49.318,0A4.485,4.485,0,0,1,53.8,4.483v26.9a4.485,4.485,0,0,1-4.483,4.483H31.384l2.242,8.967h6.725a1.494,1.494,0,0,1,0,2.989H13.45a1.494,1.494,0,0,1,0-2.989h6.725l2.242-8.967H4.483A4.485,4.485,0,0,1,0,31.384V4.483A4.485,4.485,0,0,1,4.483,0ZM23.258,44.834h7.286l-1.494-5.978h-4.3Zm27.554-13.45V26.9H2.989v4.483a1.5,1.5,0,0,0,1.494,1.494H49.318A1.5,1.5,0,0,0,50.812,31.384Zm0-7.472V4.483a1.5,1.5,0,0,0-1.494-1.494H4.483A1.5,1.5,0,0,0,2.989,4.483V23.912Z" transform="translate(547.199 2354.399)" fill="#FFB600"/>
  </g>
</svg>
