<svg width="496" height="496" viewBox="0 0 496 496" fill="none" xmlns="http://www.w3.org/2000/svg">
<path d="M3.01016 250.43C4.23953 385.624 115.235 494.619 250.43 493.39C385.624 492.16 494.619 381.165 493.39 245.97C492.161 110.776 381.165 1.78074 245.97 3.01011C110.776 4.23947 1.78079 115.235 3.01016 250.43ZM468.891 246.193C469.997 367.888 371.902 467.784 250.207 468.891C128.512 469.997 28.6158 371.902 27.5091 250.207C26.4025 128.512 124.498 28.6157 246.193 27.5091C367.888 26.4025 467.784 124.498 468.891 246.193Z" fill="#6364C2"/>
<path d="M276.651 187.739L325.086 235.3L141.693 236.968C134.894 237.03 129.444 242.58 129.506 249.379C129.568 256.179 135.117 261.629 141.917 261.567L325.21 259.9L277.648 308.335C275.27 310.756 274.098 313.867 274.127 317.067C274.156 320.267 275.384 323.356 277.806 325.734C282.65 330.49 290.349 330.42 295.105 325.577L363.376 256.053C368.132 251.21 368.062 243.51 363.219 238.754L293.695 170.483C288.852 165.727 281.152 165.797 276.396 170.64C271.737 175.183 271.808 182.983 276.651 187.739Z" fill="#6364C2"/>
</svg>
