<svg width="19" height="19" viewBox="0 0 19 19" fill="none" xmlns="http://www.w3.org/2000/svg">
<path d="M18.4784 8.38452C18.8124 8.71862 19 9.17166 19 9.64404C19 10.1164 18.8124 10.5695 18.4784 10.9036L10.9037 18.4782C10.7383 18.6436 10.5419 18.7749 10.3258 18.8644C10.1097 18.9539 9.87808 19 9.64416 19C9.41023 19 9.1786 18.9539 8.96249 18.8644C8.74638 18.7749 8.55002 18.6436 8.38463 18.4782L0.521261 10.6155C0.208593 10.2675 0.0246204 9.82288 0 9.3557L0 1.78105C0 1.30868 0.187648 0.855667 0.521663 0.521656C0.855678 0.187645 1.3087 0 1.78107 0L9.35582 0C9.82383 0.0242777 10.2693 0.208478 10.6178 0.521804L18.4784 8.38452ZM17.6389 10.0641C17.75 9.95259 17.8123 9.80166 17.8123 9.64431C17.8123 9.48697 17.75 9.33604 17.6389 9.22457L9.77612 1.3613C9.72113 1.306 9.65571 1.26215 9.58366 1.23229C9.51161 1.20244 9.43436 1.18717 9.35637 1.18736H1.78107C1.62366 1.18751 1.47273 1.2501 1.36143 1.36141C1.25012 1.47272 1.18752 1.62364 1.18738 1.78105V9.35735C1.19565 9.51255 1.25707 9.66018 1.36132 9.77545L9.22413 17.6387C9.33546 17.75 9.48645 17.8126 9.64388 17.8126C9.80132 17.8126 9.9523 17.75 10.0636 17.6387L17.6389 10.0641ZM5.34375 4.60131C5.19692 4.60131 5.05339 4.64485 4.9313 4.72642C4.80922 4.808 4.71407 4.92394 4.65788 5.05959C4.60169 5.19524 4.58699 5.34451 4.61563 5.48852C4.64428 5.63252 4.71498 5.7648 4.81881 5.86863C4.92263 5.97245 5.05491 6.04315 5.19892 6.0718C5.34293 6.10044 5.4922 6.08574 5.62785 6.02955C5.7635 5.97336 5.87945 5.87821 5.96102 5.75613C6.0426 5.63405 6.08614 5.49052 6.08614 5.34369C6.08599 5.14684 6.00773 4.9581 5.86854 4.81891C5.72934 4.67972 5.5406 4.60146 5.34375 4.60131ZM5.34375 3.56209C5.69597 3.5622 6.04024 3.66674 6.33305 3.86248C6.62586 4.05823 6.85406 4.33639 6.9888 4.66181C7.12354 4.98724 7.15876 5.3453 7.09002 5.69074C7.02128 6.03618 6.85166 6.35348 6.60261 6.60253C6.35355 6.85158 6.03625 7.0212 5.69081 7.08994C5.34536 7.15867 4.9873 7.12345 4.66187 6.98872C4.33645 6.85398 4.05828 6.62578 3.86253 6.33298C3.66678 6.04017 3.56224 5.6959 3.56214 5.34369C3.56206 5.1097 3.6081 4.878 3.69761 4.66181C3.78711 4.44563 3.91834 4.2492 4.0838 4.08375C4.24925 3.9183 4.44568 3.78707 4.66187 3.69756C4.87806 3.60805 5.10977 3.56202 5.34375 3.56209Z" fill="white"/>
</svg>
