<svg width="39" height="39" viewBox="0 0 39 39" fill="none" xmlns="http://www.w3.org/2000/svg">
<path d="M19.5 0C8.74747 0 0 8.74747 0 19.5C0 30.2525 8.74747 39 19.5 39C30.2525 39 39 30.2525 39 19.5C39 8.74747 30.2525 0 19.5 0ZM19.5 36.7059C10.0115 36.7059 2.29412 28.9885 2.29412 19.5C2.29412 10.0115 10.0115 2.29412 19.5 2.29412C28.9885 2.29412 36.7059 10.0115 36.7059 19.5C36.7059 28.9885 28.9885 36.7059 19.5 36.7059ZM31.7368 20.6471V22.9412H17.9721V11.4706H20.2662V20.6471H31.7368Z" fill="#6364C2"/>
</svg>
