<svg width="13" height="16" viewBox="0 0 13 16" fill="none" xmlns="http://www.w3.org/2000/svg">
<path d="M10.3974 0.75057L11.5527 1.70577C11.6227 1.77653 11.7102 1.8119 11.8153 1.8119C11.9203 1.8119 12.0078 1.75884 12.0778 1.6527C12.1478 1.54657 12.1828 1.45813 12.1828 1.38737C12.1828 1.31661 12.1128 1.24586 11.9728 1.1751L10.8175 0.219903C10.7475 0.149147 10.66 0.11377 10.555 0.11377C10.4499 0.11377 10.3624 0.149147 10.2924 0.219903C10.2224 0.290658 10.2049 0.379103 10.2399 0.485236C10.2749 0.59137 10.3274 0.679814 10.3974 0.75057ZM0.840196 1.8119C0.910213 1.8119 0.980229 1.77653 1.05025 1.70577L2.20552 0.75057C2.27553 0.679814 2.32804 0.59137 2.36305 0.485236C2.39806 0.379103 2.38056 0.290658 2.31054 0.219903C2.24052 0.149147 2.153 0.11377 2.04798 0.11377H1.78542L0.525123 1.1751C0.455106 1.24586 0.420098 1.31661 0.420098 1.38737C0.420098 1.45813 0.455106 1.54657 0.525123 1.6527C0.595139 1.75884 0.700164 1.8119 0.840196 1.8119ZM10.1874 12.8498C10.9576 12.213 11.5702 11.4523 12.0253 10.5679C12.4804 9.68346 12.708 8.71057 12.708 7.64924C12.708 6.5879 12.4104 5.56195 11.8153 4.57137C11.2201 3.58079 10.4499 2.80248 9.50472 2.23644C8.5595 1.67039 7.50926 1.38737 6.35399 1.38737C5.19872 1.38737 4.13097 1.67039 3.15074 2.23644C2.17051 2.80248 1.40033 3.58079 0.840196 4.57137C0.280065 5.56195 0 6.5879 0 7.64924C0 8.71057 0.210049 9.70115 0.630147 10.621C1.05025 11.5408 1.68039 12.2837 2.52059 12.8498L0.735172 14.7602C0.665156 14.8309 0.630147 14.9194 0.630147 15.0255C0.630147 15.1316 0.665156 15.2201 0.735172 15.2908C0.805188 15.3616 0.875205 15.397 0.945221 15.397C1.01524 15.397 1.08525 15.3616 1.15527 15.2908L3.04571 13.2743C4.02594 13.8404 5.09369 14.1234 6.24896 14.1234C7.40423 14.1234 8.50699 13.8404 9.55723 13.2743L11.4477 15.2908C11.5177 15.3616 11.5877 15.397 11.6577 15.397C11.7277 15.397 11.7978 15.3616 11.8678 15.2908C11.9378 15.2201 11.9903 15.1316 12.0253 15.0255C12.0603 14.9194 12.0428 14.8309 11.9728 14.7602L10.1874 12.8498ZM0.630147 7.75537C0.630147 6.69404 0.892709 5.73884 1.41783 4.88977C1.94295 4.0407 2.62561 3.35084 3.46581 2.82017C4.30601 2.2895 5.25123 2.02417 6.30147 2.02417C7.35172 2.02417 8.29694 2.2895 9.13714 2.82017C9.97733 3.35084 10.66 4.0407 11.1851 4.88977C11.7102 5.73884 11.9728 6.67635 11.9728 7.7023C11.9728 8.72826 11.7102 9.68346 11.1851 10.5679C10.66 11.4523 9.95983 12.1599 9.08462 12.6906C8.20942 13.2212 7.2817 13.4866 6.30147 13.4866C5.32124 13.4866 4.39353 13.2212 3.51832 12.6906C2.64312 12.1599 1.94295 11.4523 1.41783 10.5679C0.892709 9.68346 0.630147 8.74595 0.630147 7.75537ZM9.34719 7.43697H6.61655V4.6775C6.61655 4.60675 6.58154 4.53599 6.51152 4.46524C6.44151 4.39448 6.37149 4.3591 6.30147 4.3591C6.23146 4.3591 6.16144 4.39448 6.09142 4.46524C6.02141 4.53599 5.9864 4.60675 5.9864 4.6775V7.75537C5.9864 7.82613 6.02141 7.89688 6.09142 7.96764C6.16144 8.03839 6.23146 8.07377 6.30147 8.07377H9.34719C9.48722 8.07377 9.59224 8.03839 9.66226 7.96764C9.73228 7.89688 9.76728 7.82613 9.76728 7.75537C9.76728 7.68462 9.73228 7.61386 9.66226 7.5431C9.59224 7.47235 9.48722 7.43697 9.34719 7.43697Z" fill="#EF6A00"/>
</svg>
