<svg width="5" height="17" viewBox="0 0 5 17" fill="none" xmlns="http://www.w3.org/2000/svg">
<path d="M1.50269e-06 2.14C1.45103e-06 3.32189 0.958112 4.28 2.14 4.28C3.32189 4.28 4.28 3.32189 4.28 2.14C4.28 0.958111 3.32189 5.1662e-08 2.14 0C0.958112 -5.1662e-08 1.55435e-06 0.958111 1.50269e-06 2.14Z" fill="black"/>
<path d="M1.94344e-06 8.42C1.89178e-06 9.60189 0.958113 10.56 2.14 10.56C3.32189 10.56 4.28 9.60189 4.28 8.42C4.28 7.23811 3.32189 6.28 2.14 6.28C0.958113 6.28 1.9951e-06 7.23811 1.94344e-06 8.42Z" fill="black"/>
<path d="M0 14.7C-5.1662e-08 15.8819 0.958111 16.84 2.14 16.84C3.32189 16.84 4.28 15.8819 4.28 14.7C4.28 13.5181 3.32189 12.56 2.14 12.56C0.958111 12.56 5.1662e-08 13.5181 0 14.7Z" fill="black"/>
</svg>
