<svg width="5" height="19" viewBox="0 0 5 19" fill="none" xmlns="http://www.w3.org/2000/svg">
<path d="M1.4709e-06 2.14C1.41924e-06 3.32189 0.958112 4.28 2.14 4.28C3.32189 4.28 4.28 3.32189 4.28 2.14C4.28 0.958111 3.32189 5.16621e-08 2.14 0C0.958112 -5.1662e-08 1.52256e-06 0.958111 1.4709e-06 2.14Z" fill="black"/>
<path d="M1.86794e-06 9.42C1.81628e-06 10.6019 0.958112 11.56 2.14 11.56C3.32189 11.56 4.28 10.6019 4.28 9.42C4.28 8.23811 3.32189 7.28 2.14 7.28C0.958113 7.28 1.9196e-06 8.23811 1.86794e-06 9.42Z" fill="black"/>
<path d="M0 16.7C-5.1662e-08 17.8819 0.958111 18.84 2.14 18.84C3.32189 18.84 4.28 17.8819 4.28 16.7C4.28 15.5181 3.32189 14.56 2.14 14.56C0.958111 14.56 5.1662e-08 15.5181 0 16.7Z" fill="black"/>
</svg>
