<svg width="6" height="26" viewBox="0 0 6 26" fill="none" xmlns="http://www.w3.org/2000/svg">
<g clip-path="url(#clip0_1_5)">
<path d="M1 5.14C1 6.32189 1.95811 7.28 3.14 7.28C4.32189 7.28 5.28 6.32189 5.28 5.14C5.28 3.95811 4.32189 3 3.14 3C1.95811 3 1 3.95811 1 5.14Z" fill="black"/>
<path d="M1 12.42C1 13.6019 1.95811 14.56 3.14 14.56C4.32189 14.56 5.28 13.6019 5.28 12.42C5.28 11.2381 4.32189 10.28 3.14 10.28C1.95811 10.28 1 11.2381 1 12.42Z" fill="black"/>
<path d="M1 19.7C1 20.8819 1.95811 21.84 3.14 21.84C4.32189 21.84 5.28 20.8819 5.28 19.7C5.28 18.5181 4.32189 17.56 3.14 17.56C1.95811 17.56 1 18.5181 1 19.7Z" fill="black"/>
</g>
<defs>
<clipPath id="clip0_1_5">
<rect width="26" height="6" fill="white" transform="translate(6) rotate(90)"/>
</clipPath>
</defs>
</svg>
