<svg width="6" height="28" viewBox="0 0 6 28" fill="none" xmlns="http://www.w3.org/2000/svg">
<g clip-path="url(#clip0_1_5)">
<path d="M1 2.14C1 3.32189 1.95811 4.28 3.14 4.28C4.32189 4.28 5.28 3.32189 5.28 2.14C5.28 0.958111 4.32189 -4.18803e-08 3.14 -9.35424e-08C1.95811 -1.45204e-07 1 0.958111 1 2.14Z" fill="black"/>
<path d="M1 13.14C1 14.3219 1.95811 15.28 3.14 15.28C4.32189 15.28 5.28 14.3219 5.28 13.14C5.28 11.9581 4.32189 11 3.14 11C1.95811 11 1 11.9581 1 13.14Z" fill="black"/>
<path d="M1 24.14C1 25.3219 1.95811 26.28 3.14 26.28C4.32189 26.28 5.28 25.3219 5.28 24.14C5.28 22.9581 4.32189 22 3.14 22C1.95811 22 1 22.9581 1 24.14Z" fill="black"/>
</g>
<defs>
<clipPath id="clip0_1_5">
<rect width="28" height="6" fill="white" transform="translate(6) rotate(90)"/>
</clipPath>
</defs>
</svg>
