<svg xmlns="http://www.w3.org/2000/svg" width="19.751" height="16.048" viewBox="0 0 19.751 16.048">
  <path id="twitter_la-brands-400" d="M147.751,201.9a8.3,8.3,0,0,1-2.315.643,4.28,4.28,0,0,0,1.08-.964,4.039,4.039,0,0,0,.694-1.3,8.282,8.282,0,0,1-2.572,1,3.894,3.894,0,0,0-1.337-.952,4.032,4.032,0,0,0-1.62-.334,3.96,3.96,0,0,0-2.032.54,4.076,4.076,0,0,0-1.479,1.479,3.91,3.91,0,0,0-.553,2.019,4.033,4.033,0,0,0,.1.926,10.964,10.964,0,0,1-4.681-1.26,11.351,11.351,0,0,1-3.678-2.958,4.061,4.061,0,0,0,1.26,5.4,3.8,3.8,0,0,1-1.826-.514v.051a4.073,4.073,0,0,0,3.24,3.986,4.331,4.331,0,0,1-1.054.129,5.835,5.835,0,0,1-.771-.051,4.063,4.063,0,0,0,3.78,2.8,8.4,8.4,0,0,1-2.34,1.286,7.837,7.837,0,0,1-2.675.463q-.489-.026-.977-.077a11.351,11.351,0,0,0,2.932,1.337,11.085,11.085,0,0,0,3.266.489,11.607,11.607,0,0,0,4.963-1.054,10.818,10.818,0,0,0,3.6-2.7,11.951,11.951,0,0,0,2.237-3.7,11.721,11.721,0,0,0,.746-4.063l-.026-.54A7.829,7.829,0,0,0,147.751,201.9Z" transform="translate(-128 -200)" fill="#242424"/>
</svg>
