<svg xmlns="http://www.w3.org/2000/svg" width="66.2" height="90.3" viewBox="0 0 66.2 90.3"><defs><style>.cls-1{fill:#ff7e67;}.cls-2{fill:#dcdeff;}.cls-3{fill:#6364c2;}</style></defs><title>icon-1</title><g id="color"><rect class="cls-1" x="5.9" y="32.2" width="40.8" height="33.38" transform="translate(-22.6 75.2) rotate(-90)"/><rect class="cls-2" x="5.9" y="32.2" width="40.8" height="33.38" transform="translate(-22.6 75.2) rotate(-90)"/></g><g id="icons"><path class="cls-3" d="M66.2,41.2H49.8v3.3h6.5V78.9A8.1,8.1,0,0,1,48.2,87H29.8a8.1,8.1,0,0,1-8.1-8.1V77.3h5.4a1.7,1.7,0,0,0,1.7-1.6V65H37a1.8,1.8,0,0,0,1.7-1.7V22.5A1.8,1.8,0,0,0,37,20.8H1.6A1.7,1.7,0,0,0,0,22.5V63.3A1.7,1.7,0,0,0,1.6,65h9.6V75.7a1.6,1.6,0,0,0,1.6,1.6h5.6v1.6A11.4,11.4,0,0,0,29.8,90.3H48.2A11.4,11.4,0,0,0,59.6,78.9V44.5h6.6ZM35.4,24.1V50.7H3.3V24.1ZM3.3,54H35.4v7.7H3.3ZM14.5,65h11v9h-11Z"/><path class="cls-3" d="M54.1,27.7h7.4v8.8h3.3V26a1.6,1.6,0,0,0-1.6-1.6H52.4A1.6,1.6,0,0,0,50.8,26V36.5h3.3Z"/><rect class="cls-3" x="13.2" y="8.8" width="3.3" height="3.61"/><rect class="cls-3" x="23.3" y="8.8" width="3.3" height="3.61"/><path class="cls-3" d="M8,3.3H31.9V16.1h3.3V1.7A1.6,1.6,0,0,0,33.5,0H6.4A1.7,1.7,0,0,0,4.7,1.7V16.1H8Z"/></g></svg>