<svg width="25" height="24" viewBox="0 0 25 24" fill="none" xmlns="http://www.w3.org/2000/svg">
<path d="M12.3779 0C10.2049 0 8.18562 0.548077 6.32024 1.64423C4.51255 2.70192 3.07985 4.13462 2.02216 5.94231C0.926007 7.80769 0.37793 9.82692 0.37793 12C0.37793 14.1731 0.926007 16.1923 2.02216 18.0577C3.07985 19.8654 4.51255 21.2981 6.32024 22.3558C8.18562 23.4519 10.2049 24 12.3779 24C14.551 24 16.5702 23.4519 18.4356 22.3558C20.2433 21.2981 21.676 19.8654 22.7337 18.0577C23.8299 16.1923 24.3779 14.1731 24.3779 12C24.3779 9.82692 23.8299 7.80769 22.7337 5.94231C21.676 4.13462 20.2433 2.70192 18.4356 1.64423C16.5702 0.548077 14.551 0 12.3779 0ZM12.3779 1.84615C14.2241 1.84615 15.9356 2.30769 17.5125 3.23077C19.0318 4.13462 20.2433 5.34615 21.1472 6.86538C22.0702 8.44231 22.5318 10.1538 22.5318 12C22.5318 13.8462 22.0702 15.5577 21.1472 17.1346C20.2433 18.6538 19.0318 19.8654 17.5125 20.7692C15.9356 21.6923 14.2241 22.1538 12.3779 22.1538C10.5318 22.1538 8.82024 21.6923 7.24331 20.7692C5.72408 19.8654 4.51255 18.6538 3.6087 17.1346C2.68562 15.5577 2.22408 13.8462 2.22408 12C2.22408 10.1538 2.68562 8.44231 3.6087 6.86538C4.51255 5.34615 5.72408 4.13462 7.24331 3.23077C8.82024 2.30769 10.5318 1.84615 12.3779 1.84615ZM12.3779 4.61538C11.551 4.61538 10.7818 4.82212 10.0702 5.23558C9.3587 5.64904 8.7962 6.21154 8.38274 6.92308C7.96928 7.63462 7.76255 8.40385 7.76255 9.23077C7.76255 9.90385 7.90678 10.5433 8.19524 11.149C8.4837 11.7548 8.88755 12.2788 9.40678 12.7212C8.34908 13.2596 7.50293 14.0433 6.86831 15.0721C6.2337 16.101 5.91639 17.2308 5.91639 18.4615H7.76255C7.76255 17.6154 7.96928 16.8413 8.38274 16.1394C8.7962 15.4375 9.35389 14.8798 10.0558 14.4663C10.7577 14.0529 11.5318 13.8462 12.3779 13.8462C13.2241 13.8462 13.9981 14.0529 14.7 14.4663C15.402 14.8798 15.9597 15.4375 16.3731 16.1394C16.7866 16.8413 16.9933 17.6154 16.9933 18.4615H18.8395C18.8395 17.2308 18.5222 16.101 17.8875 15.0721C17.2529 14.0433 16.4068 13.2596 15.3491 12.7212C15.8683 12.2788 16.2722 11.7548 16.5606 11.149C16.8491 10.5433 16.9933 9.90385 16.9933 9.23077C16.9933 8.40385 16.7866 7.63462 16.3731 6.92308C15.9597 6.21154 15.3972 5.64904 14.6856 5.23558C13.9741 4.82212 13.2049 4.61538 12.3779 4.61538ZM12.3779 6.46154C13.1472 6.46154 13.801 6.73077 14.3395 7.26923C14.8779 7.80769 15.1472 8.46154 15.1472 9.23077C15.1472 10 14.8779 10.6538 14.3395 11.1923C13.801 11.7308 13.1472 12 12.3779 12C11.6087 12 10.9549 11.7308 10.4164 11.1923C9.87793 10.6538 9.6087 10 9.6087 9.23077C9.6087 8.46154 9.87793 7.80769 10.4164 7.26923C10.9549 6.73077 11.6087 6.46154 12.3779 6.46154Z" fill="#2B2B2B"/>
</svg>
