<svg width="37" height="20" viewBox="0 0 37 20" fill="none" xmlns="http://www.w3.org/2000/svg">
<circle cx="18.9922" cy="7.73974" r="3.88085" stroke="black"/>
<circle cx="9.06249" cy="5.16308" r="3.88085" stroke="black"/>
<circle cx="3.88085" cy="3.88085" r="3.88085" transform="matrix(-1 0 0 1 32.6152 0.679932)" stroke="black"/>
<path d="M25.4708 18.5703H12.5128C12.7545 14.969 15.5866 12.1685 18.9918 12.1685C22.3971 12.1685 25.2292 14.969 25.4708 18.5703Z" stroke="black"/>
<path d="M12.8794 16.7663C7.41538 16.7663 1.31836 16.773 1.31836 16.773C1.31836 12.685 4.45046 9.37109 8.31409 9.37109C10.7145 9.37109 12.8325 10.6502 14.0925 12.5993C14.2589 12.8567 14.5292 13.376 14.6683 13.665" stroke="black"/>
<path d="M24.6616 16.4391C30.1256 16.4391 36.2227 16.4458 36.2227 16.4458C36.2227 12.3579 33.0906 9.04395 29.2269 9.04395C26.8266 9.04395 24.7086 10.323 23.4486 12.2722C23.2822 12.5296 23.0118 13.0488 22.8727 13.3378" stroke="black"/>
</svg>
