<svg width="18" height="11" viewBox="0 0 18 11" fill="none" xmlns="http://www.w3.org/2000/svg">
<path d="M8.91699 3.9032C9.73043 3.9032 10.3932 4.55328 10.3932 5.3496C10.3932 6.14592 9.72974 6.7752 8.91699 6.7752C8.10424 6.7752 7.46198 6.14592 7.46198 5.3496C7.46198 4.55328 8.10424 3.9032 8.91699 3.9032ZM8.91699 0.338867C13.7531 0.338867 17.2403 4.78339 17.2403 4.78339C17.4759 5.07723 17.4759 5.60118 17.2403 5.89435C17.2403 5.89435 13.7524 10.3389 8.91699 10.3389C4.08156 10.3389 0.593648 5.89435 0.593648 5.89435C0.358107 5.60051 0.358107 5.07656 0.593648 4.78339C0.593648 4.78339 4.08156 0.338867 8.91699 0.338867ZM8.91699 8.93473C10.9287 8.93473 12.5761 7.32062 12.5761 5.3496C12.5761 3.37858 10.9287 1.76447 8.91699 1.76447C6.90531 1.76447 5.2579 3.37858 5.2579 5.3496C5.2579 7.32062 6.90531 8.93473 8.91699 8.93473Z" fill="black"/>
</svg>
