<svg width="18" height="8" viewBox="0 0 18 8" fill="none" xmlns="http://www.w3.org/2000/svg">
<path d="M17.5368 3.125L15.3417 0.625C15.3417 0.541667 15.2807 0.5 15.1588 0.5C15.0368 0.5 14.9352 0.520833 14.8539 0.5625C14.7726 0.604167 14.7116 0.6875 14.6709 0.8125C14.6303 0.9375 14.6506 1.04167 14.7319 1.125L16.6831 3.625H0.58558C0.504279 3.625 0.422979 3.66667 0.341678 3.75C0.260377 3.83333 0.219727 3.91667 0.219727 4C0.219727 4.08333 0.260377 4.16667 0.341678 4.25C0.422979 4.33333 0.504279 4.375 0.58558 4.375H16.6831L14.7319 6.875C14.6506 6.95833 14.6303 7.0625 14.6709 7.1875C14.7116 7.3125 14.7726 7.39583 14.8539 7.4375C14.9352 7.47917 15.0368 7.5 15.1588 7.5C15.2807 7.5 15.3417 7.45833 15.3417 7.375L17.5368 4.875C17.6994 4.625 17.7807 4.33333 17.7807 4C17.7807 3.66667 17.6994 3.375 17.5368 3.125Z" fill="#272522"/>
</svg>
