<svg width="21" height="21" viewBox="0 0 21 21" fill="none" xmlns="http://www.w3.org/2000/svg">
<path d="M0 21L1.806 15.5824C0.889603 14.041 0.362069 12.2423 0.362069 10.319C0.362069 4.62 4.98207 0 10.681 0C16.38 0 21 4.62 21 10.319C21 16.0179 16.38 20.6379 10.681 20.6379C8.94709 20.6379 7.31415 20.2082 5.88 19.4529L0 21Z" fill="#6668C3"/>
<path d="M17.2645 13.7532C16.788 12.8528 15.0309 11.8231 15.0309 11.8231C14.6334 11.5964 14.1536 11.5711 13.927 11.9751C13.927 11.9751 13.356 12.6598 13.2108 12.7583C12.5475 13.2076 11.9331 13.1902 11.3128 12.57L9.87144 11.1286L8.43004 9.68721C7.80982 9.06699 7.79244 8.45256 8.24177 7.78925C8.34025 7.64406 9.02492 7.07308 9.02492 7.07308C9.42899 6.84606 9.40365 6.36668 9.17699 5.96913C9.17699 5.96913 8.14727 4.21201 7.2468 3.73552C6.86373 3.53276 6.3934 3.60373 6.08709 3.91004L5.45058 4.54656C3.43132 6.56582 4.42556 8.8454 6.44482 10.8647L8.29028 12.7101L10.1357 14.5556C12.155 16.5749 14.4346 17.5691 16.4539 15.5498L17.0904 14.9133C17.3967 14.6063 17.4673 14.136 17.2645 13.7532Z" fill="white"/>
</svg>
