<?xml version="1.0" encoding="UTF-8" standalone="no"?>
<!-- Created with Inkscape (http://www.inkscape.org/) -->

<svg
   xmlns:dc="http://purl.org/dc/elements/1.1/"
   xmlns:cc="http://creativecommons.org/ns#"
   xmlns:rdf="http://www.w3.org/1999/02/22-rdf-syntax-ns#"
   xmlns:svg="http://www.w3.org/2000/svg"
   xmlns="http://www.w3.org/2000/svg"
   xmlns:sodipodi="http://sodipodi.sourceforge.net/DTD/sodipodi-0.dtd"
   xmlns:inkscape="http://www.inkscape.org/namespaces/inkscape"
   width="203.2mm"
   height="203.99376mm"
   viewBox="0 0 203.2 203.99376"
   version="1.1"
   id="svg8"
   inkscape:version="0.92.5 (2060ec1f9f, 2020-04-08)"
   sodipodi:docname="what-s-app_la-brands-400.svg">
  <defs
     id="defs2" />
  <sodipodi:namedview
     id="base"
     pagecolor="#ffffff"
     bordercolor="#666666"
     borderopacity="1.0"
     inkscape:pageopacity="0.0"
     inkscape:pageshadow="2"
     inkscape:zoom="0.35"
     inkscape:cx="-198.85714"
     inkscape:cy="516.92858"
     inkscape:document-units="mm"
     inkscape:current-layer="layer1"
     showgrid="false"
     inkscape:window-width="1920"
     inkscape:window-height="1027"
     inkscape:window-x="-8"
     inkscape:window-y="-8"
     inkscape:window-maximized="1" />
  <metadata
     id="metadata5">
    <rdf:RDF>
      <cc:Work
         rdf:about="">
        <dc:format>image/svg+xml</dc:format>
        <dc:type
           rdf:resource="http://purl.org/dc/dcmitype/StillImage" />
        <dc:title></dc:title>
      </cc:Work>
    </rdf:RDF>
  </metadata>
  <g
     inkscape:label="Layer 1"
     inkscape:groupmode="layer"
     id="layer1"
     transform="translate(-23.132143,-81.610266)">
    <path
       id="path815"
       d="m 196.69881,111.2436 q -14.2875,-14.287501 -32.80834,-21.960418 -18.52083,-7.672916 -38.62916,-7.672916 -27.516667,0 -51.064584,13.758333 -23.01875,13.493751 -36.247916,36.247921 -14.022917,23.8125 -14.022917,51.06458 0,27.25208 13.49375,50.53542 l -14.2875,52.3875 53.710417,-14.02292 q 22.489583,12.43542 48.15416,12.43542 h 0.26459 q 27.25208,0 50.8,-13.75834 23.01875,-13.49375 36.5125,-36.5125 13.75833,-23.54791 13.75833,-50.8 0,-20.37291 -7.67292,-38.89375 -7.67291,-18.52083 -21.96041,-32.80833 z m -71.4375,155.575 v 0 q -23.28334,0 -42.8625,-11.64167 l -3.175,-1.85208 -31.75,8.46667 8.466666,-31.22084 -2.116666,-3.175 q -12.7,-20.37291 -12.7,-44.71458 0,-22.75417 11.377083,-42.33333 11.1125,-19.05 30.1625,-30.1625 19.843747,-11.377088 42.597917,-11.377088 16.66875,0 32.01458,6.349998 15.34583,6.35 27.25208,18.25625 11.90625,11.90625 18.25625,27.25209 6.35,15.34583 6.35,32.01458 0,23.01875 -11.37708,42.59792 -11.1125,19.05 -30.1625,30.1625 -19.57917,11.37708 -42.33333,11.37708 z m 46.0375,-62.97083 q -14.2875,-7.14375 -17.19792,-8.20209 -2.11667,-0.79375 -3.43958,-0.66146 -1.32292,0.1323 -2.38125,1.98438 -2.11667,3.43958 -7.9375,9.78958 -1.05834,1.32292 -2.38125,1.45521 -1.32292,0.13229 -3.175,-0.66146 l -1.5875,-0.79375 q -10.58334,-4.49791 -18.65313,-11.77396 -8.06979,-7.27604 -14.15521,-17.59479 -0.793747,-1.5875 -0.396867,-2.64583 0.396867,-1.05833 1.455207,-2.38125 0.79375,-0.79375 2.91041,-3.175 l 1.05834,-1.32292 q 1.05833,-1.32291 2.11666,-3.43958 l 0.26459,-0.79375 q 1.05833,-1.85208 0,-4.49792 l -7.937497,-18.78541 q -1.05834,-2.64584 -2.64584,-3.70417 -0.79375,-0.52917 -2.38125,-0.52917 h -5.55625 q -3.704163,0 -6.61458,3.175 l -0.529167,0.52917 q -3.439583,3.43958 -5.291666,6.87917 -3.175,6.08541 -3.175,13.75833 0,7.67292 4.7625,16.93333 2.38125,4.7625 5.55625,8.99584 l 0.529166,0.79375 q 6.349997,8.99583 13.758337,16.40416 14.022907,14.55209 29.104157,20.90209 6.61459,2.91041 14.02292,5.29166 7.40833,2.38125 16.13958,1.05834 4.23334,-0.52917 9.525,-3.96875 6.08542,-3.96875 7.54063,-7.9375 1.45521,-3.96875 1.71979,-7.54063 0.26458,-3.57187 -0.26458,-4.49792 -0.52917,-0.92604 -3.43959,-2.24895 z"
       inkscape:connector-curvature="0"
       style="fill:#ffffff;stroke-width:0.26458332" />
  </g>
</svg>
