<svg width="25" height="25" viewBox="0 0 25 25" fill="none" xmlns="http://www.w3.org/2000/svg">
<path d="M0 25L2.15 18.5504C1.05905 16.7155 0.431034 14.5741 0.431034 12.2845C0.431034 5.5 5.93103 0 12.7155 0C19.5 0 25 5.5 25 12.2845C25 19.069 19.5 24.569 12.7155 24.569C10.6513 24.569 8.70733 24.0573 7 23.1582L0 25Z" fill="#6364C2"/>
<path d="M19.8767 15.8828C19.3649 14.9156 17.4776 13.8096 17.4776 13.8096C17.0506 13.5662 16.5354 13.539 16.2919 13.973C16.2919 13.973 15.6786 14.7083 15.5227 14.8141C14.8102 15.2967 14.1503 15.2781 13.4841 14.6119L11.936 13.0638L10.3878 11.5156C9.72162 10.8495 9.70295 10.1895 10.1856 9.4771C10.2913 9.32116 11.0267 8.70789 11.0267 8.70789C11.4607 8.46406 11.4335 7.94918 11.1901 7.52218C11.1901 7.52218 10.0841 5.63494 9.1169 5.12317C8.70545 4.90539 8.20028 4.98161 7.87128 5.31061L7.18761 5.99426C5.01877 8.16306 6.08667 10.6115 8.2555 12.7803L10.2377 14.7624L12.2198 16.7445C14.3887 18.9133 16.8371 19.9812 19.006 17.8124L19.6896 17.1288C20.0186 16.799 20.0945 16.2938 19.8767 15.8828Z" fill="white"/>
</svg>
