<svg xmlns="http://www.w3.org/2000/svg" width="91.2" height="69.8" viewBox="0 0 91.2 69.8"><defs><style>.cls-1{fill:#ff7e67;}.cls-2{fill:#dcdeff;}.cls-3{fill:#6364c2;}</style></defs><title>icon-1</title><g id="color"><path class="cls-1" d="M85.1,29.1l-.4-.3A9,9,0,0,1,81,24.6L75.8,12.7a9.7,9.7,0,0,0-8.9-6H36a9.9,9.9,0,0,0-9,6L21.8,24.6a8.3,8.3,0,0,1-3.6,4.2l-.5.3a12.4,12.4,0,0,0-6,10.8V51.4c0,6.9,5.2,12.4,11.6,12.4l28,.2h.2l28-.2c6.5,0,11.7-5.5,11.7-12.4V39.9A12.3,12.3,0,0,0,85.1,29.1ZM43.7,44.9a2.8,2.8,0,0,1-2.8-2.8,2.9,2.9,0,0,1,5.7,0A2.8,2.8,0,0,1,43.7,44.9Zm8.9-9.6a13.1,13.1,0,0,0-9.5-4,12.8,12.8,0,0,0-9.4,3.8l-2.3-2.3a16.7,16.7,0,0,1,23.6.1Zm7.5-7.8a23.6,23.6,0,0,0-33.3-.2L24.4,25a27,27,0,0,1,38,.2Z"/><path class="cls-2" d="M85.1,29.1l-.4-.3A9,9,0,0,1,81,24.6L75.8,12.7a9.7,9.7,0,0,0-8.9-6H36a9.9,9.9,0,0,0-9,6L21.8,24.6a8.3,8.3,0,0,1-3.6,4.2l-.5.3a12.4,12.4,0,0,0-6,10.8V51.4c0,6.9,5.2,12.4,11.6,12.4l28,.2h.2l28-.2c6.5,0,11.7-5.5,11.7-12.4V39.9A12.3,12.3,0,0,0,85.1,29.1ZM43.7,44.9a2.8,2.8,0,0,1-2.8-2.8,2.9,2.9,0,0,1,5.7,0A2.8,2.8,0,0,1,43.7,44.9Zm8.9-9.6a13.1,13.1,0,0,0-9.5-4,12.8,12.8,0,0,0-9.4,3.8l-2.3-2.3a16.7,16.7,0,0,1,23.6.1Zm7.5-7.8a23.6,23.6,0,0,0-33.3-.2L24.4,25a27,27,0,0,1,38,.2Z"/></g><g id="icons"><path class="cls-3" d="M76,22.6l-.5-.2a8.3,8.3,0,0,1-3-3.4L67.3,7A11.4,11.4,0,0,0,56.9,0H26A11.7,11.7,0,0,0,15.5,7L10.3,19a8,8,0,0,1-2.9,3.4l-.5.2A14.1,14.1,0,0,0,0,34.9V46.4A14,14,0,0,0,10.8,60.2v4a5.6,5.6,0,0,0,5.6,5.6h7A5.6,5.6,0,0,0,29,64.2V60.6H53.4v3.6a5.7,5.7,0,0,0,5.7,5.6H66a5.6,5.6,0,0,0,5.6-5.6V60.3A13.9,13.9,0,0,0,82.9,46.4V34.9A14.4,14.4,0,0,0,76,22.6ZM25.7,64.2a2.3,2.3,0,0,1-2.3,2.3h-7a2.3,2.3,0,0,1-2.3-2.3V60.5H25.7ZM66,66.5H59.1a2.3,2.3,0,0,1-2.4-2.3V60.6H68.3v3.7A2.3,2.3,0,0,1,66,66.5ZM79.6,46.4c0,5.9-4.5,10.8-10.1,10.8l-28,.2-28.1-.2c-5.6,0-10.1-4.9-10.1-10.8V34.9a10.8,10.8,0,0,1,5.3-9.4l.4-.3a10.3,10.3,0,0,0,4.3-4.9L18.6,8.4A8.1,8.1,0,0,1,26,3.3H56.9a8.1,8.1,0,0,1,7.4,5.1l5.2,11.9a10.5,10.5,0,0,0,4.4,4.9l.4.3a11,11,0,0,1,5.3,9.4Z"/><rect class="cls-3" x="0.7" y="13.1" width="6.6" height="3.3"/><rect class="cls-3" x="75.9" y="13.1" width="6.6" height="3.3"/><path class="cls-3" d="M29.4,30.6,31.7,33a13.3,13.3,0,0,1,9.4-3.9,13.1,13.1,0,0,1,9.5,4L53,30.8A16.7,16.7,0,0,0,29.4,30.6Z"/><path class="cls-3" d="M22.4,22.8l2.4,2.4a23.5,23.5,0,0,1,33.3.2L60.4,23A26.9,26.9,0,0,0,22.4,22.8Z"/><path class="cls-3" d="M41.8,37.2A2.8,2.8,0,0,0,38.9,40a2.9,2.9,0,0,0,5.7,0A2.8,2.8,0,0,0,41.8,37.2Z"/></g></svg>